<?xml version="1.0" standalone="no"?>
<!DOCTYPE svg PUBLIC "-//W3C//DTD SVG 1.1//EN" "http://www.w3.org/Graphics/SVG/1.1/DTD/svg11.dtd" >
<svg xmlns="http://www.w3.org/2000/svg" xmlns:xlink="http://www.w3.org/1999/xlink" version="1.1">
<metadata>
Created by FontForge 20150318 at Mon May 11 04:41:36 2015
 By uniteet7
v1.0. Axiata-Bold. (Official release) Copyright (c) 2009 Axiata Group Berhad [242188-H]. All rights reserved. Unauthorised use, modification, reproduction and distribution prohibited.
</metadata>
<defs>
<font id="AxiataBold" horiz-adv-x="600" >
  <font-face 
    font-family="AxiataBold"
    font-weight="700"
    font-stretch="normal"
    units-per-em="1000"
    panose-1="2 11 8 3 6 2 2 2 0 4"
    ascent="800"
    descent="-200"
    x-height="522"
    cap-height="707"
    bbox="-190 -203 1349 999"
    underline-thickness="120"
    underline-position="7"
    unicode-range="U+000D-FFFD"
  />
<missing-glyph horiz-adv-x="500" 
d="M410 737v-916h-320v916h320zM119 -150h262v857h-262v-857z" />
    <glyph glyph-name="uniFB00" unicode="ff" horiz-adv-x="682" 
d="M380 0v403h-111v-403h-149v403h-78v119h78v46q0 88 44.5 133.5t131.5 45.5q18 0 42 -2q19 -2 23.5 -7.5t4.5 -25.5v-79q-18 3 -33 3q-31 0 -49 -19t-18 -52v-43h114v46q0 88 44.5 133.5t131.5 45.5q46 0 84 -7q19 -4 23.5 -9t4.5 -24v-79q-45 10 -75 10
q-32 0 -49.5 -19.5t-17.5 -53.5v-43h143l-15 -86q-4 -20 -13.5 -26.5t-28.5 -6.5h-83v-403h-149z" />
    <glyph glyph-name="uniFB01" unicode="fi" horiz-adv-x="646" 
d="M367 0v403h-108v-403h-149v403h-68v119h68v46q0 90 37 134.5t122 44.5q19 0 46 -3q15 -2 18.5 -5.5t3.5 -17.5v-92q-18 4 -31 4q-29 0 -39.5 -17t-10.5 -54v-40h134q14 0 40 3l89 13v-538h-152zM365 653q0 32 23 55t55 23t55 -23t23 -55t-23 -55t-55 -23t-55 23t-23 55z
" />
    <glyph glyph-name="uniFB02" unicode="fl" horiz-adv-x="635" 
d="M259 403v-403h-149v403h-68v119h68v46q0 90 38 134.5t123 44.5q59 0 125 -16q27 -6 48 -1l77 17v-747h-150v629q-31 7 -56.5 8.5t-42 -16.5t-16.5 -56v-43h96l-15 -86q-4 -20 -13.5 -26.5t-28.5 -6.5h-36z" />
    <glyph glyph-name="uniFDFC" unicode="&#xfdfc;" horiz-adv-x="704" arabic-form="isolated" 
d="M210 658q13 38 19 58q5 20 15 2q7 -15 14 -26q7 -10 26 -25q13 -10 10 -25q-4 -20 -12 -37q-4 -8 -2 -22q41 -205 53 -340q5 -58 -10.5 -96t-59.5 -65q-69 -40 -141 -40q-50 0 -78.5 38t-28.5 94q0 22 10 64t26 66q11 16 18.5 9t0.5 -21q-19 -40 -18 -75q2 -48 29 -67
t76 -17q97 2 140 61q18 24 6 71q-14 55 -39.5 184t-34.5 159q-5 17 -17 31q-6 7 -2 19zM399 -71l21 40q5 9 16 1l37 -29q11 -8 4 -19l-19 -37q-8 -14 -22 -3l-31 24q-13 10 -6 23zM490 -71l21 40q5 9 16 1l37 -29q11 -8 4 -19l-19 -37q-8 -14 -22 -3l-31 24q-8 6 -9 10t3 13
zM410 281q7 -29 25.5 -44t43.5 -15q26 0 37 17q4 5 -1 13l-28 44q-6 11 0 28l16 39q5 13 16 2q32 -35 36 -112q3 -52 -19 -84q-16 -24 -54 -24q-88 0 -105 94q-6 35 -14 99.5t-11 83.5q-25 167 -32 207q-6 30 -3 43l11 53q1 5 3 6.5t4 0t4 -7.5q15 -44 37.5 -218t33.5 -225z
M691 268q0 -98 -57 -172q-61 -80 -110 -80q-73 0 -138 20q-26 8 -23 16q1 6 21 6q50 0 73 4q35 7 78 30.5t73 57.5q25 28 46 79q5 12 -2 23q-24 40 -50 92q-7 13 5 30q3 5 8 21q4 16 9.5 17.5t15.5 -11.5q51 -58 51 -133z" />
    <glyph glyph-name=".notdef" horiz-adv-x="500" 
d="M410 737v-916h-320v916h320zM119 -150h262v857h-262v-857z" />
    <glyph glyph-name=".null" horiz-adv-x="0" 
 />
    <glyph glyph-name=".null" horiz-adv-x="0" 
 />
    <glyph glyph-name="nonmarkingreturn" horiz-adv-x="333" 
 />
    <glyph glyph-name="CR" unicode="&#xd;" horiz-adv-x="290" 
 />
    <glyph glyph-name="space" unicode=" " horiz-adv-x="290" 
 />
    <glyph glyph-name="exclam" unicode="!" horiz-adv-x="331" 
d="M146 220l-40 371l-6 116h171l-6 -116l-43 -371h-76zM108 65q0 32 22.5 54.5t54.5 22.5t54.5 -22.5t22.5 -54.5t-22.5 -54.5t-54.5 -22.5t-54.5 22.5t-22.5 54.5z" />
    <glyph glyph-name="quotedbl" unicode="&#x22;" horiz-adv-x="517" 
d="M101 379l-41 328h165l-41 -328h-83zM333 379l-41 328h165l-41 -328h-83z" />
    <glyph glyph-name="numbersign" unicode="#" horiz-adv-x="722" 
d="M131 0l21 151h-88v130h105l20 149h-100v130h118l20 147h117l-20 -147h129l20 147h118l-20 -147h87v-130h-105l-20 -149h100v-130h-117l-21 -151h-118l20 151h-129l-20 -151h-117zM286 279h129l20 154h-129z" />
    <glyph glyph-name="dollar" unicode="$" horiz-adv-x="690" 
d="M609 625l-50 -78q-19 -30 -53 -6q-51 29 -104 40v-163q119 -29 174.5 -77.5t55.5 -134.5v-2q0 -87 -62 -141.5t-165 -62.5v-99h-89v99q-66 7 -137 35.5t-119 67.5l71 106q98 -72 190 -85v167q-120 29 -175.5 77.5t-55.5 135.5q0 86 60.5 141.5t166.5 62.5v58h89v-58
q106 -12 203 -83zM321 434v154q-43 -1 -67 -21.5t-24 -50.5q0 -31 20 -50t71 -32zM401 119q92 8 92 76q0 31 -20 48.5t-72 32.5v-157z" />
    <glyph glyph-name="percent" unicode="%" horiz-adv-x="884" 
d="M231 344q-76 0 -123.5 54.5t-47.5 132.5t48 133t125 55q75 0 122.5 -55t47.5 -133t-48.5 -132.5t-123.5 -54.5zM133 0l506 707h112l-505 -707h-113zM233 437q30 0 49 27t19 67t-20 67.5t-50 27.5t-49 -27t-19 -68q0 -40 20.5 -67t49.5 -27zM652 -12q-76 0 -123.5 54.5
t-47.5 132.5t48 133t125 55q75 0 122.5 -55t47.5 -133t-48.5 -132.5t-123.5 -54.5zM654 81q30 0 49 27t19 67t-20 67.5t-50 27.5t-49 -27t-19 -68q0 -40 20.5 -67t49.5 -27z" />
    <glyph glyph-name="ampersand" unicode="&#x26;" horiz-adv-x="776" 
d="M570 -4l-78 77q-96 -85 -214 -85q-105 0 -171.5 55t-66.5 147q0 136 150 203q-54 72 -54 143q0 77 56.5 130t149.5 53q86 0 140 -50.5t54 -123.5q0 -123 -146 -184l106 -109q37 52 69 125l106 -54q-40 -87 -92 -155l167 -172h-176zM314 435q96 36 96 102q0 32 -19 52
t-50 20q-32 0 -52 -21.5t-20 -54.5q0 -43 45 -98zM297 106q58 0 114 51q-118 123 -139 146q-79 -37 -79 -105q0 -41 29 -66.5t75 -25.5z" />
    <glyph glyph-name="quotesingle" unicode="'" horiz-adv-x="285" 
d="M101 379l-41 328h165l-41 -328h-83z" />
    <glyph glyph-name="parenleft" unicode="(" horiz-adv-x="398" 
d="M344 762l64 -99q-102 -77 -151.5 -167t-49.5 -205q0 -116 49 -205t152 -165l-64 -99q-141 84 -212.5 198t-71.5 271t71.5 271.5t212.5 199.5z" />
    <glyph glyph-name="parenright" unicode=")" horiz-adv-x="398" 
d="M-10 663l64 99q141 -85 212.5 -199.5t71.5 -271.5t-71.5 -271t-212.5 -198l-64 99q103 76 152 165t49 205q0 115 -49.5 205t-151.5 167z" />
    <glyph glyph-name="asterisk" unicode="*" horiz-adv-x="449" 
d="M180 417l16 122l-97 -76l-47 81l113 47l-113 48l47 81l97 -77l-16 124h90l-16 -124l97 77l46 -81l-112 -48l112 -47l-46 -81l-97 76l16 -122h-90z" />
    <glyph glyph-name="plus" unicode="+" 
d="M231 92v196h-191v135h191v196h137v-196h191v-135h-191v-196h-137z" />
    <glyph glyph-name="comma" unicode="," horiz-adv-x="302" 
d="M75 73q0 28 22.5 49.5t54.5 21.5q34 0 60 -22q28 -27 29 -77t-21 -82q-40 -71 -144 -96l-16 45q90 34 93 88q-33 -1 -55.5 21t-22.5 52z" />
    <glyph glyph-name="hyphen" unicode="-" horiz-adv-x="443" 
d="M60 259v139h323v-139h-323z" />
    <glyph glyph-name="period" unicode="." horiz-adv-x="282" 
d="M60 69q0 34 23.5 57.5t57.5 23.5t57.5 -23.5t23.5 -57.5t-23.5 -57.5t-57.5 -23.5t-57.5 23.5t-23.5 57.5z" />
    <glyph glyph-name="slash" unicode="/" horiz-adv-x="577" 
d="M10 -139l433 945h124l-434 -945h-123z" />
    <glyph glyph-name="zero" unicode="0" horiz-adv-x="743" 
d="M370 -12q-140 0 -225 105t-85 260q0 154 86.5 260t225.5 106q140 0 225.5 -105t85.5 -259q0 -155 -86 -261t-227 -106zM372 124q71 0 113.5 65t42.5 164q0 98 -44 164t-114 66q-69 0 -112 -65t-43 -163q0 -99 43 -165t114 -66z" />
    <glyph glyph-name="one" unicode="1" horiz-adv-x="473" 
d="M193 0v559l-92 -20q-36 -8 -46 22l-27 89l204 64h111v-714h-150z" />
    <glyph glyph-name="two" unicode="2" horiz-adv-x="640" 
d="M591 131l-17 -98q-4 -20 -13.5 -26.5t-28.5 -6.5h-469v117l252 210q61 50 85 86t24 75q0 43 -28 68.5t-73 25.5q-42 0 -79 -23.5t-79 -76.5l-105 83q57 79 119.5 116.5t155.5 37.5q109 0 176.5 -61t67.5 -156q0 -79 -38.5 -138t-125.5 -128l-137 -105h313z" />
    <glyph glyph-name="three" unicode="3" horiz-adv-x="658" 
d="M336 -12q-78 0 -150 30.5t-126 80.5l80 102q94 -78 191 -78q52 0 85 28t33 73t-37 73t-98 28q-36 0 -74 -5l-32 87l167 165h-258v135h459v-112l-176 -171q88 -11 143 -63t55 -140q0 -106 -73 -169.5t-189 -63.5z" />
    <glyph glyph-name="four" unicode="4" horiz-adv-x="708" 
d="M668 267l-15 -89q-4 -20 -13.5 -26.5t-28.5 -6.5h-54v-145h-148v145h-349v119l350 448h147v-445h111zM215 265h194v253z" />
    <glyph glyph-name="five" unicode="5" horiz-adv-x="661" 
d="M339 -12q-78 0 -150 30.5t-126 80.5l80 102q95 -78 191 -78q52 0 85 30t33 77t-35.5 76.5t-91.5 29.5t-123 -37l-92 54l19 354h442v-135h-319l-9 -145q59 27 120 27q103 0 171 -58.5t68 -169.5q0 -107 -74 -172.5t-189 -65.5z" />
    <glyph glyph-name="six" unicode="6" horiz-adv-x="674" 
d="M350 -12q-133 0 -211.5 85.5t-78.5 261.5q0 172 81 278t231 106q122 0 224 -77l-70 -105q-73 51 -153 51q-73 0 -114.5 -54.5t-43.5 -148.5q59 72 166 72q98 0 165.5 -59.5t67.5 -160.5q0 -112 -75.5 -180.5t-188.5 -68.5zM343 111q55 0 88 33t33 84q0 49 -33 81t-88 32
q-54 0 -88.5 -33.5t-34.5 -78.5q0 -51 34.5 -84.5t88.5 -33.5z" />
    <glyph glyph-name="seven" unicode="7" horiz-adv-x="593" 
d="M89 0l302 572h-341v135h513v-116l-305 -591h-169z" />
    <glyph glyph-name="eight" unicode="8" horiz-adv-x="674" 
d="M337 -12q-121 0 -199 57.5t-78 147.5q0 119 127 174q-103 54 -103 157q0 84 71.5 139.5t181.5 55.5q109 0 181 -55.5t72 -138.5q0 -104 -103 -158q127 -58 127 -172q0 -93 -77.5 -150t-199.5 -57zM337 412q49 0 80 26.5t31 70.5q0 38 -31 64.5t-80 26.5q-48 0 -79.5 -26
t-31.5 -65q0 -43 31 -70t80 -27zM337 107q59 0 94 28.5t35 70.5q0 43 -36.5 70t-92.5 27t-92 -26.5t-36 -69.5t34 -71.5t94 -28.5z" />
    <glyph glyph-name="nine" unicode="9" horiz-adv-x="672" 
d="M301 -12q-131 0 -227 74l70 107q33 -25 78 -38.5t78 -11.5q74 4 117 58.5t39 137.5q-56 -79 -165 -79q-104 0 -169.5 63.5t-65.5 165.5q0 112 75 183t193 71q133 0 210 -85t77 -266t-79 -280.5t-231 -99.5zM328 353q52 0 88 35t36 86q0 53 -34.5 87t-90.5 34t-88.5 -34.5
t-32.5 -87.5q0 -51 33.5 -85.5t88.5 -34.5z" />
    <glyph glyph-name="colon" unicode=":" horiz-adv-x="282" 
d="M70 69q0 34 23.5 57.5t57.5 23.5t57.5 -23.5t23.5 -57.5t-23.5 -57.5t-57.5 -23.5t-57.5 23.5t-23.5 57.5zM70 452q0 34 23.5 57.5t57.5 23.5t57.5 -23.5t23.5 -57.5t-23.5 -57.5t-57.5 -23.5t-57.5 23.5t-23.5 57.5z" />
    <glyph glyph-name="semicolon" unicode=";" horiz-adv-x="302" 
d="M85 73q0 28 22.5 49.5t54.5 21.5q34 0 60 -22q28 -27 29 -77t-21 -82q-40 -71 -144 -96l-16 45q90 34 93 88q-33 -1 -55.5 21t-22.5 52zM79 452q0 34 23.5 57.5t57.5 23.5t57.5 -23.5t23.5 -57.5t-23.5 -57.5t-57.5 -23.5t-57.5 23.5t-23.5 57.5z" />
    <glyph glyph-name="less" unicode="&#x3c;" 
d="M559 77l-519 209v139l519 209v-144l-362 -133l362 -135v-145z" />
    <glyph glyph-name="equal" unicode="=" 
d="M40 391v141h519v-141h-519zM40 185v136h519v-136h-519z" />
    <glyph glyph-name="greater" unicode="&#x3e;" 
d="M559 286l-519 -209v145l362 135l-362 133v144l519 -209v-139z" />
    <glyph glyph-name="question" unicode="?" horiz-adv-x="589" 
d="M221 212l-14 183q92 10 132 32t40 72q0 36 -27 59t-72 23q-83 0 -155 -69l-85 92q100 114 250 114q106 0 172.5 -57t66.5 -151q0 -91 -53.5 -141t-145.5 -65l-10 -92h-99zM192 65q0 32 22.5 54.5t54.5 22.5t54.5 -22.5t22.5 -54.5t-22.5 -54.5t-54.5 -22.5t-54.5 22.5
t-22.5 54.5z" />
    <glyph glyph-name="at" unicode="@" horiz-adv-x="1173" 
d="M549 149q52 0 83.5 49.5t31.5 115.5q0 34 -21 54.5t-56 20.5q-49 0 -83 -44t-34 -107q0 -42 22 -65.5t57 -23.5zM1062 363q0 -133 -74.5 -230.5t-206.5 -97.5q-42 0 -75.5 20.5t-48.5 61.5q-26 -37 -67 -57.5t-78 -20.5q-77 0 -125 52.5t-48 139.5q0 110 66 187.5
t158 77.5t134 -74l14 28q12 19 37 21l86 5l-57 -276q-8 -38 2.5 -65t49.5 -27q64 0 111.5 74.5t47.5 170.5q0 142 -103 225q-97 78 -250 78q-136 0 -236 -59q-97 -59 -151 -154t-54 -209q0 -179 130 -277q106 -82 269 -82q81 0 166 27t151 73l30 -50q-157 -112 -341 -112
q-199 0 -322 93q-157 120 -157 329q0 168 104 298q149 186 415 186q175 0 287 -88q66 -51 101 -121t35 -147z" />
    <glyph glyph-name="A" unicode="A" horiz-adv-x="814" 
d="M617 0l-63 158h-300l-63 -158h-161l289 675q15 37 59 37h102l304 -712h-167zM405 532l-98 -242h194z" />
    <glyph glyph-name="B" unicode="B" horiz-adv-x="720" 
d="M70 0v707h335q107 0 169 -47t62 -131q0 -119 -108 -160q142 -42 142 -173q0 -92 -69.5 -144t-189.5 -52h-341zM222 422h138q56 0 88.5 19.5t32.5 59.5q0 71 -111 71h-148v-150zM222 135h171q119 0 119 79q0 76 -130 76h-160v-155z" />
    <glyph glyph-name="C" unicode="C" horiz-adv-x="742" 
d="M433 130q113 0 236 77v-118q0 -22 -5 -30t-24 -19q-95 -52 -219 -52q-159 0 -265.5 96.5t-106.5 268.5q0 91 35.5 167t99.5 126q96 73 230 73q82 0 145.5 -21t128.5 -69l-79 -113q-88 65 -194 65q-89 0 -149 -66t-60 -163q0 -105 66.5 -163.5t160.5 -58.5z" />
    <glyph glyph-name="D" unicode="D" horiz-adv-x="767" 
d="M70 0v707h258q176 0 280 -98t104 -253q0 -156 -105 -256t-281 -100h-256zM222 135h108q102 0 163.5 60t61.5 157q0 98 -61.5 159t-163.5 61h-108v-437z" />
    <glyph glyph-name="E" unicode="E" horiz-adv-x="673" 
d="M70 0v707h538v-135h-386v-150h348v-132h-348v-155h391v-135h-543z" />
    <glyph glyph-name="F" unicode="F" horiz-adv-x="645" 
d="M70 0v707h535v-135h-383v-169h327v-132h-327v-271h-152z" />
    <glyph glyph-name="G" unicode="G" horiz-adv-x="783" 
d="M423 580q-91 0 -154 -62t-63 -167q0 -99 61.5 -163t157.5 -64q80 0 141 44v103h-163v132h310v-272q0 -29 -4.5 -38.5t-20.5 -20.5q-124 -84 -269 -84q-164 0 -266.5 101.5t-102.5 261.5q0 167 107.5 267.5t258.5 100.5q81 0 145 -21.5t129 -70.5l-78 -111q-85 64 -189 64
z" />
    <glyph glyph-name="H" unicode="H" horiz-adv-x="744" 
d="M70 0v707h152v-304h300v304h152v-707h-152v271h-300v-271h-152z" />
    <glyph glyph-name="I" unicode="I" horiz-adv-x="334" 
d="M90 0v707h154v-707h-154z" />
    <glyph glyph-name="J" unicode="J" horiz-adv-x="590" 
d="M276 -12q-154 0 -236 121l96 90q60 -73 133 -73q45 0 72 32t27 92v457h152v-457q0 -130 -66 -197q-65 -65 -178 -65z" />
    <glyph glyph-name="K" unicode="K" horiz-adv-x="734" 
d="M70 0v707h152v-327l264 297q25 30 67 30h145l-280 -313l300 -394h-194l-207 284l-95 -100v-184h-152z" />
    <glyph glyph-name="L" unicode="L" horiz-adv-x="627" 
d="M531 0h-461v707h152v-568h368l-17 -106q-4 -20 -13.5 -26.5t-28.5 -6.5z" />
    <glyph glyph-name="M" unicode="M" horiz-adv-x="849" 
d="M70 0v707h160l196 -313l196 313h157v-707h-152l3 464l-204 -312h-1l-206 311l3 -463h-152z" />
    <glyph glyph-name="N" unicode="N" horiz-adv-x="770" 
d="M70 0v707h142l338 -442l-2 442h152v-707h-131l-349 456l2 -456h-152z" />
    <glyph glyph-name="O" unicode="O" horiz-adv-x="833" 
d="M416 -12q-159 0 -262.5 105.5t-103.5 259.5q0 152 105 259t263 107t261.5 -106t103.5 -258q0 -154 -104.5 -260.5t-262.5 -106.5zM418 128q91 0 150 65t59 158q0 95 -59.5 161.5t-151.5 66.5t-151 -65t-59 -159q0 -95 60 -161t152 -66z" />
    <glyph glyph-name="P" unicode="P" horiz-adv-x="683" 
d="M70 0v707h284q128 0 203.5 -64.5t75.5 -176.5q0 -119 -81.5 -186.5t-208.5 -67.5h-121v-212h-152zM222 343h119q63 0 101 31.5t38 83.5q0 56 -36.5 85t-101.5 29h-120v-229z" />
    <glyph glyph-name="Q" unicode="Q" horiz-adv-x="871" 
d="M416 -12q-159 0 -262.5 105.5t-103.5 259.5q0 152 105 259t263 107t261.5 -106t103.5 -258q0 -137 -88 -241l136 -126h-189l-47 44q-79 -44 -179 -44zM418 127q37 0 67 10l-137 130h182l57 -53q40 59 40 137q0 95 -59.5 161.5t-151.5 66.5t-151 -65t-59 -159
q0 -95 60 -161.5t152 -66.5z" />
    <glyph glyph-name="R" unicode="R" horiz-adv-x="716" 
d="M70 0v707h308q131 0 203 -62t72 -170q0 -81 -42.5 -135.5t-117.5 -78.5l197 -261h-181l-174 236h-113v-236h-152zM222 360h147q60 0 94.5 28.5t34.5 77.5q0 50 -33.5 78t-95.5 28h-147v-212z" />
    <glyph glyph-name="S" unicode="S" horiz-adv-x="692" 
d="M360 -12q-185 0 -310 115l86 105q106 -89 230 -89q49 0 77.5 21t28.5 53q0 22 -12.5 38t-37 27t-42.5 16t-48 12q-127 29 -189 75t-62 143q0 93 70.5 154t183.5 61q83 0 144.5 -21.5t126.5 -71.5l-58 -81q-20 -28 -54 -6q-78 48 -162 48q-44 0 -70.5 -20.5t-26.5 -49.5
q0 -18 10 -33t21 -23.5t36 -17t36 -11t40 -9.5q126 -28 187.5 -76.5t61.5 -137.5q0 -103 -73 -162t-194 -59z" />
    <glyph glyph-name="T" unicode="T" horiz-adv-x="666" 
d="M577 570h-171v-570h-152v570h-214v137h596l-17 -104q-4 -20 -13.5 -26.5t-28.5 -6.5z" />
    <glyph glyph-name="U" unicode="U" horiz-adv-x="759" 
d="M378 -12q-146 0 -227 80t-81 237v402h153v-398q0 -88 41.5 -134.5t115.5 -46.5t115 44.5t41 131.5v403h153v-397q0 -161 -82 -241.5t-229 -80.5z" />
    <glyph glyph-name="V" unicode="V" horiz-adv-x="795" 
d="M326 -5l-286 712h170l189 -493l189 493h167l-273 -676q-14 -36 -59 -36h-97z" />
    <glyph glyph-name="W" unicode="W" horiz-adv-x="1134" 
d="M810 -5h-86l-158 453l-144 -417q-13 -36 -59 -36h-85q-100 296 -238 712h162l148 -460l154 464h130l153 -464l148 460h159l-225 -676q-12 -36 -59 -36z" />
    <glyph glyph-name="X" unicode="X" horiz-adv-x="783" 
d="M40 0l260 361l-250 346h179l164 -230l142 199q22 31 64 31h135l-250 -345l259 -362h-180l-174 244l-174 -244h-175z" />
    <glyph glyph-name="Y" unicode="Y" horiz-adv-x="787" 
d="M620 707h127l-276 -435v-272h-154v270l-277 437h176l179 -290l161 259q20 31 64 31z" />
    <glyph glyph-name="Z" unicode="Z" horiz-adv-x="718" 
d="M59 0v111l379 461h-383l22 98q9 37 51 37h525v-112l-381 -460h391l-21 -96q-5 -22 -17 -30.5t-35 -8.5h-531z" />
    <glyph glyph-name="bracketleft" unicode="[" horiz-adv-x="357" 
d="M60 -167v920h307v-113h-172v-696h172v-111h-307z" />
    <glyph glyph-name="backslash" unicode="\" horiz-adv-x="577" 
d="M134 806l433 -945h-123l-434 945h124z" />
    <glyph glyph-name="bracketright" unicode="]" horiz-adv-x="427" 
d="M367 753v-920h-307v111h172v696h-172v113h307z" />
    <glyph glyph-name="asciicircum" unicode="^" 
d="M37 478l211 280h103l212 -280h-128l-135 139l-137 -139h-126z" />
    <glyph glyph-name="underscore" unicode="_" horiz-adv-x="650" 
d="M-3 -173v120h657v-120h-657z" />
    <glyph glyph-name="grave" unicode="`" horiz-adv-x="297" 
d="M176 596l-156 147h164l93 -147h-101z" />
    <glyph glyph-name="a" unicode="a" horiz-adv-x="627" 
d="M243 -12q-80 0 -133 43t-53 121q0 85 60 130t162 45q74 0 132 -24v12q0 104 -117 104q-81 0 -184 -39v88q0 17 4.5 23.5t22.5 13.5q84 33 179 33q244 0 244 -226v-312h-149v62q-63 -74 -168 -74zM293 86q52 0 86 29t34 76v35q-46 17 -100 17q-52 0 -81 -22.5t-29 -59.5
q0 -34 25.5 -54.5t64.5 -20.5z" />
    <glyph glyph-name="b" unicode="b" horiz-adv-x="686" 
d="M351 114q58 0 96 41t38 109q0 65 -38 106.5t-96 41.5q-55 0 -92.5 -41.5t-37.5 -105.5q0 -67 37.5 -109t92.5 -42zM217 747v-304q66 95 175 95q100 0 171 -75t71 -198q0 -125 -71 -201t-171 -76q-113 0 -175 88v-76h-150v679q0 34 38 43z" />
    <glyph glyph-name="c" unicode="c" horiz-adv-x="584" 
d="M544 448l-80 -89q-63 54 -129 54q-59 0 -97 -43t-38 -104q0 -73 44 -114t109 -41q79 0 171 49v-92q0 -20 -3.5 -26t-20.5 -15q-68 -39 -174 -39q-124 0 -200 77.5t-76 198.5q0 116 76 195t201 79t217 -90z" />
    <glyph glyph-name="d" unicode="d" horiz-adv-x="686" 
d="M294 -12q-100 0 -171 76t-71 201q0 123 71 198t171 75q109 0 175 -95v236q0 34 38 43l112 25v-747h-150v76q-62 -88 -175 -88zM335 114q55 0 92.5 42t37.5 109q0 64 -37.5 105.5t-92.5 41.5q-58 0 -96 -41.5t-38 -106.5q0 -68 38 -109t96 -41z" />
    <glyph glyph-name="e" unicode="e" horiz-adv-x="633" 
d="M577 218h-373q6 -52 49.5 -80.5t95.5 -28.5q91 0 181 45v-78q0 -27 -4 -34.5t-25 -18.5q-68 -35 -171 -35q-128 0 -203 77t-75 196q0 121 72 199t191 78q136 0 204 -91t58 -229zM202 303h232q-5 56 -35 89.5t-81 33.5q-46 0 -78.5 -34.5t-37.5 -88.5z" />
    <glyph glyph-name="f" unicode="f" horiz-adv-x="406" 
d="M100 0v403h-68v119h68v46q0 88 44.5 133.5t131.5 45.5q46 0 84 -7q19 -4 23.5 -9t4.5 -24v-79q-45 10 -75 10q-32 0 -49.5 -19.5t-17.5 -53.5v-43h143l-15 -86q-4 -20 -13.5 -26.5t-28.5 -6.5h-83v-403h-149z" />
    <glyph glyph-name="g" unicode="g" horiz-adv-x="680" 
d="M325 -180q-89 0 -157 32q-26 12 -31.5 20.5t-5.5 34.5v80q95 -49 182 -49q74 0 113 37t39 107v46q-68 -88 -175 -88q-101 0 -169.5 68.5t-68.5 181.5q0 111 68.5 179.5t165.5 68.5q109 0 176 -86v24q0 33 40 42l111 23v-446q0 -140 -68.5 -207.5t-219.5 -67.5zM330 159
q55 0 91.5 38t36.5 92q0 57 -35.5 94t-92.5 37t-93.5 -36.5t-36.5 -94.5q0 -57 36.5 -93.5t93.5 -36.5z" />
    <glyph glyph-name="h" unicode="h" horiz-adv-x="635" 
d="M67 0v679q0 34 38 43l112 25v-300q58 91 167 91q88 0 138.5 -54.5t50.5 -146.5v-337h-152v290q0 51 -24.5 83t-73.5 32q-46 0 -76 -36.5t-30 -90.5v-278h-150z" />
    <glyph glyph-name="i" unicode="i" horiz-adv-x="296" 
d="M72 0v473q0 33 41 42l111 23v-538h-152zM67 650q0 34 23.5 57.5t57.5 23.5t57.5 -23.5t23.5 -57.5t-23.5 -57.5t-57.5 -23.5t-57.5 23.5t-23.5 57.5z" />
    <glyph glyph-name="j" unicode="j" horiz-adv-x="330" 
d="M110 -10v483q0 33 41 42l110 23v-530q0 -99 -41 -143.5t-130 -44.5q-23 0 -55 5q-20 4 -24 8.5t-4 22.5v75q23 -5 41 -5q62 0 62 64zM104 650q0 34 23.5 57.5t57.5 23.5t57.5 -23.5t23.5 -57.5t-23.5 -57.5t-57.5 -23.5t-57.5 23.5t-23.5 57.5z" />
    <glyph glyph-name="k" unicode="k" horiz-adv-x="629" 
d="M67 0v679q0 34 38 43l112 25v-428l162 176q16 18 31 25.5t41 7.5h132q-34 -36 -101 -108t-101 -108l219 -312h-176l-141 206l-66 -70v-136h-150z" />
    <glyph glyph-name="l" unicode="l" horiz-adv-x="284" 
d="M67 0v679q0 34 38 43l112 25v-747h-150z" />
    <glyph glyph-name="m" unicode="m" horiz-adv-x="971" 
d="M218 539v-90q64 89 162 89q113 0 160 -92q72 92 180 92q88 0 138.5 -53t50.5 -147v-338h-152v292q0 49 -24.5 81t-69.5 32q-44 0 -72 -30t-28 -84v-291h-150v293q0 54 -25.5 83t-69.5 29t-71.5 -31t-27.5 -84v-290h-152v474q0 33 40 42z" />
    <glyph glyph-name="n" unicode="n" horiz-adv-x="635" 
d="M421 0v290q0 51 -24.5 83t-73.5 32q-46 0 -76 -36.5t-30 -90.5v-278h-150v474q0 33 40 42l111 23v-92q58 91 166 91q88 0 138.5 -54.5t50.5 -146.5v-337h-152z" />
    <glyph glyph-name="o" unicode="o" horiz-adv-x="680" 
d="M338 -12q-123 0 -204.5 79.5t-81.5 194.5q0 114 82 195t206 81t206 -80t82 -195q0 -114 -83 -194.5t-207 -80.5zM340 115q62 0 101.5 42.5t39.5 104.5q0 61 -41 105t-102 44t-100 -43t-39 -105t40.5 -105t100.5 -43z" />
    <glyph glyph-name="p" unicode="p" horiz-adv-x="686" 
d="M67 -173v647q0 33 40 42l110 23v-96q66 95 175 95q100 0 171 -75t71 -198q0 -125 -71 -201t-171 -76q-113 0 -175 88v-249h-150zM351 114q58 0 96 41t38 109q0 65 -38 106.5t-96 41.5q-55 0 -92.5 -41.5t-37.5 -105.5q0 -67 37.5 -109t92.5 -42z" />
    <glyph glyph-name="q" unicode="q" horiz-adv-x="686" 
d="M335 114q55 0 92.5 42t37.5 109q0 64 -37.5 105.5t-92.5 41.5q-58 0 -96 -41.5t-38 -106.5q0 -68 38 -109t96 -41zM469 443v31q0 33 40 42l110 23v-712h-150v249q-62 -88 -175 -88q-100 0 -171 76t-71 201q0 123 71 198t171 75q109 0 175 -95z" />
    <glyph glyph-name="r" unicode="r" horiz-adv-x="433" 
d="M72 0v474q0 33 40 42l110 23v-129q53 123 174 123h15v-132q0 -22 -24 -22q-76 -5 -120 -52.5t-44 -133.5v-193h-151z" />
    <glyph glyph-name="s" unicode="s" horiz-adv-x="540" 
d="M283 -12q-135 0 -241 77l59 93q90 -60 184 -60q67 0 67 45q0 21 -23.5 33t-76.5 27q-43 12 -71.5 24t-57.5 31.5t-43.5 49t-14.5 67.5q0 75 57.5 119t146.5 44q117 0 211 -61l-39 -68q-17 -28 -46 -14q-65 33 -128 33q-62 0 -62 -41q0 -20 25 -33t78 -28
q88 -27 137 -63.5t49 -105.5q0 -81 -58 -125t-153 -44z" />
    <glyph glyph-name="t" unicode="t" horiz-adv-x="461" 
d="M249 403v-226q0 -64 64 -64q31 0 70 13v-85q0 -21 -4.5 -27t-25.5 -13q-36 -13 -84 -13q-86 0 -127.5 42t-41.5 138v235h-68v119h68v108q0 32 38 43l111 33v-184h148l-15 -86q-4 -20 -13.5 -26.5t-28.5 -6.5h-91z" />
    <glyph glyph-name="u" unicode="u" horiz-adv-x="634" 
d="M250 -12q-88 0 -138 54t-50 146v334h151v-288q0 -53 26.5 -82.5t72.5 -29.5t75.5 32.5t29.5 85.5v282h150v-522h-150v77q-64 -89 -167 -89z" />
    <glyph glyph-name="v" unicode="v" horiz-adv-x="667" 
d="M265 -4l-218 526h160l127 -341l129 341h157l-204 -489q-10 -23 -20.5 -30t-35.5 -7h-95z" />
    <glyph glyph-name="w" unicode="w" horiz-adv-x="913" 
d="M306 -4h-87l-172 526h151l95 -311l101 313h126l103 -314l95 312h148l-161 -489q-8 -23 -19 -30t-37 -7h-88l-103 316l-96 -279q-8 -23 -19 -30t-37 -7z" />
    <glyph glyph-name="x" unicode="x" horiz-adv-x="644" 
d="M603 528l-196 -261l200 -267h-166l-119 160l-122 -160h-163l200 266l-192 256h166l113 -150l92 123q24 33 72 33h115z" />
    <glyph glyph-name="y" unicode="y" horiz-adv-x="692" 
d="M104 -119v76q53 -19 101 -19q58 0 80 56l-228 528h159l143 -363l117 325q16 44 63 44h109l-216 -537q-39 -97 -81.5 -134t-116.5 -37q-57 0 -100 15q-21 8 -25.5 14.5t-4.5 31.5z" />
    <glyph glyph-name="z" unicode="z" horiz-adv-x="576" 
d="M49 401l15 88q4 20 13.5 26.5t28.5 6.5h410v-97l-268 -304h296l-15 -88q-4 -20 -13.5 -26.5t-28.5 -6.5h-439v97l268 304h-267z" />
    <glyph glyph-name="braceleft" unicode="{" horiz-adv-x="446" 
d="M328 153v-102q0 -56 21 -85.5t87 -39.5v-96q-135 9 -189 59t-54 139v104q0 58 -27.5 82.5t-88.5 24.5h-17v103h17q61 0 88.5 25t27.5 82v108q0 89 54 139t189 59v-96q-66 -10 -87 -39.5t-21 -85.5v-105q0 -108 -108 -138q54 -15 81 -48t27 -90z" />
    <glyph glyph-name="bar" unicode="|" horiz-adv-x="215" 
d="M50 -203v1006h115v-1006h-115z" />
    <glyph glyph-name="braceright" unicode="}" horiz-adv-x="446" 
d="M118 51v102q0 57 27 90t81 48q-108 30 -108 138v105q0 56 -21 85.5t-87 39.5v96q135 -9 189 -59t54 -139v-108q0 -57 27.5 -82t88.5 -25h17v-103h-17q-61 0 -88.5 -24.5t-27.5 -82.5v-104q0 -89 -54 -139t-189 -59v96q66 10 87 39.5t21 85.5z" />
    <glyph glyph-name="asciitilde" unicode="~" horiz-adv-x="449" 
d="M102 273l-77 22q17 73 44 106t73 33q31 0 84.5 -20.5t67.5 -20.5q20 0 31 10.5t22 38.5l77 -21q-16 -73 -43 -106.5t-73 -33.5q-31 0 -84.5 21t-68.5 21q-20 0 -31 -11t-22 -39z" />
    <glyph glyph-name="nbspace" unicode="&#xa0;" horiz-adv-x="290" 
 />
    <glyph glyph-name="exclamdown" unicode="&#xa1;" horiz-adv-x="331" 
d="M66 -57l40 380h76l43 -380l6 -116h-171zM68 461q0 32 22.5 54.5t54.5 22.5t54.5 -22.5t22.5 -54.5t-22.5 -54.5t-54.5 -22.5t-54.5 22.5t-22.5 54.5z" />
    <glyph glyph-name="cent" unicode="&#xa2;" horiz-adv-x="608" 
d="M547 544l-76 -88q-44 38 -93 48v-296q67 6 145 48v-93q0 -20 -3.5 -26.5t-20.5 -15.5q-49 -26 -118 -35v-86h-86v85q-112 12 -178.5 87t-66.5 188q0 107 67 184t179 88v87h86v-89q98 -18 165 -86zM199 362q0 -59 27.5 -97.5t73.5 -50.5v290q-46 -10 -73.5 -49.5
t-27.5 -92.5z" />
    <glyph glyph-name="sterling" unicode="&#xa3;" horiz-adv-x="598" 
d="M330 592q-35 0 -54.5 -22t-19.5 -54q0 -17 3.5 -35t10 -43t7.5 -27h160v-128h-144q5 -78 -23 -131q39 -30 76 -30q55 0 78 96l124 -37q-13 -90 -63 -140.5t-119 -52.5q-83 -2 -162 64q-61 -64 -151 -63v141q51 9 74.5 50.5t17.5 102.5h-92v128h74q-15 60 -15 102
q0 97 61 151.5t159 54.5q117 0 216 -89l-83 -96q-73 58 -135 58z" />
    <glyph glyph-name="currency" unicode="&#xa4;" horiz-adv-x="679" 
d="M57 542l97 97l89 -89q47 22 96 22q51 0 97 -22l89 89l97 -97l-89 -90q21 -43 21 -95q0 -51 -21 -95l89 -89l-97 -98l-89 90q-46 -23 -96 -23q-54 0 -97 23l-89 -90l-97 98l90 89q-22 42 -22 95q0 54 22 95zM253 358q0 -36 25.5 -61.5t61.5 -25.5t61.5 25.5t25.5 61.5
t-25.5 61.5t-61.5 25.5t-61.5 -25.5t-25.5 -61.5z" />
    <glyph glyph-name="yen" unicode="&#xa5;" horiz-adv-x="747" 
d="M576 707h126l-217 -326h126v-101h-163v-58h163v-100h-163v-122h-150v122h-162v100h162v58h-162v101h124l-215 326h174l155 -263l138 232q18 31 64 31z" />
    <glyph glyph-name="brokenbar" unicode="&#xa6;" horiz-adv-x="215" 
d="M165 352h-115v451h115v-451zM50 248h115v-451h-115v451z" />
    <glyph glyph-name="section" unicode="&#xa7;" horiz-adv-x="565" 
d="M205 396q-56 -51 39 -102q14 -8 56 -29t51 -25q54 50 -42 102q-39 21 -104 54zM93 546q0 82 49.5 127.5t131.5 45.5q100 0 202 -55v-137q-132 55 -199 55q-18 0 -28 -8.5t-10 -19.5q0 -35 42 -54l80 -37q144 -67 143 -169q-2 -85 -60 -124q35 -45 35 -101
q0 -82 -49.5 -127.5t-131.5 -45.5q-100 0 -202 55v137q132 -55 199 -55q17 0 27 8t10 20q0 18 -9 30t-35 25l-75 38q-78 39 -115.5 77.5t-37.5 92.5q0 87 66 129q-33 44 -33 93z" />
    <glyph glyph-name="dieresis" unicode="&#xa8;" horiz-adv-x="385" 
d="M20 668q0 32 22.5 54.5t54.5 22.5t54.5 -22.5t22.5 -54.5t-22.5 -54.5t-54.5 -22.5t-54.5 22.5t-22.5 54.5zM211 668q0 32 22.5 54.5t54.5 22.5t54.5 -22.5t22.5 -54.5t-22.5 -54.5t-54.5 -22.5t-54.5 22.5t-22.5 54.5z" />
    <glyph glyph-name="copyright" unicode="&#xa9;" horiz-adv-x="910" 
d="M90 353q0 151 107 258t258 107t258 -107t107 -258t-107 -258t-258 -107t-258 107t-107 258zM145 353q0 -128 91 -219t219 -91t219 91t91 219t-91 219t-219 91t-219 -91t-91 -219zM615 488l-56 -62q-43 37 -91 37q-41 0 -67.5 -29.5t-26.5 -72.5q0 -51 30 -80.5t75 -29.5
q55 0 122 36v-64q0 -14 -2.5 -18t-14.5 -10q-56 -29 -122 -29q-87 0 -140 55t-53 139q0 80 53 135t141 55t152 -62z" />
    <glyph glyph-name="ordfeminine" unicode="&#xaa;" horiz-adv-x="350" 
d="M133 386q-48 0 -79.5 26.5t-31.5 74.5q0 50 34.5 76.5t92.5 26.5q35 0 65 -5v7q0 18 -15.5 29t-40.5 11q-48 0 -99 -19v59q0 10 3.5 13.5t15.5 7.5q48 16 93 16q146 0 146 -136v-181h-103v21q-33 -27 -81 -27zM22 288v81h300v-81h-300zM161 462q23 0 38.5 13t15.5 34v11
q-16 6 -43 6q-48 0 -48 -35q0 -13 10.5 -21t26.5 -8z" />
    <glyph glyph-name="guillemotleft" unicode="&#xab;" horiz-adv-x="629" 
d="M305 465l-116 -181l116 -181l-92 -58l-183 239l183 239zM574 465l-116 -181l116 -181l-92 -58l-183 239l183 239z" />
    <glyph glyph-name="logicalnot" unicode="&#xac;" 
d="M40 466h519v-291h-137v156h-382v135z" />
    <glyph glyph-name="registered" unicode="&#xae;" horiz-adv-x="458" 
d="M47 555q0 -67 47.5 -114.5t114.5 -47.5t114.5 47.5t47.5 114.5t-47.5 114.5t-114.5 47.5t-114.5 -47.5t-47.5 -114.5zM10 556q0 82 58 140.5t141 58.5t141 -58.5t58 -140.5t-58 -140.5t-141 -58.5t-141 58.5t-58 140.5zM128 455v214h95q42 0 64 -22q18 -18 18 -47
q0 -43 -43 -63l61 -82h-59l-53 73h-34v-73h-49zM177 575h43q35 0 35 24q0 25 -34 25h-44v-49z" />
    <glyph glyph-name="macron" unicode="&#xaf;" horiz-adv-x="375" 
d="M20 601v115h335v-115h-335z" />
    <glyph glyph-name="degree" unicode="&#xb0;" horiz-adv-x="406" 
d="M127 586q0 -26 17.5 -43.5t43.5 -17.5t43.5 17.5t17.5 43.5t-17.5 43.5t-43.5 17.5t-43.5 -17.5t-17.5 -43.5zM27 586q0 67 47 114t114 47t114 -47t47 -114t-47 -114t-114 -47t-114 47t-47 114z" />
    <glyph glyph-name="plusminus" unicode="&#xb1;" 
d="M40 64v135h191v119h-191v135h191v166h137v-166h191v-135h-191v-119h191v-135h-519z" />
    <glyph glyph-name="uni00B2" unicode="&#xb2;" horiz-adv-x="373" 
d="M315 477h-274v74l126 114q33 30 45.5 47t12.5 34q0 14 -9 23t-23 9q-44 0 -93 -63l-73 56q41 52 79.5 76.5t89.5 24.5q61 0 100 -35t39 -89q0 -41 -24.5 -74.5t-78.5 -77.5l-27 -22h155l-13 -72q-5 -25 -32 -25z" />
    <glyph glyph-name="uni00B3" unicode="&#xb3;" horiz-adv-x="376" 
d="M331 792l-78 -78q42 -6 67.5 -36.5t25.5 -75.5q0 -61 -44.5 -98.5t-111.5 -37.5q-92 0 -164 74l60 67q50 -49 105 -47q21 1 33.5 12t12.5 29q0 17 -13.5 29.5t-36.5 12.5t-53 -10l-20 53l85 83h-138v92h270v-69z" />
    <glyph glyph-name="acute" unicode="&#xb4;" horiz-adv-x="297" 
d="M277 743l-156 -147h-101l93 147h164z" />
    <glyph glyph-name="paragraph" unicode="&#xb6;" horiz-adv-x="618" 
d="M293 719h320l-12 -52q-6 -25 -31 -25h-36v-746h-93v746h-64v-746h-95v375q-111 4 -176.5 65.5t-65.5 158.5q0 100 68.5 162t184.5 62z" />
    <glyph glyph-name="periodcentered" unicode="&#xb7;" horiz-adv-x="280" 
d="M69 381q0 34 23.5 57.5t57.5 23.5t57.5 -23.5t23.5 -57.5t-23.5 -57.5t-57.5 -23.5t-57.5 23.5t-23.5 57.5z" />
    <glyph glyph-name="cedilla" unicode="&#xb8;" horiz-adv-x="254" 
d="M20 -181v71q97 3 97 69q0 21 -6 42h100q23 -34 23 -71q0 -63 -55 -92t-159 -19z" />
    <glyph glyph-name="uni00B9" unicode="&#xb9;" horiz-adv-x="277" 
d="M100 477v278l-38 -7q-25 -5 -30 15l-17 62l123 44h69v-392h-107z" />
    <glyph glyph-name="ordmasculine" unicode="&#xba;" horiz-adv-x="373" 
d="M32 288v81h304v-81h-304zM183 388q-71 0 -116 46t-45 115q0 68 46 114t117 46t117 -45.5t46 -113.5q0 -69 -46 -115.5t-119 -46.5zM185 479q27 0 43 20t16 50t-17 50.5t-44 20.5q-26 0 -42 -20.5t-16 -49.5q0 -30 16.5 -50.5t43.5 -20.5z" />
    <glyph glyph-name="guillemotright" unicode="&#xbb;" horiz-adv-x="629" 
d="M440 284l-116 181l92 58l183 -239l-183 -239l-92 58zM171 284l-116 181l92 58l183 -239l-183 -239l-92 58z" />
    <glyph glyph-name="onequarter" unicode="&#xbc;" horiz-adv-x="698" 
d="M100 323v278l-38 -7q-25 -5 -30 15l-17 62l123 44h69v-392h-107zM87 -12l391 731h92l-391 -731h-92zM454 163h63v74zM647 80h-29v-80h-104v80h-182v69l200 244h86v-224h72l-11 -64q-5 -25 -32 -25z" />
    <glyph glyph-name="onehalf" unicode="&#xbd;" horiz-adv-x="733" 
d="M100 323v278l-38 -7q-25 -5 -30 15l-17 62l123 44h69v-392h-107zM87 -12l391 731h92l-391 -731h-92zM675 0h-274v74l126 114q33 30 45.5 47t12.5 34q0 14 -9 23t-23 9q-44 0 -93 -63l-73 56q41 52 79.5 76.5t89.5 24.5q61 0 100 -35t39 -89q0 -41 -24.5 -74.5
t-78.5 -77.5l-27 -22h155l-13 -72q-5 -25 -32 -25z" />
    <glyph glyph-name="threequarters" unicode="&#xbe;" horiz-adv-x="797" 
d="M331 638l-78 -78q42 -6 67.5 -36.5t25.5 -75.5q0 -61 -44.5 -98.5t-111.5 -37.5q-92 0 -164 74l60 67q50 -49 105 -47q21 1 33.5 12t12.5 29q0 17 -13.5 29.5t-36.5 12.5t-53 -10l-20 53l85 83h-138v92h270v-69zM186 -12l391 731h92l-391 -731h-92zM553 163h63v74z
M746 80h-29v-80h-104v80h-182v69l200 244h86v-224h72l-11 -64q-5 -25 -32 -25z" />
    <glyph glyph-name="questiondown" unicode="&#xbf;" horiz-adv-x="579" 
d="M397 461q0 -32 -22.5 -54.5t-54.5 -22.5t-54.5 22.5t-22.5 54.5t22.5 54.5t54.5 22.5t54.5 -22.5t22.5 -54.5zM299 -180q-106 0 -172.5 57t-66.5 151q0 91 53.5 141t145.5 65l10 89h99l14 -180q-92 -10 -132 -32t-40 -72q0 -36 27 -59t72 -23q83 0 155 69l85 -92
q-100 -114 -250 -114z" />
    <glyph glyph-name="Agrave" unicode="&#xc0;" horiz-adv-x="814" 
d="M617 0l-63 158h-300l-63 -158h-161l289 675q15 37 59 37h102l304 -712h-167zM405 532l-98 -242h194zM398 781l-156 147h164l93 -147h-101z" />
    <glyph glyph-name="Aacute" unicode="&#xc1;" horiz-adv-x="814" 
d="M617 0l-63 158h-300l-63 -158h-161l289 675q15 37 59 37h102l304 -712h-167zM405 532l-98 -242h194zM570 928l-156 -147h-101l93 147h164z" />
    <glyph glyph-name="Acircumflex" unicode="&#xc2;" horiz-adv-x="814" 
d="M617 0l-63 158h-300l-63 -158h-161l289 675q15 37 59 37h102l304 -712h-167zM405 532l-98 -242h194zM196 782l146 151h129l146 -151h-113l-98 62l-100 -62h-110z" />
    <glyph glyph-name="Atilde" unicode="&#xc3;" horiz-adv-x="814" 
d="M617 0l-63 158h-300l-63 -158h-161l289 675q15 37 59 37h102l304 -712h-167zM405 532l-98 -242h194zM286 766l-75 23q16 71 42.5 104t70.5 33q30 0 82 -19.5t66 -19.5q18 0 28.5 10.5t21.5 37.5l75 -24q-15 -71 -41.5 -104.5t-71.5 -33.5q-30 0 -81.5 20t-65.5 20
q-19 0 -29.5 -10.5t-21.5 -36.5z" />
    <glyph glyph-name="Adieresis" unicode="&#xc4;" horiz-adv-x="814" 
d="M617 0l-63 158h-300l-63 -158h-161l289 675q15 37 59 37h102l304 -712h-167zM405 532l-98 -242h194zM234 853q0 32 22.5 54.5t54.5 22.5t54.5 -22.5t22.5 -54.5t-22.5 -54.5t-54.5 -22.5t-54.5 22.5t-22.5 54.5zM425 853q0 32 22.5 54.5t54.5 22.5t54.5 -22.5t22.5 -54.5
t-22.5 -54.5t-54.5 -22.5t-54.5 22.5t-22.5 54.5z" />
    <glyph glyph-name="Aring" unicode="&#xc5;" horiz-adv-x="814" 
d="M617 0l-63 158h-300l-63 -158h-161l289 675q15 37 59 37h102l304 -712h-167zM405 532l-98 -242h194zM283 875q0 51 36.5 87.5t87.5 36.5t87.5 -36.5t36.5 -87.5t-36.5 -87.5t-87.5 -36.5t-87.5 36.5t-36.5 87.5zM363 875q0 -18 13 -31t31 -13t31 13t13 31t-13 31t-31 13
t-31 -13t-13 -31z" />
    <glyph glyph-name="AE" unicode="&#xc6;" horiz-adv-x="1006" 
d="M489 707h465v-135h-291v-150h253v-132h-253v-155h296v-135h-446v158h-228l-94 -158h-171l415 678q18 29 54 29zM513 542l-150 -252h150v252z" />
    <glyph glyph-name="Ccedilla" unicode="&#xc7;" horiz-adv-x="742" 
d="M287 -181v71q97 3 97 69q0 16 -3 31q-144 12 -238 107t-94 256q0 91 35.5 167t99.5 126q96 73 230 73q82 0 145.5 -21t128.5 -69l-79 -113q-88 65 -194 65q-89 0 -149 -66t-60 -163q0 -105 66.5 -163.5t160.5 -58.5q113 0 236 77v-118q0 -22 -5 -30t-24 -19
q-68 -37 -156 -48q17 -31 17 -62q0 -63 -55 -92t-159 -19z" />
    <glyph glyph-name="Egrave" unicode="&#xc8;" horiz-adv-x="673" 
d="M70 0v707h538v-135h-386v-150h348v-132h-348v-155h391v-135h-543zM344 781l-156 147h164l93 -147h-101z" />
    <glyph glyph-name="Eacute" unicode="&#xc9;" horiz-adv-x="673" 
d="M70 0v707h538v-135h-386v-150h348v-132h-348v-155h391v-135h-543zM505 928l-156 -147h-101l93 147h164z" />
    <glyph glyph-name="Ecircumflex" unicode="&#xca;" horiz-adv-x="673" 
d="M70 0v707h538v-135h-386v-150h348v-132h-348v-155h391v-135h-543zM126 782l146 151h129l146 -151h-113l-98 62l-100 -62h-110z" />
    <glyph glyph-name="Edieresis" unicode="&#xcb;" horiz-adv-x="673" 
d="M70 0v707h538v-135h-386v-150h348v-132h-348v-155h391v-135h-543zM164 853q0 32 22.5 54.5t54.5 22.5t54.5 -22.5t22.5 -54.5t-22.5 -54.5t-54.5 -22.5t-54.5 22.5t-22.5 54.5zM355 853q0 32 22.5 54.5t54.5 22.5t54.5 -22.5t22.5 -54.5t-22.5 -54.5t-54.5 -22.5
t-54.5 22.5t-22.5 54.5z" />
    <glyph glyph-name="Igrave" unicode="&#xcc;" horiz-adv-x="334" 
d="M90 0v707h154v-707h-154zM164 781l-156 147h164l93 -147h-101z" />
    <glyph glyph-name="Iacute" unicode="&#xcd;" horiz-adv-x="334" 
d="M90 0v707h154v-707h-154zM325 928l-156 -147h-101l93 147h164z" />
    <glyph glyph-name="Icircumflex" unicode="&#xce;" horiz-adv-x="334" 
d="M90 0v707h154v-707h-154zM-43 782l146 151h129l146 -151h-113l-98 62l-100 -62h-110z" />
    <glyph glyph-name="Idieresis" unicode="&#xcf;" horiz-adv-x="334" 
d="M90 0v707h154v-707h-154zM-5 853q0 32 22.5 54.5t54.5 22.5t54.5 -22.5t22.5 -54.5t-22.5 -54.5t-54.5 -22.5t-54.5 22.5t-22.5 54.5zM186 853q0 32 22.5 54.5t54.5 22.5t54.5 -22.5t22.5 -54.5t-22.5 -54.5t-54.5 -22.5t-54.5 22.5t-22.5 54.5z" />
    <glyph glyph-name="Eth" unicode="&#xd0;" horiz-adv-x="830" 
d="M133 0v293h-113l30 126h83v288h258q176 0 280 -98t104 -253q0 -156 -105 -256t-281 -100h-256zM285 135h108q102 0 163.5 60t61.5 157q0 98 -61.5 159t-163.5 61h-108v-153h162l-26 -126h-136v-158z" />
    <glyph glyph-name="Ntilde" unicode="&#xd1;" horiz-adv-x="770" 
d="M70 0v707h142l338 -442l-2 442h152v-707h-131l-349 456l2 -456h-152zM277 766l-75 23q16 71 42.5 104t70.5 33q30 0 82 -19.5t66 -19.5q18 0 28.5 10.5t21.5 37.5l75 -24q-15 -71 -41.5 -104.5t-71.5 -33.5q-30 0 -81.5 20t-65.5 20q-19 0 -29.5 -10.5t-21.5 -36.5z" />
    <glyph glyph-name="Ograve" unicode="&#xd2;" horiz-adv-x="833" 
d="M416 -12q-159 0 -262.5 105.5t-103.5 259.5q0 152 105 259t263 107t261.5 -106t103.5 -258q0 -154 -104.5 -260.5t-262.5 -106.5zM418 128q91 0 150 65t59 158q0 95 -59.5 161.5t-151.5 66.5t-151 -65t-59 -159q0 -95 60 -161t152 -66zM404 781l-156 147h164l93 -147
h-101z" />
    <glyph glyph-name="Oacute" unicode="&#xd3;" horiz-adv-x="833" 
d="M416 -12q-159 0 -262.5 105.5t-103.5 259.5q0 152 105 259t263 107t261.5 -106t103.5 -258q0 -154 -104.5 -260.5t-262.5 -106.5zM418 128q91 0 150 65t59 158q0 95 -59.5 161.5t-151.5 66.5t-151 -65t-59 -159q0 -95 60 -161t152 -66zM585 928l-156 -147h-101l93 147
h164z" />
    <glyph glyph-name="Ocircumflex" unicode="&#xd4;" horiz-adv-x="833" 
d="M416 -12q-159 0 -262.5 105.5t-103.5 259.5q0 152 105 259t263 107t261.5 -106t103.5 -258q0 -154 -104.5 -260.5t-262.5 -106.5zM418 128q91 0 150 65t59 158q0 95 -59.5 161.5t-151.5 66.5t-151 -65t-59 -159q0 -95 60 -161t152 -66zM206 782l146 151h129l146 -151
h-113l-98 62l-100 -62h-110z" />
    <glyph glyph-name="Otilde" unicode="&#xd5;" horiz-adv-x="833" 
d="M416 -12q-159 0 -262.5 105.5t-103.5 259.5q0 152 105 259t263 107t261.5 -106t103.5 -258q0 -154 -104.5 -260.5t-262.5 -106.5zM418 128q91 0 150 65t59 158q0 95 -59.5 161.5t-151.5 66.5t-151 -65t-59 -159q0 -95 60 -161t152 -66zM298 766l-75 23q16 71 42.5 104
t70.5 33q30 0 82 -19.5t66 -19.5q18 0 28.5 10.5t21.5 37.5l75 -24q-15 -71 -41.5 -104.5t-71.5 -33.5q-30 0 -81.5 20t-65.5 20q-19 0 -29.5 -10.5t-21.5 -36.5z" />
    <glyph glyph-name="Odieresis" unicode="&#xd6;" horiz-adv-x="833" 
d="M416 -12q-159 0 -262.5 105.5t-103.5 259.5q0 152 105 259t263 107t261.5 -106t103.5 -258q0 -154 -104.5 -260.5t-262.5 -106.5zM418 128q91 0 150 65t59 158q0 95 -59.5 161.5t-151.5 66.5t-151 -65t-59 -159q0 -95 60 -161t152 -66zM244 853q0 32 22.5 54.5t54.5 22.5
t54.5 -22.5t22.5 -54.5t-22.5 -54.5t-54.5 -22.5t-54.5 22.5t-22.5 54.5zM435 853q0 32 22.5 54.5t54.5 22.5t54.5 -22.5t22.5 -54.5t-22.5 -54.5t-54.5 -22.5t-54.5 22.5t-22.5 54.5z" />
    <glyph glyph-name="multiply" unicode="&#xd7;" 
d="M462 96l-163 163l-160 -159l-95 95l159 160l-163 163l97 97l163 -163l160 159l95 -95l-159 -160l163 -163z" />
    <glyph glyph-name="Oslash" unicode="&#xd8;" horiz-adv-x="833" 
d="M416 -12q-100 0 -178 42l-29 -42h-95l60 86q-124 107 -124 279q0 152 105 259t263 107q97 0 176 -42l30 42h95l-61 -87q59 -51 92 -123t33 -154q0 -154 -104.5 -260.5t-262.5 -106.5zM418 127q91 0 150 65.5t59 158.5q0 91 -56 158l-250 -358q45 -24 97 -24zM206 355
q0 -93 56 -157l250 358q-45 24 -96 24q-91 0 -150.5 -65.5t-59.5 -159.5z" />
    <glyph glyph-name="Ugrave" unicode="&#xd9;" horiz-adv-x="759" 
d="M378 -12q-146 0 -227 80t-81 237v402h153v-398q0 -88 41.5 -134.5t115.5 -46.5t115 44.5t41 131.5v403h153v-397q0 -161 -82 -241.5t-229 -80.5zM387 781l-156 147h164l93 -147h-101z" />
    <glyph glyph-name="Uacute" unicode="&#xda;" horiz-adv-x="759" 
d="M378 -12q-146 0 -227 80t-81 237v402h153v-398q0 -88 41.5 -134.5t115.5 -46.5t115 44.5t41 131.5v403h153v-397q0 -161 -82 -241.5t-229 -80.5zM538 928l-156 -147h-101l93 147h164z" />
    <glyph glyph-name="Ucircumflex" unicode="&#xdb;" horiz-adv-x="759" 
d="M378 -12q-146 0 -227 80t-81 237v402h153v-398q0 -88 41.5 -134.5t115.5 -46.5t115 44.5t41 131.5v403h153v-397q0 -161 -82 -241.5t-229 -80.5zM169 782l146 151h129l146 -151h-113l-98 62l-100 -62h-110z" />
    <glyph glyph-name="Udieresis" unicode="&#xdc;" horiz-adv-x="759" 
d="M378 -12q-146 0 -227 80t-81 237v402h153v-398q0 -88 41.5 -134.5t115.5 -46.5t115 44.5t41 131.5v403h153v-397q0 -161 -82 -241.5t-229 -80.5zM207 853q0 32 22.5 54.5t54.5 22.5t54.5 -22.5t22.5 -54.5t-22.5 -54.5t-54.5 -22.5t-54.5 22.5t-22.5 54.5zM398 853
q0 32 22.5 54.5t54.5 22.5t54.5 -22.5t22.5 -54.5t-22.5 -54.5t-54.5 -22.5t-54.5 22.5t-22.5 54.5z" />
    <glyph glyph-name="Yacute" unicode="&#xdd;" horiz-adv-x="787" 
d="M620 707h127l-276 -435v-272h-154v270l-277 437h176l179 -290l161 259q20 31 64 31zM572 928l-156 -147h-101l93 147h164z" />
    <glyph glyph-name="Thorn" unicode="&#xde;" horiz-adv-x="677" 
d="M224 241h119q64 0 102 31.5t38 84.5q0 55 -37 84t-102 29h-120v-229zM224 719v-120h132q129 0 205 -63.5t76 -174.5q0 -119 -81.5 -183.5t-210.5 -64.5h-121v-113h-154v650q0 34 38 43z" />
    <glyph glyph-name="germandbls" unicode="&#xdf;" horiz-adv-x="633" 
d="M240 -1l20 114q20 -4 46 -4q53 0 92 28.5t39 75.5q0 44 -38.5 73t-101.5 34v87q98 38 98 123q0 41 -23.5 64.5t-61.5 23.5q-43 0 -68.5 -31t-25.5 -91v-496h-149v492q0 121 65 187.5t181 66.5q104 0 166 -56.5t62 -143.5q0 -122 -109 -168q64 -16 109 -62.5t45 -117.5v-2
q0 -94 -71 -151t-181 -57q-45 0 -94 11z" />
    <glyph glyph-name="agrave" unicode="&#xe0;" horiz-adv-x="627" 
d="M243 -12q-80 0 -133 43t-53 121q0 85 60 130t162 45q74 0 132 -24v12q0 104 -117 104q-81 0 -184 -39v88q0 17 4.5 23.5t22.5 13.5q84 33 179 33q244 0 244 -226v-312h-149v62q-63 -74 -168 -74zM293 86q52 0 86 29t34 76v35q-46 17 -100 17q-52 0 -81 -22.5t-29 -59.5
q0 -34 25.5 -54.5t64.5 -20.5zM321 596l-156 147h164l93 -147h-101z" />
    <glyph glyph-name="aacute" unicode="&#xe1;" horiz-adv-x="627" 
d="M243 -12q-80 0 -133 43t-53 121q0 85 60 130t162 45q74 0 132 -24v12q0 104 -117 104q-81 0 -184 -39v88q0 17 4.5 23.5t22.5 13.5q84 33 179 33q244 0 244 -226v-312h-149v62q-63 -74 -168 -74zM293 86q52 0 86 29t34 76v35q-46 17 -100 17q-52 0 -81 -22.5t-29 -59.5
q0 -34 25.5 -54.5t64.5 -20.5zM482 743l-156 -147h-101l93 147h164z" />
    <glyph glyph-name="acircumflex" unicode="&#xe2;" horiz-adv-x="627" 
d="M243 -12q-80 0 -133 43t-53 121q0 85 60 130t162 45q74 0 132 -24v12q0 104 -117 104q-81 0 -184 -39v88q0 17 4.5 23.5t22.5 13.5q84 33 179 33q244 0 244 -226v-312h-149v62q-63 -74 -168 -74zM293 86q52 0 86 29t34 76v35q-46 17 -100 17q-52 0 -81 -22.5t-29 -59.5
q0 -34 25.5 -54.5t64.5 -20.5zM113 597l146 151h129l146 -151h-113l-98 62l-100 -62h-110z" />
    <glyph glyph-name="atilde" unicode="&#xe3;" horiz-adv-x="627" 
d="M243 -12q-80 0 -133 43t-53 121q0 85 60 130t162 45q74 0 132 -24v12q0 104 -117 104q-81 0 -184 -39v88q0 17 4.5 23.5t22.5 13.5q84 33 179 33q244 0 244 -226v-312h-149v62q-63 -74 -168 -74zM293 86q52 0 86 29t34 76v35q-46 17 -100 17q-52 0 -81 -22.5t-29 -59.5
q0 -34 25.5 -54.5t64.5 -20.5zM205 581l-75 23q16 71 42.5 104t70.5 33q30 0 82 -19.5t66 -19.5q18 0 28.5 10.5t21.5 37.5l75 -24q-15 -71 -41.5 -104.5t-71.5 -33.5q-30 0 -81.5 20t-65.5 20q-19 0 -29.5 -10.5t-21.5 -36.5z" />
    <glyph glyph-name="adieresis" unicode="&#xe4;" horiz-adv-x="627" 
d="M243 -12q-80 0 -133 43t-53 121q0 85 60 130t162 45q74 0 132 -24v12q0 104 -117 104q-81 0 -184 -39v88q0 17 4.5 23.5t22.5 13.5q84 33 179 33q244 0 244 -226v-312h-149v62q-63 -74 -168 -74zM293 86q52 0 86 29t34 76v35q-46 17 -100 17q-52 0 -81 -22.5t-29 -59.5
q0 -34 25.5 -54.5t64.5 -20.5zM156 668q0 32 22.5 54.5t54.5 22.5t54.5 -22.5t22.5 -54.5t-22.5 -54.5t-54.5 -22.5t-54.5 22.5t-22.5 54.5zM347 668q0 32 22.5 54.5t54.5 22.5t54.5 -22.5t22.5 -54.5t-22.5 -54.5t-54.5 -22.5t-54.5 22.5t-22.5 54.5z" />
    <glyph glyph-name="aring" unicode="&#xe5;" horiz-adv-x="627" 
d="M243 -12q-80 0 -133 43t-53 121q0 85 60 130t162 45q74 0 132 -24v12q0 104 -117 104q-81 0 -184 -39v88q0 17 4.5 23.5t22.5 13.5q84 33 179 33q244 0 244 -226v-312h-149v62q-63 -74 -168 -74zM293 86q52 0 86 29t34 76v35q-46 17 -100 17q-52 0 -81 -22.5t-29 -59.5
q0 -34 25.5 -54.5t64.5 -20.5zM204 690q0 51 36.5 87.5t87.5 36.5t87.5 -36.5t36.5 -87.5t-36.5 -87.5t-87.5 -36.5t-87.5 36.5t-36.5 87.5zM284 690q0 -18 13 -31t31 -13t31 13t13 31t-13 31t-31 13t-31 -13t-13 -31z" />
    <glyph glyph-name="ae" unicode="&#xe6;" horiz-adv-x="942" 
d="M885 220h-361q6 -52 48 -81.5t92 -29.5q89 0 176 45v-78q0 -27 -4 -34.5t-24 -18.5q-67 -35 -166 -35q-131 0 -207 87q-43 -52 -89.5 -69.5t-106.5 -17.5q-80 0 -133 43t-53 121q0 85 60 130t162 45q50 0 101 -12q5 33 15 61q-28 43 -101 43q-81 0 -184 -39v88
q0 17 4.5 23.5t22.5 13.5q84 33 179 33q108 0 168 -45q64 45 147 45q132 0 198 -90t56 -228zM293 86q69 0 105 57q-18 42 -21 92q-33 7 -64 7q-52 0 -81 -22t-29 -59q0 -34 25.5 -54.5t64.5 -20.5zM522 301h225q-4 56 -33.5 90.5t-79.5 34.5q-44 0 -76 -35.5t-36 -89.5z" />
    <glyph glyph-name="ccedilla" unicode="&#xe7;" horiz-adv-x="584" 
d="M204 -173v69q95 3 95 66q0 17 -4 28q-112 10 -178.5 85.5t-66.5 188.5q0 116 76 195t201 79t217 -90l-80 -89q-63 54 -129 54q-59 0 -97 -43t-38 -104q0 -73 44 -114t109 -41q79 0 171 49v-92q0 -20 -3.5 -26t-20.5 -15q-41 -23 -105 -34q17 -29 17 -59q0 -60 -53.5 -88
t-154.5 -19z" />
    <glyph glyph-name="egrave" unicode="&#xe8;" horiz-adv-x="633" 
d="M577 218h-373q6 -52 49.5 -80.5t95.5 -28.5q91 0 181 45v-78q0 -27 -4 -34.5t-25 -18.5q-68 -35 -171 -35q-128 0 -203 77t-75 196q0 121 72 199t191 78q136 0 204 -91t58 -229zM202 303h232q-5 56 -35 89.5t-81 33.5q-46 0 -78.5 -34.5t-37.5 -88.5zM314 596l-156 147
h164l93 -147h-101z" />
    <glyph glyph-name="eacute" unicode="&#xe9;" horiz-adv-x="633" 
d="M577 218h-373q6 -52 49.5 -80.5t95.5 -28.5q91 0 181 45v-78q0 -27 -4 -34.5t-25 -18.5q-68 -35 -171 -35q-128 0 -203 77t-75 196q0 121 72 199t191 78q136 0 204 -91t58 -229zM202 303h232q-5 56 -35 89.5t-81 33.5q-46 0 -78.5 -34.5t-37.5 -88.5zM485 743l-156 -147
h-101l93 147h164z" />
    <glyph glyph-name="ecircumflex" unicode="&#xea;" horiz-adv-x="633" 
d="M577 218h-373q6 -52 49.5 -80.5t95.5 -28.5q91 0 181 45v-78q0 -27 -4 -34.5t-25 -18.5q-68 -35 -171 -35q-128 0 -203 77t-75 196q0 121 72 199t191 78q136 0 204 -91t58 -229zM202 303h232q-5 56 -35 89.5t-81 33.5q-46 0 -78.5 -34.5t-37.5 -88.5zM106 597l146 151
h129l146 -151h-113l-98 62l-100 -62h-110z" />
    <glyph glyph-name="edieresis" unicode="&#xeb;" horiz-adv-x="633" 
d="M577 218h-373q6 -52 49.5 -80.5t95.5 -28.5q91 0 181 45v-78q0 -27 -4 -34.5t-25 -18.5q-68 -35 -171 -35q-128 0 -203 77t-75 196q0 121 72 199t191 78q136 0 204 -91t58 -229zM202 303h232q-5 56 -35 89.5t-81 33.5q-46 0 -78.5 -34.5t-37.5 -88.5zM144 668
q0 32 22.5 54.5t54.5 22.5t54.5 -22.5t22.5 -54.5t-22.5 -54.5t-54.5 -22.5t-54.5 22.5t-22.5 54.5zM335 668q0 32 22.5 54.5t54.5 22.5t54.5 -22.5t22.5 -54.5t-22.5 -54.5t-54.5 -22.5t-54.5 22.5t-22.5 54.5z" />
    <glyph glyph-name="igrave" unicode="&#xec;" horiz-adv-x="318" 
d="M83 0v473q0 33 41 42l111 23v-538h-152zM156 596l-156 147h164l93 -147h-101z" />
    <glyph glyph-name="iacute" unicode="&#xed;" horiz-adv-x="318" 
d="M83 0v473q0 33 41 42l111 23v-538h-152zM317 743l-156 -147h-101l93 147h164z" />
    <glyph glyph-name="icircumflex" unicode="&#xee;" horiz-adv-x="318" 
d="M83 0v473q0 33 41 42l111 23v-538h-152zM-51 597l146 151h129l146 -151h-113l-98 62l-100 -62h-110z" />
    <glyph glyph-name="idieresis" unicode="&#xef;" horiz-adv-x="318" 
d="M83 0v473q0 33 41 42l111 23v-538h-152zM-13 668q0 32 22.5 54.5t54.5 22.5t54.5 -22.5t22.5 -54.5t-22.5 -54.5t-54.5 -22.5t-54.5 22.5t-22.5 54.5zM178 668q0 32 22.5 54.5t54.5 22.5t54.5 -22.5t22.5 -54.5t-22.5 -54.5t-54.5 -22.5t-54.5 22.5t-22.5 54.5z" />
    <glyph glyph-name="eth" unicode="&#xf0;" horiz-adv-x="674" 
d="M226 527l-40 82l87 44l-73 101h162l29 -42l102 52l25 -52q15 -32 -16 -48l-58 -29q45 -65 62 -90t45.5 -71.5t38.5 -73.5t18.5 -64t8.5 -76q0 -116 -77 -194t-205 -78q-119 0 -196.5 75.5t-77.5 187.5q0 101 65.5 167t169.5 66q68 0 123 -34q-28 37 -91 127zM339 115
q59 0 94.5 39t35.5 95t-37.5 94.5t-96.5 38.5t-94 -37.5t-35 -93.5t37.5 -96t95.5 -40z" />
    <glyph glyph-name="ntilde" unicode="&#xf1;" horiz-adv-x="635" 
d="M421 0v290q0 51 -24.5 83t-73.5 32q-46 0 -76 -36.5t-30 -90.5v-278h-150v474q0 33 40 42l111 23v-92q58 91 166 91q88 0 138.5 -54.5t50.5 -146.5v-337h-152zM197 581l-75 23q16 71 42.5 104t70.5 33q30 0 82 -19.5t66 -19.5q18 0 28.5 10.5t21.5 37.5l75 -24
q-15 -71 -41.5 -104.5t-71.5 -33.5q-30 0 -81.5 20t-65.5 20q-19 0 -29.5 -10.5t-21.5 -36.5z" />
    <glyph glyph-name="ograve" unicode="&#xf2;" horiz-adv-x="680" 
d="M338 -12q-123 0 -204.5 79.5t-81.5 194.5q0 114 82 195t206 81t206 -80t82 -195q0 -114 -83 -194.5t-207 -80.5zM340 115q62 0 101.5 42.5t39.5 104.5q0 61 -41 105t-102 44t-100 -43t-39 -105t40.5 -105t100.5 -43zM347 596l-156 147h164l93 -147h-101z" />
    <glyph glyph-name="oacute" unicode="&#xf3;" horiz-adv-x="680" 
d="M338 -12q-123 0 -204.5 79.5t-81.5 194.5q0 114 82 195t206 81t206 -80t82 -195q0 -114 -83 -194.5t-207 -80.5zM340 115q62 0 101.5 42.5t39.5 104.5q0 61 -41 105t-102 44t-100 -43t-39 -105t40.5 -105t100.5 -43zM488 743l-156 -147h-101l93 147h164z" />
    <glyph glyph-name="ocircumflex" unicode="&#xf4;" horiz-adv-x="680" 
d="M338 -12q-123 0 -204.5 79.5t-81.5 194.5q0 114 82 195t206 81t206 -80t82 -195q0 -114 -83 -194.5t-207 -80.5zM340 115q62 0 101.5 42.5t39.5 104.5q0 61 -41 105t-102 44t-100 -43t-39 -105t40.5 -105t100.5 -43zM129 597l146 151h129l146 -151h-113l-98 62l-100 -62
h-110z" />
    <glyph glyph-name="otilde" unicode="&#xf5;" horiz-adv-x="680" 
d="M338 -12q-123 0 -204.5 79.5t-81.5 194.5q0 114 82 195t206 81t206 -80t82 -195q0 -114 -83 -194.5t-207 -80.5zM340 115q62 0 101.5 42.5t39.5 104.5q0 61 -41 105t-102 44t-100 -43t-39 -105t40.5 -105t100.5 -43zM222 581l-75 23q16 71 42.5 104t70.5 33
q30 0 82 -19.5t66 -19.5q18 0 28.5 10.5t21.5 37.5l75 -24q-15 -71 -41.5 -104.5t-71.5 -33.5q-30 0 -81.5 20t-65.5 20q-19 0 -29.5 -10.5t-21.5 -36.5z" />
    <glyph glyph-name="odieresis" unicode="&#xf6;" horiz-adv-x="680" 
d="M338 -12q-123 0 -204.5 79.5t-81.5 194.5q0 114 82 195t206 81t206 -80t82 -195q0 -114 -83 -194.5t-207 -80.5zM340 115q62 0 101.5 42.5t39.5 104.5q0 61 -41 105t-102 44t-100 -43t-39 -105t40.5 -105t100.5 -43zM167 668q0 32 22.5 54.5t54.5 22.5t54.5 -22.5
t22.5 -54.5t-22.5 -54.5t-54.5 -22.5t-54.5 22.5t-22.5 54.5zM358 668q0 32 22.5 54.5t54.5 22.5t54.5 -22.5t22.5 -54.5t-22.5 -54.5t-54.5 -22.5t-54.5 22.5t-22.5 54.5z" />
    <glyph glyph-name="divide" unicode="&#xf7;" 
d="M40 285v141h519v-141h-519zM219 546q0 34 23.5 57.5t57.5 23.5t57.5 -23.5t23.5 -57.5t-23.5 -57.5t-57.5 -23.5t-57.5 23.5t-23.5 57.5zM219 165q0 34 23.5 57.5t57.5 23.5t57.5 -23.5t23.5 -57.5t-23.5 -57.5t-57.5 -23.5t-57.5 23.5t-23.5 57.5z" />
    <glyph glyph-name="oslash" unicode="&#xf8;" horiz-adv-x="680" 
d="M338 -12q-74 0 -136 31l-20 -31h-55l36 54q-52 38 -81.5 95.5t-29.5 124.5q0 114 82 195t206 81q74 0 136 -31l21 31h55l-37 -55q53 -38 83 -95.5t30 -124.5q0 -114 -83 -194.5t-207 -80.5zM340 115q62 0 101.5 42.5t39.5 104.5t-44 108l-162 -240q28 -15 65 -15z
M199 263q0 -65 43 -108l161 240q-30 16 -65 16q-61 0 -100 -43t-39 -105z" />
    <glyph glyph-name="ugrave" unicode="&#xf9;" horiz-adv-x="634" 
d="M250 -12q-88 0 -138 54t-50 146v334h151v-288q0 -53 26.5 -82.5t72.5 -29.5t75.5 32.5t29.5 85.5v282h150v-522h-150v77q-64 -89 -167 -89zM324 596l-156 147h164l93 -147h-101z" />
    <glyph glyph-name="uacute" unicode="&#xfa;" horiz-adv-x="634" 
d="M250 -12q-88 0 -138 54t-50 146v334h151v-288q0 -53 26.5 -82.5t72.5 -29.5t75.5 32.5t29.5 85.5v282h150v-522h-150v77q-64 -89 -167 -89zM465 743l-156 -147h-101l93 147h164z" />
    <glyph glyph-name="ucircumflex" unicode="&#xfb;" horiz-adv-x="634" 
d="M250 -12q-88 0 -138 54t-50 146v334h151v-288q0 -53 26.5 -82.5t72.5 -29.5t75.5 32.5t29.5 85.5v282h150v-522h-150v77q-64 -89 -167 -89zM106 597l146 151h129l146 -151h-113l-98 62l-100 -62h-110z" />
    <glyph glyph-name="udieresis" unicode="&#xfc;" horiz-adv-x="634" 
d="M250 -12q-88 0 -138 54t-50 146v334h151v-288q0 -53 26.5 -82.5t72.5 -29.5t75.5 32.5t29.5 85.5v282h150v-522h-150v77q-64 -89 -167 -89zM144 668q0 32 22.5 54.5t54.5 22.5t54.5 -22.5t22.5 -54.5t-22.5 -54.5t-54.5 -22.5t-54.5 22.5t-22.5 54.5zM335 668
q0 32 22.5 54.5t54.5 22.5t54.5 -22.5t22.5 -54.5t-22.5 -54.5t-54.5 -22.5t-54.5 22.5t-22.5 54.5z" />
    <glyph glyph-name="yacute" unicode="&#xfd;" horiz-adv-x="692" 
d="M104 -119v76q53 -19 101 -19q58 0 80 56l-228 528h159l143 -363l117 325q16 44 63 44h109l-216 -537q-39 -97 -81.5 -134t-116.5 -37q-57 0 -100 15q-21 8 -25.5 14.5t-4.5 31.5zM524 743l-156 -147h-101l93 147h164z" />
    <glyph glyph-name="thorn" unicode="&#xfe;" horiz-adv-x="686" 
d="M351 114q58 0 96 41t38 109q0 65 -38 106.5t-96 41.5q-55 0 -92.5 -41.5t-37.5 -105.5q0 -67 37.5 -109t92.5 -42zM217 747v-304q66 95 175 95q100 0 171 -75t71 -198q0 -125 -71 -201t-171 -76q-113 0 -175 88v-249h-150v852q0 34 38 43z" />
    <glyph glyph-name="ydieresis" unicode="&#xff;" horiz-adv-x="692" 
d="M104 -119v76q53 -19 101 -19q58 0 80 56l-228 528h159l143 -363l117 325q16 44 63 44h109l-216 -537q-39 -97 -81.5 -134t-116.5 -37q-57 0 -100 15q-21 8 -25.5 14.5t-4.5 31.5zM193 668q0 32 22.5 54.5t54.5 22.5t54.5 -22.5t22.5 -54.5t-22.5 -54.5t-54.5 -22.5
t-54.5 22.5t-22.5 54.5zM384 668q0 32 22.5 54.5t54.5 22.5t54.5 -22.5t22.5 -54.5t-22.5 -54.5t-54.5 -22.5t-54.5 22.5t-22.5 54.5z" />
    <glyph glyph-name="dotlessi" unicode="&#x131;" horiz-adv-x="318" 
d="M83 0v473q0 33 41 42l111 23v-538h-152z" />
    <glyph glyph-name="Lslash" unicode="&#x141;" horiz-adv-x="664" 
d="M555 0h-448v277l-87 -26v139l87 26v291h151v-245l178 55v-140l-178 -54v-186h356l-17 -104q-4 -20 -13.5 -26.5t-28.5 -6.5z" />
    <glyph glyph-name="lslash" unicode="&#x142;" horiz-adv-x="365" 
d="M96 416v263q0 34 38 43l112 25v-289l102 29v-135l-102 -29v-323h-150v281l-79 -23v135z" />
    <glyph glyph-name="OE" unicode="&#x152;" horiz-adv-x="1036" 
d="M533 0v37q-68 -49 -153 -49q-139 0 -220.5 104.5t-81.5 260.5q0 155 83 260.5t221 105.5q87 0 151 -49v37h451v-135h-301v-150h263v-132h-263v-155h306v-135h-456zM383 124q71 0 111 64.5t40 164.5q0 99 -41.5 164.5t-111.5 65.5q-69 0 -108.5 -64.5t-39.5 -163.5
q0 -100 40 -165.5t110 -65.5z" />
    <glyph glyph-name="oe" unicode="&#x153;" horiz-adv-x="942" 
d="M885 220h-361q6 -52 48 -81.5t92 -29.5q89 0 176 45v-78q0 -27 -4 -34.5t-24 -18.5q-67 -35 -166 -35q-90 0 -155 42q-66 -42 -153 -42q-123 0 -204.5 79.5t-81.5 194.5q0 114 82 195t206 81q83 0 150 -41q62 41 141 41q132 0 198 -90t56 -228zM340 115q34 0 65 13
q-29 60 -29 133q0 75 28 135q-33 15 -66 15q-61 0 -100 -43t-39 -105t40.5 -105t100.5 -43zM522 301h225q-4 56 -33.5 90.5t-79.5 34.5q-44 0 -76 -35.5t-36 -89.5z" />
    <glyph glyph-name="Scaron" unicode="&#x160;" horiz-adv-x="692" 
d="M360 -12q-185 0 -310 115l86 105q106 -89 230 -89q49 0 77.5 21t28.5 53q0 22 -12.5 38t-37 27t-42.5 16t-48 12q-127 29 -189 75t-62 143q0 93 70.5 154t183.5 61q83 0 144.5 -21.5t126.5 -71.5l-58 -81q-20 -28 -54 -6q-78 48 -162 48q-44 0 -70.5 -20.5t-26.5 -49.5
q0 -18 10 -33t21 -23.5t36 -17t36 -11t40 -9.5q126 -28 187.5 -76.5t61.5 -137.5q0 -103 -73 -162t-194 -59zM281 776l-146 151h110l100 -62l98 62h113l-146 -151h-129z" />
    <glyph glyph-name="scaron" unicode="&#x161;" horiz-adv-x="540" 
d="M283 -12q-135 0 -241 77l59 93q90 -60 184 -60q67 0 67 45q0 21 -23.5 33t-76.5 27q-43 12 -71.5 24t-57.5 31.5t-43.5 49t-14.5 67.5q0 75 57.5 119t146.5 44q117 0 211 -61l-39 -68q-17 -28 -46 -14q-65 33 -128 33q-62 0 -62 -41q0 -20 25 -33t78 -28
q88 -27 137 -63.5t49 -105.5q0 -81 -58 -125t-153 -44zM205 591l-146 151h110l100 -62l98 62h113l-146 -151h-129z" />
    <glyph glyph-name="Ydieresis" unicode="&#x178;" horiz-adv-x="787" 
d="M620 707h127l-276 -435v-272h-154v270l-277 437h176l179 -290l161 259q20 31 64 31zM231 853q0 32 22.5 54.5t54.5 22.5t54.5 -22.5t22.5 -54.5t-22.5 -54.5t-54.5 -22.5t-54.5 22.5t-22.5 54.5zM422 853q0 32 22.5 54.5t54.5 22.5t54.5 -22.5t22.5 -54.5t-22.5 -54.5
t-54.5 -22.5t-54.5 22.5t-22.5 54.5z" />
    <glyph glyph-name="Zcaron" unicode="&#x17d;" horiz-adv-x="718" 
d="M59 0v111l379 461h-383l22 98q9 37 51 37h525v-112l-381 -460h391l-21 -96q-5 -22 -17 -30.5t-35 -8.5h-531zM294 776l-146 151h110l100 -62l98 62h113l-146 -151h-129z" />
    <glyph glyph-name="zcaron" unicode="&#x17e;" horiz-adv-x="576" 
d="M49 401l15 88q4 20 13.5 26.5t28.5 6.5h410v-97l-268 -304h296l-15 -88q-4 -20 -13.5 -26.5t-28.5 -6.5h-439v97l268 304h-267zM223 591l-146 151h110l100 -62l98 62h113l-146 -151h-129z" />
    <glyph glyph-name="longs" unicode="&#x17f;" horiz-adv-x="417" 
d="M264 522v-522h-149v403h-73v119h73v46q0 88 44.5 133.5t131.5 45.5q45 0 84 -7q19 -4 23.5 -9t4.5 -24v-79q-45 10 -75 10q-64 0 -64 -73v-43z" />
    <glyph glyph-name="florin" unicode="&#x192;" horiz-adv-x="439" 
d="M154 522l5 46q10 88 60.5 133.5t137.5 45.5q46 0 83 -7q19 -4 22.5 -9t1.5 -24l-9 -79q-45 10 -74 10q-32 0 -52 -19.5t-24 -53.5l-5 -43h115l-13 -119h-111l-42 -403q-17 -180 -199 -180q-33 0 -78 8l20 105q43 -11 73 5t35 62l42 403h-78l12 119h78z" />
    <glyph glyph-name="circumflex" unicode="&#x2c6;" horiz-adv-x="461" 
d="M20 597l146 151h129l146 -151h-113l-98 62l-100 -62h-110z" />
    <glyph glyph-name="caron" unicode="&#x2c7;" horiz-adv-x="461" 
d="M166 591l-146 151h110l100 -62l98 62h113l-146 -151h-129z" />
    <glyph glyph-name="breve" unicode="&#x2d8;" horiz-adv-x="401" 
d="M201 581q-76 0 -125.5 46t-55.5 120h95q20 -62 86 -62q67 0 85 62h95q-6 -74 -55.5 -120t-124.5 -46z" />
    <glyph glyph-name="dotaccent" unicode="&#x2d9;" horiz-adv-x="202" 
d="M20 672q0 34 23.5 57.5t57.5 23.5t57.5 -23.5t23.5 -57.5t-23.5 -57.5t-57.5 -23.5t-57.5 23.5t-23.5 57.5z" />
    <glyph glyph-name="ring" unicode="&#x2da;" horiz-adv-x="288" 
d="M20 690q0 51 36.5 87.5t87.5 36.5t87.5 -36.5t36.5 -87.5t-36.5 -87.5t-87.5 -36.5t-87.5 36.5t-36.5 87.5zM100 690q0 -18 13 -31t31 -13t31 13t13 31t-13 31t-31 13t-31 -13t-13 -31z" />
    <glyph glyph-name="ogonek" unicode="&#x2db;" horiz-adv-x="254" 
d="M234 -181q-104 -10 -159 19t-55 92q0 36 20 71h103q-6 -21 -6 -42q0 -66 97 -69v-71z" />
    <glyph glyph-name="tilde" unicode="&#x2dc;" horiz-adv-x="426" 
d="M95 581l-75 23q16 71 42.5 104t70.5 33q30 0 82 -19.5t66 -19.5q18 0 28.5 10.5t21.5 37.5l75 -24q-15 -71 -41.5 -104.5t-71.5 -33.5q-30 0 -81.5 20t-65.5 20q-19 0 -29.5 -10.5t-21.5 -36.5z" />
    <glyph glyph-name="hungarumlaut" unicode="&#x2dd;" horiz-adv-x="467" 
d="M269 743l-156 -147h-93l93 147h156zM447 743l-156 -147h-93l93 147h156z" />
    <glyph glyph-name="uni0305" unicode="&#x305;" horiz-adv-x="477" 
d="M-71 763v80h619v-80h-619z" />
    <glyph glyph-name="uni0E3F" unicode="&#xe3f;" horiz-adv-x="670" 
d="M70 0v707h202v59h89v-59q104 -2 164.5 -49t60.5 -129q0 -119 -108 -160q142 -42 142 -173q0 -92 -69.5 -144t-189.5 -52h-1v-99h-89v99h-201zM465 214q0 69 -109 75v-154q109 3 109 79zM219 135h57v155h-57v-155zM434 501q0 58 -77 69l-1 -145q78 15 78 76zM219 422h57
v150h-57v-150z" />
    <glyph glyph-name="uni17DB" unicode="&#x17db;" horiz-adv-x="430" 
d="M231 641q-37 0 -57 -27q-31 -42 -31 -62t23 -27q16 -5 101 -21q47 -8 61 -23t14 -51v-42h77v-71h-77v-241q0 -88 -106 -88q-89 0 -156.5 48.5t-67.5 120.5q0 45 31 75.5t78 30.5q42 0 68 -25q16 -16 16 -35q0 -8 -8 -8q-5 0 -18 4.5t-31 4.5q-40 0 -40 -40q0 -38 29 -70
t64 -32q29 0 29 33v222h-113v71h113v26q0 11 -1.5 17.5t-14.5 16.5t-39 13q-11 1 -38 4t-46 6t-32 7q-25 8 -25 39q0 28 17.5 64.5t32.5 58.5q52 79 118 79q7 0 30 -2t66.5 -5.5t91.5 -6.5q16 -2 16 -17q0 -12 -13 -38q-18 -36 -36 -36q-12 0 -62 14q-49 13 -64 13z" />
    <glyph glyph-name="endash" unicode="&#x2013;" horiz-adv-x="575" 
d="M60 261v135h455v-135h-455z" />
    <glyph glyph-name="emdash" unicode="&#x2014;" horiz-adv-x="962" 
d="M60 263v131h842v-131h-842z" />
    <glyph glyph-name="quoteleft" unicode="&#x2018;" horiz-adv-x="282" 
d="M217 554q0 -28 -22.5 -49.5t-54.5 -21.5q-34 0 -60 22q-28 27 -29 77t21 82q40 71 144 96l16 -45q-90 -34 -93 -88q33 1 55.5 -21t22.5 -52z" />
    <glyph glyph-name="quoteright" unicode="&#x2019;" horiz-adv-x="282" 
d="M65 676q0 28 22.5 49.5t54.5 21.5q34 0 60 -22q28 -27 29 -77t-21 -82q-40 -71 -144 -96l-16 45q90 34 93 88q-33 -1 -55.5 21t-22.5 52z" />
    <glyph glyph-name="quotesinglbase" unicode="&#x201a;" horiz-adv-x="282" 
d="M75 73q0 28 22.5 49.5t54.5 21.5q34 0 60 -22q28 -27 29 -77t-21 -82q-40 -71 -144 -96l-16 45q90 34 93 88q-33 -1 -55.5 21t-22.5 52z" />
    <glyph glyph-name="quotedblleft" unicode="&#x201c;" horiz-adv-x="487" 
d="M217 554q0 -28 -22.5 -49.5t-54.5 -21.5q-34 0 -60 22q-28 27 -29 77t21 82q40 71 144 96l16 -45q-90 -34 -93 -88q33 1 55.5 -21t22.5 -52zM422 554q0 -28 -22.5 -49.5t-54.5 -21.5q-34 0 -60 22q-28 27 -29 77t21 82q40 71 144 96l16 -45q-90 -34 -93 -88
q33 1 55.5 -21t22.5 -52z" />
    <glyph glyph-name="quotedblright" unicode="&#x201d;" horiz-adv-x="487" 
d="M65 676q0 28 22.5 49.5t54.5 21.5q34 0 60 -22q28 -27 29 -77t-21 -82q-40 -71 -144 -96l-16 45q90 34 93 88q-33 -1 -55.5 21t-22.5 52zM270 676q0 28 22.5 49.5t54.5 21.5q34 0 60 -22q28 -27 29 -77t-21 -82q-40 -71 -144 -96l-16 45q90 34 93 88q-33 -1 -55.5 21
t-22.5 52z" />
    <glyph glyph-name="quotedblbase" unicode="&#x201e;" horiz-adv-x="487" 
d="M75 73q0 28 22.5 49.5t54.5 21.5q34 0 60 -22q28 -27 29 -77t-21 -82q-40 -71 -144 -96l-16 45q90 34 93 88q-33 -1 -55.5 21t-22.5 52zM280 73q0 28 22.5 49.5t54.5 21.5q34 0 60 -22q28 -27 29 -77t-21 -82q-40 -71 -144 -96l-16 45q90 34 93 88q-33 -1 -55.5 21
t-22.5 52z" />
    <glyph glyph-name="dagger" unicode="&#x2020;" horiz-adv-x="514" 
d="M193 0v403h-149l-24 119h173v185h128v-185h173l-24 -119h-149v-403h-128z" />
    <glyph glyph-name="daggerdbl" unicode="&#x2021;" horiz-adv-x="514" 
d="M193 304v99h-149l-24 119h173v185h128v-185h173l-24 -119h-149v-99h149l24 -119h-173v-185h-128v185h-173l24 119h149z" />
    <glyph glyph-name="bullet" unicode="&#x2022;" horiz-adv-x="392" 
d="M17 362q0 66 46.5 112.5t112.5 46.5t112.5 -46.5t46.5 -112.5t-46.5 -112.5t-112.5 -46.5t-112.5 46.5t-46.5 112.5z" />
    <glyph glyph-name="ellipsis" unicode="&#x2026;" horiz-adv-x="862" 
d="M60 69q0 34 23.5 57.5t57.5 23.5t57.5 -23.5t23.5 -57.5t-23.5 -57.5t-57.5 -23.5t-57.5 23.5t-23.5 57.5zM350 69q0 34 23.5 57.5t57.5 23.5t57.5 -23.5t23.5 -57.5t-23.5 -57.5t-57.5 -23.5t-57.5 23.5t-23.5 57.5zM640 69q0 34 23.5 57.5t57.5 23.5t57.5 -23.5
t23.5 -57.5t-23.5 -57.5t-57.5 -23.5t-57.5 23.5t-23.5 57.5z" />
    <glyph glyph-name="perthousand" unicode="&#x2030;" horiz-adv-x="1249" 
d="M231 344q-76 0 -123.5 54.5t-47.5 132.5t48 133t125 55q75 0 122.5 -55t47.5 -133t-48.5 -132.5t-123.5 -54.5zM133 0l486 707h112l-485 -707h-113zM233 437q30 0 49 27t19 67t-20 67.5t-50 27.5t-49 -27t-19 -68q0 -40 20.5 -67t49.5 -27zM632 -12q-76 0 -123.5 54.5
t-47.5 132.5t48 133t125 55q75 0 122.5 -55t47.5 -133t-48.5 -132.5t-123.5 -54.5zM634 81q30 0 49 27t19 67t-20 67.5t-50 27.5t-49 -27t-19 -68q0 -40 20.5 -67t49.5 -27zM1017 -12q-76 0 -123.5 54.5t-47.5 132.5t48 133t125 55q75 0 122.5 -55t47.5 -133t-48.5 -132.5
t-123.5 -54.5zM1019 81q30 0 49 27t19 67t-20 67.5t-50 27.5t-49 -27t-19 -68q0 -40 20.5 -67t49.5 -27z" />
    <glyph glyph-name="guilsinglleft" unicode="&#x2039;" horiz-adv-x="365" 
d="M305 465l-111 -181l111 -181l-92 -58l-183 239l183 239z" />
    <glyph glyph-name="guilsinglright" unicode="&#x203a;" horiz-adv-x="365" 
d="M171 284l-111 181l92 58l183 -239l-183 -239l-92 58z" />
    <glyph glyph-name="fraction" unicode="&#x2044;" horiz-adv-x="103" 
d="M-190 -12l391 731h92l-391 -731h-92z" />
    <glyph glyph-name="uni2070" unicode="&#x2070;" horiz-adv-x="397" 
d="M199 466q-79 0 -126.5 58.5t-47.5 143.5q0 84 48.5 144t125.5 60q80 0 126.5 -59t46.5 -145q0 -84 -47.5 -143t-125.5 -59zM199 561q30 0 47.5 31.5t17.5 75.5t-18.5 76t-46.5 32q-29 0 -46.5 -31.5t-17.5 -76.5q0 -44 18 -75.5t46 -31.5z" />
    <glyph glyph-name="uni2074" unicode="&#x2074;" horiz-adv-x="378" 
d="M134 640h63v74zM327 557h-29v-80h-104v80h-182v69l200 244h86v-224h72l-11 -64q-5 -25 -32 -25z" />
    <glyph glyph-name="uni2075" unicode="&#x2075;" horiz-adv-x="372" 
d="M239 604q0 22 -14.5 34t-36.5 12q-41 0 -75 -22l-52 33l11 200h259v-92h-169l-3 -48q28 11 56 11q56 1 94.5 -33t38.5 -94q0 -64 -44.5 -101.5t-112.5 -37.5q-93 0 -166 72l57 69q54 -48 106 -48q23 0 37 12.5t14 32.5z" />
    <glyph glyph-name="uni2076" unicode="&#x2076;" horiz-adv-x="376" 
d="M195 466q-51 0 -91.5 29t-57.5 74q-16 42 -16 92q0 93 47.5 152t129.5 59q76 0 144 -56l-49 -70q-41 34 -88 34q-28 0 -48 -16.5t-24 -50.5q31 24 73 24q55 0 94.5 -36t39.5 -92q0 -60 -44 -101.5t-110 -41.5zM194 558q22 0 35 15t13 34t-14 32.5t-35 13.5
q-23 0 -36.5 -14t-13.5 -33q0 -20 14 -34t37 -14z" />
    <glyph glyph-name="uni2077" unicode="&#x2077;" horiz-adv-x="317" 
d="M36 477l143 292h-169v92h297v-61l-155 -323h-116z" />
    <glyph glyph-name="uni2078" unicode="&#x2078;" horiz-adv-x="372" 
d="M187 466q-70 0 -116 36t-46 92q0 51 45 84q-33 30 -33 74q0 51 44.5 85.5t105.5 34.5t105 -34.5t44 -85.5q0 -46 -33 -74q44 -32 44 -84q0 -57 -46 -92.5t-114 -35.5zM187 561q24 0 38 10t14 26q0 14 -14.5 24.5t-37.5 10.5q-24 0 -38 -10.5t-14 -24.5q0 -16 14 -26
t38 -10zM188 713q20 0 31 10.5t11 24.5q0 12 -12 21t-30 9t-30 -9t-12 -21q0 -14 11 -24.5t31 -10.5z" />
    <glyph glyph-name="uni2079" unicode="&#x2079;" horiz-adv-x="376" 
d="M25 728q0 60 44 102t111 42q49 0 88.5 -24.5t58.5 -68.5q19 -42 19 -110q0 -87 -47 -145t-128 -58q-76 0 -138 47l45 72q43 -26 84 -26q64 0 74 67q-33 -26 -76 -26q-56 -1 -95.5 35.5t-39.5 92.5zM131 733q0 -19 13.5 -32.5t35.5 -13.5q23 0 36.5 13.5t13.5 32.5
t-15 32.5t-35 13.5q-21 0 -35 -13.5t-14 -32.5z" />
    <glyph glyph-name="uni2080" unicode="&#x2080;" horiz-adv-x="397" 
d="M199 -200q-79 0 -126.5 58.5t-47.5 143.5q0 84 48.5 144t125.5 60q80 0 126.5 -59t46.5 -145q0 -84 -47.5 -143t-125.5 -59zM199 -105q30 0 47.5 31.5t17.5 75.5t-18.5 76t-46.5 32q-29 0 -46.5 -31.5t-17.5 -76.5q0 -44 18 -75.5t46 -31.5z" />
    <glyph glyph-name="uni2081" unicode="&#x2081;" horiz-adv-x="277" 
d="M100 -189v278l-38 -7q-25 -5 -30 15l-17 62l123 44h69v-392h-107z" />
    <glyph glyph-name="uni2082" unicode="&#x2082;" horiz-adv-x="373" 
d="M315 -189h-274v74l126 114q33 30 45.5 47t12.5 34q0 14 -9 23t-23 9q-44 0 -93 -63l-73 56q41 52 79.5 76.5t89.5 24.5q61 0 100 -35t39 -89q0 -41 -24.5 -74.5t-78.5 -77.5l-27 -22h155l-13 -72q-5 -25 -32 -25z" />
    <glyph glyph-name="uni2083" unicode="&#x2083;" horiz-adv-x="376" 
d="M331 126l-78 -78q42 -6 67.5 -36.5t25.5 -75.5q0 -61 -44.5 -98.5t-111.5 -37.5q-92 0 -164 74l60 67q50 -49 105 -47q21 1 33.5 12t12.5 29q0 17 -13.5 29.5t-36.5 12.5t-53 -10l-20 53l85 83h-138v92h270v-69z" />
    <glyph glyph-name="uni2084" unicode="&#x2084;" horiz-adv-x="378" 
d="M134 -26h63v74zM327 -109h-29v-80h-104v80h-182v69l200 244h86v-224h72l-11 -64q-5 -25 -32 -25z" />
    <glyph glyph-name="uni2085" unicode="&#x2085;" horiz-adv-x="372" 
d="M239 -62q0 22 -14.5 34t-36.5 12q-41 0 -75 -22l-52 33l11 200h259v-92h-169l-3 -48q28 11 56 11q56 1 94.5 -33t38.5 -94q0 -64 -44.5 -101.5t-112.5 -37.5q-93 0 -166 72l57 69q54 -48 106 -48q23 0 37 12.5t14 32.5z" />
    <glyph glyph-name="uni2086" unicode="&#x2086;" horiz-adv-x="376" 
d="M195 -200q-51 0 -91.5 29t-57.5 74q-16 42 -16 92q0 93 47.5 152t129.5 59q76 0 144 -56l-49 -70q-41 34 -88 34q-28 0 -48 -16.5t-24 -50.5q31 24 73 24q55 0 94.5 -36t39.5 -92q0 -60 -44 -101.5t-110 -41.5zM194 -108q22 0 35 15t13 34t-14 32.5t-35 13.5
q-23 0 -36.5 -14t-13.5 -33q0 -20 14 -34t37 -14z" />
    <glyph glyph-name="uni2087" unicode="&#x2087;" horiz-adv-x="317" 
d="M36 -189l143 292h-169v92h297v-61l-155 -323h-116z" />
    <glyph glyph-name="uni2088" unicode="&#x2088;" horiz-adv-x="372" 
d="M187 -200q-70 0 -116 36t-46 92q0 51 45 84q-33 30 -33 74q0 51 44.5 85.5t105.5 34.5t105 -34.5t44 -85.5q0 -46 -33 -74q44 -32 44 -84q0 -57 -46 -92.5t-114 -35.5zM187 -105q24 0 38 10t14 26q0 14 -14.5 24.5t-37.5 10.5q-24 0 -38 -10.5t-14 -24.5q0 -16 14 -26
t38 -10zM188 47q20 0 31 10t11 25q0 12 -12 21t-30 9t-30 -9t-12 -21q0 -15 11 -25t31 -10z" />
    <glyph glyph-name="uni2089" unicode="&#x2089;" horiz-adv-x="376" 
d="M25 62q0 60 44 102t111 42q49 0 88.5 -24.5t58.5 -68.5q19 -42 19 -110q0 -87 -47 -145t-128 -58q-76 0 -138 47l45 72q43 -26 84 -26q64 0 74 67q-33 -26 -76 -26q-56 -1 -95.5 35.5t-39.5 92.5zM131 67q0 -19 13.5 -32.5t35.5 -13.5q23 0 36.5 13.5t13.5 32.5t-15 32.5
t-35 13.5q-21 0 -35 -13.5t-14 -32.5z" />
    <glyph glyph-name="franc" unicode="&#x20a3;" horiz-adv-x="575" 
d="M541 707l-16 -102q-3 -20 -13 -26.5t-29 -6.5h-241v-93h158v-96h-158v-45h158v-96h-158v-242h-152v242h-70v96h70v45h-70v96h70v228h451z" />
    <glyph glyph-name="lira" unicode="&#x20a4;" horiz-adv-x="610" 
d="M256 516q0 -11 4 -37h147v-96h-126l7 -45h119v-96h-115q-3 -56 -22 -90q39 -30 79 -30q25 0 49 21.5t38 73.5l124 -36q-15 -90 -68 -140.5t-123 -52.5q-86 -2 -165 64q-61 -64 -151 -63v141q43 7 64 34t26 78h-90v96h87l-8 45h-79v96h62q-3 19 -3 34q0 97 61 151.5
t159 54.5q117 0 216 -89l-83 -96q-73 58 -135 58q-36 0 -55 -22t-19 -54z" />
    <glyph glyph-name="uni20A8" unicode="&#x20a8;" horiz-adv-x="894" 
d="M215 381h75q54 0 85.5 26.5t31.5 74.5q0 45 -33 69.5t-92 24.5h-67v-195zM628 196q-34 14 -45.5 19t-38.5 20.5t-41.5 34t-21.5 43.5q-30 -25 -66 -38l85 -99q55 -65 126 -65q64 0 64 37q0 14 -12.5 22.5t-49.5 25.5zM627 -12q-76 0 -134.5 21.5t-116.5 91.5l-124 149
h-37v-250h-145v707h217q118 0 189 -56.5t75 -159.5q45 27 115 27q85 0 178 -53l-44 -79q-17 -28 -46 -14q-50 23 -89 23q-50 0 -50 -32q0 -25 64 -47q35 -12 57 -22.5t47.5 -29t38.5 -46.5t13 -64q0 -76 -56.5 -121t-151.5 -45z" />
    <glyph glyph-name="uni20A9" unicode="&#x20a9;" horiz-adv-x="978" 
d="M20 474v64h84l-44 169h162l32 -169h129l41 173h130l40 -173h129l33 169h162l-44 -169h84v-64h-101l-10 -36h111v-64h-128l-90 -343q-10 -36 -59 -36h-92l-90 379h-21l-80 -343q-9 -36 -59 -36h-91l-100 379h-128v64h111l-10 36h-101zM632 374l32 -137l27 137h-59z
M286 374l26 -137l32 137h-58zM266 474l7 -36h86l9 36h-102zM609 474l8 -36h86l7 36h-101z" />
    <glyph glyph-name="dong" unicode="&#x20ab;" horiz-adv-x="686" 
d="M340 557v79h129v43q0 34 38 43l112 25v-111h56v-79h-56v-557h-150v76q-62 -88 -175 -88q-100 0 -171 76t-71 201q0 123 71 198t171 75q109 0 175 -95v114h-129zM335 114q55 0 92.5 42t37.5 109q0 64 -37.5 105.5t-92.5 41.5q-58 0 -96 -41.5t-38 -106.5q0 -68 38 -109
t96 -41zM192 -51h335v-79h-335v79z" />
    <glyph glyph-name="Euro" unicode="&#x20ac;" horiz-adv-x="748" 
d="M472 237h-164q14 -53 53 -85t92 -32q84 0 148 84q16 -15 48.5 -44t48.5 -44q-96 -129 -249 -129q-115 0 -194 69t-103 181h-142l23 96h108q-2 22 0 45h-99l24 96h89q26 108 105 176.5t192 68.5q80 0 137.5 -28t108.5 -84l-94 -86q-65 65 -152 65q-50 0 -87 -29.5
t-53 -82.5h216l-23 -96h-208q-3 -27 -1 -45h199z" />
    <glyph glyph-name="uni20AD" unicode="&#x20ad;" horiz-adv-x="734" 
d="M2 358v64h68v285h152v-259l204 229q25 30 67 30h145l-256 -285h163v-64h-153l269 -358h-197l-242 330v-330h-152v358h-68z" />
    <glyph glyph-name="uni20B1" unicode="&#x20b1;" horiz-adv-x="670" 
d="M17 474v64h53v169h244q105 0 176 -44.5t93 -124.5h62v-64h-52v-8q0 -10 -2 -28h54v-64h-68q-28 -77 -101.5 -119.5t-172.5 -42.5h-81v-212h-152v374h-53v64h53v36h-53zM440 458q0 3 -0.5 8.5t-0.5 8.5h-217v-38h216q2 12 2 21zM222 572v-38h191q-35 38 -111 38h-80z
M222 343h79q67 0 105 35h-184v-35z" />
    <glyph glyph-name="afii61289" unicode="&#x2113;" horiz-adv-x="443" 
d="M410 127l23 -21q-73 -118 -191 -118q-73 0 -111 44q-40 49 -40 153v49l-66 -42l-15 29l81 64v100q0 123 18 183t58 102q50 49 116 49q53 0 85 -35.5t32 -97.5q0 -37 -16 -75t-37 -67t-54 -60t-55 -48.5t-52 -39.5v-85q0 -154 98 -154q71 0 126 70zM186 457v-110
q140 118 140 239q0 41 -18 66.5t-47 25.5q-30 0 -46 -16t-23.5 -64.5t-5.5 -140.5z" />
    <glyph glyph-name="uni2117" unicode="&#x2117;" horiz-adv-x="910" 
d="M90 353q0 151 107 258t258 107t258 -107t107 -258t-107 -258t-258 -107t-258 107t-107 258zM145 353q0 -128 91 -219t219 -91t219 91t91 219t-91 219t-219 91t-219 -91t-91 -219zM660 417q0 -58 -34 -92q-44 -44 -121 -44h-101v-114h-89v381h190q77 0 121 -44
q34 -34 34 -87zM404 365h96q32 0 51 13.5t19 37.5q0 22 -18 35t-49 13h-99v-99z" />
    <glyph glyph-name="trademark" unicode="&#x2122;" horiz-adv-x="660" 
d="M303 403v304h74l80 -129l80 129h73v-304h-69v196l-84 -131l-85 131v-196h-69zM274 707l-8 -46q-2 -16 -21 -16h-72v-242h-71v242h-92v62h264z" />
    <glyph glyph-name="estimated" unicode="&#x212e;" horiz-adv-x="707" 
d="M657 252h-492q-4 0 -4 -2v-144q0 -10 6 -17q76 -81 187 -81q119 0 193 85h45q-41 -49 -104 -77t-135 -28q-127 0 -215 79.5t-88 193.5q0 113 88 192.5t215 79.5q126 0 215 -79.5t89 -192.5v-9zM543 276v142q0 11 -7 19q-30 37 -78.5 56.5t-103.5 19.5q-109 0 -186 -79
q-7 -7 -7 -17v-141q1 -4 4 -4h375z" />
    <glyph glyph-name="onethird" unicode="&#x2153;" horiz-adv-x="746" 
d="M100 323v278l-38 -7q-25 -5 -30 15l-17 62l123 44h69v-392h-107zM87 -12l391 731h92l-391 -731h-92zM701 315l-78 -78q42 -6 67.5 -36.5t25.5 -75.5q0 -61 -44.5 -98.5t-111.5 -37.5q-92 0 -164 74l60 67q50 -49 105 -47q21 1 33.5 12t12.5 29q0 17 -13.5 29.5
t-36.5 12.5t-53 -10l-20 53l85 83h-138v92h270v-69z" />
    <glyph glyph-name="twothirds" unicode="&#x2154;" horiz-adv-x="857" 
d="M315 323h-274v74l126 114q33 30 45.5 47t12.5 34q0 14 -9 23t-23 9q-44 0 -93 -63l-73 56q41 52 79.5 76.5t89.5 24.5q61 0 100 -35t39 -89q0 -41 -24.5 -74.5t-78.5 -77.5l-27 -22h155l-13 -72q-5 -25 -32 -25zM198 -12l391 731h92l-391 -731h-92zM812 315l-78 -78
q42 -6 67.5 -36.5t25.5 -75.5q0 -61 -44.5 -98.5t-111.5 -37.5q-92 0 -164 74l60 67q50 -49 105 -47q21 1 33.5 12t12.5 29q0 17 -13.5 29.5t-36.5 12.5t-53 -10l-20 53l85 83h-138v92h270v-69z" />
    <glyph glyph-name="uni2155" unicode="&#x2155;" horiz-adv-x="742" 
d="M100 323v278l-38 -7q-25 -5 -30 15l-17 62l123 44h69v-392h-107zM87 -12l391 731h92l-391 -731h-92zM609 127q0 22 -14.5 34t-36.5 12q-41 0 -75 -22l-52 33l11 200h259v-92h-169l-3 -48q28 11 56 11q56 1 94.5 -33t38.5 -94q0 -64 -44.5 -101.5t-112.5 -37.5
q-93 0 -166 72l57 69q54 -48 106 -48q23 0 37 12.5t14 32.5z" />
    <glyph glyph-name="uni2156" unicode="&#x2156;" horiz-adv-x="853" 
d="M315 323h-274v74l126 114q33 30 45.5 47t12.5 34q0 14 -9 23t-23 9q-44 0 -93 -63l-73 56q41 52 79.5 76.5t89.5 24.5q61 0 100 -35t39 -89q0 -41 -24.5 -74.5t-78.5 -77.5l-27 -22h155l-13 -72q-5 -25 -32 -25zM198 -12l391 731h92l-391 -731h-92zM720 127
q0 22 -14.5 34t-36.5 12q-41 0 -75 -22l-52 33l11 200h259v-92h-169l-3 -48q28 11 56 11q56 1 94.5 -33t38.5 -94q0 -64 -44.5 -101.5t-112.5 -37.5q-93 0 -166 72l57 69q54 -48 106 -48q23 0 37 12.5t14 32.5z" />
    <glyph glyph-name="uni2157" unicode="&#x2157;" horiz-adv-x="841" 
d="M331 638l-78 -78q42 -6 67.5 -36.5t25.5 -75.5q0 -61 -44.5 -98.5t-111.5 -37.5q-92 0 -164 74l60 67q50 -49 105 -47q21 1 33.5 12t12.5 29q0 17 -13.5 29.5t-36.5 12.5t-53 -10l-20 53l85 83h-138v92h270v-69zM186 -12l391 731h92l-391 -731h-92zM708 127
q0 22 -14.5 34t-36.5 12q-41 0 -75 -22l-52 33l11 200h259v-92h-169l-3 -48q28 11 56 11q56 1 94.5 -33t38.5 -94q0 -64 -44.5 -101.5t-112.5 -37.5q-93 0 -166 72l57 69q54 -48 106 -48q23 0 37 12.5t14 32.5z" />
    <glyph glyph-name="uni2158" unicode="&#x2158;" horiz-adv-x="843" 
d="M134 486h63v74zM327 403h-29v-80h-104v80h-182v69l200 244h86v-224h72l-11 -64q-5 -25 -32 -25zM188 -12l391 731h92l-391 -731h-92zM710 127q0 22 -14.5 34t-36.5 12q-41 0 -75 -22l-52 33l11 200h259v-92h-169l-3 -48q28 11 56 11q56 1 94.5 -33t38.5 -94
q0 -64 -44.5 -101.5t-112.5 -37.5q-93 0 -166 72l57 69q54 -48 106 -48q23 0 37 12.5t14 32.5z" />
    <glyph glyph-name="uni2159" unicode="&#x2159;" horiz-adv-x="736" 
d="M100 323v278l-38 -7q-25 -5 -30 15l-17 62l123 44h69v-392h-107zM87 -12l391 731h92l-391 -731h-92zM555 -11q-51 0 -91.5 29t-57.5 74q-16 42 -16 92q0 93 47.5 152t129.5 59q76 0 144 -56l-49 -70q-41 34 -88 34q-28 0 -48 -16.5t-24 -50.5q31 24 73 24q55 0 94.5 -36
t39.5 -92q0 -60 -44 -101.5t-110 -41.5zM554 81q22 0 35 15t13 34t-14 32.5t-35 13.5q-23 0 -36.5 -14t-13.5 -33q0 -20 14 -34t37 -14z" />
    <glyph glyph-name="uni215A" unicode="&#x215a;" horiz-adv-x="831" 
d="M239 450q0 22 -14.5 34t-36.5 12q-41 0 -75 -22l-52 33l11 200h259v-92h-169l-3 -48q28 11 56 11q56 1 94.5 -33t38.5 -94q0 -64 -44.5 -101.5t-112.5 -37.5q-93 0 -166 72l57 69q54 -48 106 -48q23 0 37 12.5t14 32.5zM182 -12l391 731h92l-391 -731h-92zM650 -11
q-51 0 -91.5 29t-57.5 74q-16 42 -16 92q0 93 47.5 152t129.5 59q76 0 144 -56l-49 -70q-41 34 -88 34q-28 0 -48 -16.5t-24 -50.5q31 24 73 24q55 0 94.5 -36t39.5 -92q0 -60 -44 -101.5t-110 -41.5zM649 81q22 0 35 15t13 34t-14 32.5t-35 13.5q-23 0 -36.5 -14t-13.5 -33
q0 -20 14 -34t37 -14z" />
    <glyph glyph-name="oneeighth" unicode="&#x215b;" horiz-adv-x="742" 
d="M100 323v278l-38 -7q-25 -5 -30 15l-17 62l123 44h69v-392h-107zM87 -12l391 731h92l-391 -731h-92zM557 -11q-70 0 -116 36t-46 92q0 51 45 84q-33 30 -33 74q0 51 44.5 85.5t105.5 34.5t105 -34.5t44 -85.5q0 -46 -33 -74q44 -32 44 -84q0 -57 -46 -92.5t-114 -35.5z
M557 84q24 0 38 10t14 26q0 14 -14.5 24.5t-37.5 10.5q-24 0 -38 -10.5t-14 -24.5q0 -16 14 -26t38 -10zM558 236q20 0 31 10t11 25q0 12 -12 21t-30 9t-30 -9t-12 -21q0 -15 11 -25t31 -10z" />
    <glyph glyph-name="threeeighths" unicode="&#x215c;" horiz-adv-x="841" 
d="M331 638l-78 -78q42 -6 67.5 -36.5t25.5 -75.5q0 -61 -44.5 -98.5t-111.5 -37.5q-92 0 -164 74l60 67q50 -49 105 -47q21 1 33.5 12t12.5 29q0 17 -13.5 29.5t-36.5 12.5t-53 -10l-20 53l85 83h-138v92h270v-69zM186 -12l391 731h92l-391 -731h-92zM656 -11
q-70 0 -116 36t-46 92q0 51 45 84q-33 30 -33 74q0 51 44.5 85.5t105.5 34.5t105 -34.5t44 -85.5q0 -46 -33 -74q44 -32 44 -84q0 -57 -46 -92.5t-114 -35.5zM656 84q24 0 38 10t14 26q0 14 -14.5 24.5t-37.5 10.5q-24 0 -38 -10.5t-14 -24.5q0 -16 14 -26t38 -10zM657 236
q20 0 31 10t11 25q0 12 -12 21t-30 9t-30 -9t-12 -21q0 -15 11 -25t31 -10z" />
    <glyph glyph-name="fiveeighths" unicode="&#x215d;" horiz-adv-x="837" 
d="M239 450q0 22 -14.5 34t-36.5 12q-41 0 -75 -22l-52 33l11 200h259v-92h-169l-3 -48q28 11 56 11q56 1 94.5 -33t38.5 -94q0 -64 -44.5 -101.5t-112.5 -37.5q-93 0 -166 72l57 69q54 -48 106 -48q23 0 37 12.5t14 32.5zM182 -12l391 731h92l-391 -731h-92zM652 -11
q-70 0 -116 36t-46 92q0 51 45 84q-33 30 -33 74q0 51 44.5 85.5t105.5 34.5t105 -34.5t44 -85.5q0 -46 -33 -74q44 -32 44 -84q0 -57 -46 -92.5t-114 -35.5zM652 84q24 0 38 10t14 26q0 14 -14.5 24.5t-37.5 10.5q-24 0 -38 -10.5t-14 -24.5q0 -16 14 -26t38 -10zM653 236
q20 0 31 10t11 25q0 12 -12 21t-30 9t-30 -9t-12 -21q0 -15 11 -25t31 -10z" />
    <glyph glyph-name="seveneighths" unicode="&#x215e;" horiz-adv-x="752" 
d="M36 323l143 292h-169v92h297v-61l-155 -323h-116zM97 -12l391 731h92l-391 -731h-92zM567 -11q-70 0 -116 36t-46 92q0 51 45 84q-33 30 -33 74q0 51 44.5 85.5t105.5 34.5t105 -34.5t44 -85.5q0 -46 -33 -74q44 -32 44 -84q0 -57 -46 -92.5t-114 -35.5zM567 84
q24 0 38 10t14 26q0 14 -14.5 24.5t-37.5 10.5q-24 0 -38 -10.5t-14 -24.5q0 -16 14 -26t38 -10zM568 236q20 0 31 10t11 25q0 12 -12 21t-30 9t-30 -9t-12 -21q0 -15 11 -25t31 -10z" />
    <glyph glyph-name="uni215F" unicode="&#x215f;" horiz-adv-x="380" 
d="M100 323v278l-38 -7q-25 -5 -30 15l-17 62l123 44h69v-392h-107zM87 -12l391 731h92l-391 -731h-92z" />
    <glyph glyph-name="minus" unicode="&#x2212;" 
d="M40 283v145h519v-145h-519z" />
    <glyph glyph-name="radical" unicode="&#x221a;" horiz-adv-x="471" 
d="M12 372h163l39 -199l19 -110l23 110l145 670h265v-80h-177l-189 -828h-135l-78 363h-75v74z" />
    <glyph glyph-name="infinity" unicode="&#x221e;" horiz-adv-x="731" 
d="M517 123q-114 0 -176 97q-62 -97 -146 -97q-78 0 -125 57t-47 153q0 84 45.5 149t131.5 65q112 0 175 -96q66 96 146 96q78 0 125.5 -57t47.5 -153q0 -85 -46 -149.5t-131 -64.5zM97 337q1 -52 29 -82.5t75 -30.5q37 0 58 18t43 61q-27 70 -55 105.5t-69 35.5
q-39 0 -60 -31.5t-21 -75.5zM620 333q-1 52 -29 82t-75 30q-38 0 -58 -18t-43 -61q27 -70 55 -105t69 -35q39 0 60 31.5t21 75.5z" />
    <glyph glyph-name="notequal" unicode="&#x2260;" 
d="M40 391v141h282l60 125h124l-61 -125h114v-141h-182l-33 -70h215v-136h-281l-61 -126h-123l61 126h-115v136h181l33 70h-214z" />
    <glyph glyph-name="lessequal" unicode="&#x2264;" 
d="M40 194h519v-130h-519v130zM559 207l-519 174v139l519 174v-144l-342 -98l342 -100v-145z" />
    <glyph glyph-name="greaterequal" unicode="&#x2265;" 
d="M40 194h519v-130h-519v130zM559 381l-519 -174v145l342 100l-342 98v144l519 -174v-139z" />
    <glyph glyph-name="filledbox" unicode="&#x25a0;" horiz-adv-x="540" 
d="M490 12h-440v442h440v-442z" />
    <glyph glyph-name="H18533" unicode="&#x25cf;" horiz-adv-x="540" 
d="M50 232q0 92 64 157t156 65q91 0 155.5 -65t64.5 -157q0 -91 -64.5 -155.5t-155.5 -64.5q-92 0 -156 64.5t-64 155.5z" />
    <glyph glyph-name="externallink" unicode="&#xe190;" horiz-adv-x="714" 
d="M327 695v4l337 18l-19 -346h-5l-95 97l-97 -94v-374h-398v508h258l104 101zM118 71h259v235l-83 -83l-136 144l78 72h-118v-368zM294 300l252 244l49 -54l10 172l-163 -11l43 -42l-253 -244z" />
    <glyph glyph-name="zero.numr" unicode="&#xeb40;" horiz-adv-x="397" 
d="M199 312q-79 0 -126.5 58.5t-47.5 143.5q0 84 48.5 144t125.5 60q80 0 126.5 -59t46.5 -145q0 -84 -47.5 -143t-125.5 -59zM199 407q30 0 47.5 31.5t17.5 75.5t-18.5 76t-46.5 32q-29 0 -46.5 -31.5t-17.5 -76.5q0 -44 18 -75.5t46 -31.5z" />
    <glyph glyph-name="one.numr" unicode="&#xeb41;" horiz-adv-x="277" 
d="M100 323v278l-38 -7q-25 -5 -30 15l-17 62l123 44h69v-392h-107z" />
    <glyph glyph-name="two.numr" unicode="&#xeb42;" horiz-adv-x="373" 
d="M315 323h-274v74l126 114q33 30 45.5 47t12.5 34q0 14 -9 23t-23 9q-44 0 -93 -63l-73 56q41 52 79.5 76.5t89.5 24.5q61 0 100 -35t39 -89q0 -41 -24.5 -74.5t-78.5 -77.5l-27 -22h155l-13 -72q-5 -25 -32 -25z" />
    <glyph glyph-name="three.numr" unicode="&#xeb43;" horiz-adv-x="376" 
d="M331 638l-78 -78q42 -6 67.5 -36.5t25.5 -75.5q0 -61 -44.5 -98.5t-111.5 -37.5q-92 0 -164 74l60 67q50 -49 105 -47q21 1 33.5 12t12.5 29q0 17 -13.5 29.5t-36.5 12.5t-53 -10l-20 53l85 83h-138v92h270v-69z" />
    <glyph glyph-name="four.numr" unicode="&#xeb44;" horiz-adv-x="378" 
d="M134 486h63v74zM327 403h-29v-80h-104v80h-182v69l200 244h86v-224h72l-11 -64q-5 -25 -32 -25z" />
    <glyph glyph-name="five.numr" unicode="&#xeb45;" horiz-adv-x="372" 
d="M239 450q0 22 -14.5 34t-36.5 12q-41 0 -75 -22l-52 33l11 200h259v-92h-169l-3 -48q28 11 56 11q56 1 94.5 -33t38.5 -94q0 -64 -44.5 -101.5t-112.5 -37.5q-93 0 -166 72l57 69q54 -48 106 -48q23 0 37 12.5t14 32.5z" />
    <glyph glyph-name="six.numr" unicode="&#xeb46;" horiz-adv-x="376" 
d="M195 312q-51 0 -91.5 29t-57.5 74q-16 42 -16 92q0 93 47.5 152t129.5 59q76 0 144 -56l-49 -70q-41 34 -88 34q-28 0 -48 -16.5t-24 -50.5q31 24 73 24q55 0 94.5 -36t39.5 -92q0 -60 -44 -101.5t-110 -41.5zM194 404q22 0 35 15t13 34t-14 32.5t-35 13.5
q-23 0 -36.5 -14t-13.5 -33q0 -20 14 -34t37 -14z" />
    <glyph glyph-name="seven.numr" unicode="&#xeb47;" horiz-adv-x="317" 
d="M36 323l143 292h-169v92h297v-61l-155 -323h-116z" />
    <glyph glyph-name="eight.numr" unicode="&#xeb48;" horiz-adv-x="372" 
d="M187 312q-70 0 -116 36t-46 92q0 51 45 84q-33 30 -33 74q0 51 44.5 85.5t105.5 34.5t105 -34.5t44 -85.5q0 -46 -33 -74q44 -32 44 -84q0 -57 -46 -92.5t-114 -35.5zM187 407q24 0 38 10t14 26q0 14 -14.5 24.5t-37.5 10.5q-24 0 -38 -10.5t-14 -24.5q0 -16 14 -26
t38 -10zM188 559q20 0 31 10.5t11 24.5q0 12 -12 21t-30 9t-30 -9t-12 -21q0 -14 11 -24.5t31 -10.5z" />
    <glyph glyph-name="nine.numr" unicode="&#xeb49;" horiz-adv-x="376" 
d="M25 574q0 60 44 102t111 42q49 0 88.5 -24.5t58.5 -68.5q19 -42 19 -110q0 -87 -47 -145t-128 -58q-76 0 -138 47l45 72q43 -26 84 -26q64 0 74 67q-33 -26 -76 -26q-56 -1 -95.5 35.5t-39.5 92.5zM131 579q0 -19 13.5 -32.5t35.5 -13.5q23 0 36.5 13.5t13.5 32.5
t-15 32.5t-35 13.5q-21 0 -35 -13.5t-14 -32.5z" />
    <glyph glyph-name="zero.dnom" unicode="&#xeba0;" horiz-adv-x="397" 
d="M199 -11q-79 0 -126.5 58.5t-47.5 143.5q0 84 48.5 144t125.5 60q80 0 126.5 -59t46.5 -145q0 -84 -47.5 -143t-125.5 -59zM199 84q30 0 47.5 31.5t17.5 75.5t-18.5 76t-46.5 32q-29 0 -46.5 -31.5t-17.5 -76.5q0 -44 18 -75.5t46 -31.5z" />
    <glyph glyph-name="one.dnom" unicode="&#xeba1;" horiz-adv-x="277" 
d="M100 0v278l-38 -7q-25 -5 -30 15l-17 62l123 44h69v-392h-107z" />
    <glyph glyph-name="two.dnom" unicode="&#xeba2;" horiz-adv-x="373" 
d="M315 0h-274v74l126 114q33 30 45.5 47t12.5 34q0 14 -9 23t-23 9q-44 0 -93 -63l-73 56q41 52 79.5 76.5t89.5 24.5q61 0 100 -35t39 -89q0 -41 -24.5 -74.5t-78.5 -77.5l-27 -22h155l-13 -72q-5 -25 -32 -25z" />
    <glyph glyph-name="three.dnom" unicode="&#xeba3;" horiz-adv-x="376" 
d="M331 315l-78 -78q42 -6 67.5 -36.5t25.5 -75.5q0 -61 -44.5 -98.5t-111.5 -37.5q-92 0 -164 74l60 67q50 -49 105 -47q21 1 33.5 12t12.5 29q0 17 -13.5 29.5t-36.5 12.5t-53 -10l-20 53l85 83h-138v92h270v-69z" />
    <glyph glyph-name="four.dnom" unicode="&#xeba4;" horiz-adv-x="378" 
d="M134 163h63v74zM327 80h-29v-80h-104v80h-182v69l200 244h86v-224h72l-11 -64q-5 -25 -32 -25z" />
    <glyph glyph-name="five.dnom" unicode="&#xeba5;" horiz-adv-x="372" 
d="M239 127q0 22 -14.5 34t-36.5 12q-41 0 -75 -22l-52 33l11 200h259v-92h-169l-3 -48q28 11 56 11q56 1 94.5 -33t38.5 -94q0 -64 -44.5 -101.5t-112.5 -37.5q-93 0 -166 72l57 69q54 -48 106 -48q23 0 37 12.5t14 32.5z" />
    <glyph glyph-name="six.dnom" unicode="&#xeba6;" horiz-adv-x="376" 
d="M195 -11q-51 0 -91.5 29t-57.5 74q-16 42 -16 92q0 93 47.5 152t129.5 59q76 0 144 -56l-49 -70q-41 34 -88 34q-28 0 -48 -16.5t-24 -50.5q31 24 73 24q55 0 94.5 -36t39.5 -92q0 -60 -44 -101.5t-110 -41.5zM194 81q22 0 35 15t13 34t-14 32.5t-35 13.5
q-23 0 -36.5 -14t-13.5 -33q0 -20 14 -34t37 -14z" />
    <glyph glyph-name="seven.dnom" unicode="&#xeba7;" horiz-adv-x="317" 
d="M36 0l143 292h-169v92h297v-61l-155 -323h-116z" />
    <glyph glyph-name="eight.dnom" unicode="&#xeba8;" horiz-adv-x="372" 
d="M187 -11q-70 0 -116 36t-46 92q0 51 45 84q-33 30 -33 74q0 51 44.5 85.5t105.5 34.5t105 -34.5t44 -85.5q0 -46 -33 -74q44 -32 44 -84q0 -57 -46 -92.5t-114 -35.5zM187 84q24 0 38 10t14 26q0 14 -14.5 24.5t-37.5 10.5q-24 0 -38 -10.5t-14 -24.5q0 -16 14 -26
t38 -10zM188 236q20 0 31 10t11 25q0 12 -12 21t-30 9t-30 -9t-12 -21q0 -15 11 -25t31 -10z" />
    <glyph glyph-name="nine.dnom" unicode="&#xeba9;" horiz-adv-x="376" 
d="M25 251q0 60 44 102t111 42q49 0 88.5 -24.5t58.5 -68.5q19 -42 19 -110q0 -87 -47 -145t-128 -58q-76 0 -138 47l45 72q43 -26 84 -26q64 0 74 67q-33 -26 -76 -26q-56 -1 -95.5 35.5t-39.5 92.5zM131 256q0 -20 13.5 -33t35.5 -13q23 0 36.5 13.5t13.5 32.5t-15 32.5
t-35 13.5q-21 0 -35 -13.5t-14 -32.5z" />
    <glyph glyph-name="uniF100" unicode="&#xf100;" horiz-adv-x="1364" 
d="M1348 308h1l-1 -6h-3l-1 -12h-2v-4q-5 -5 -8 -5v2l-8 -3l-4 -5q-4 1 -12 1h-5v-1h-9l-13 -4l-3 -15q-5 -5 -13 -17h-3v-7l-9 -8l-7 -1l-11 -9h-11l-3 -3h-3v-2l-19 3l-2 -3h-2l-3 -3l-5 -17l-4 -3v-2h-6l-6 -7l-2 -6l-10 -2q-11 -16 -24 -16q-2 0 -8 2l-4 4l-6 1l-7 7h-4
v2l-8 8v6l-14 13v13l-11 -2q-10 -27 -28 -33v-2q-8 -8 -16 -12h-2v-1h-5v1h-8v2h-3v1h-1q-1 0 -4.5 1t-4.5 1l-4 -1l-8 3l-6 4q-1 2 -4 6t-4 6v1q-7 3 -7 19l1 1v7h-1v6l-5 10l-5 -5l-7 1l-3 -4q0 -6 -2 -12l-4 -4l-4 -16l-12 -9q-2 -3 -2 -9h-1v-2q-14 -14 -14 -32
q0 -2 -4 -6t-4 -5h-3l-9 -5v-7l-12 -9l-4 3l-3 -6h-2q-1 0 -5 -0.5t-6 -0.5h-3v-1h-5l-3 2v-1h-6l-13 13h-2v6l-9 7q-4 11 -4 15q0 6 1 13l3 2l1 7l-4 1v7h3v7h1v4l-7 5l-4 -8v-6l-3 -2l-3 -3v-4h1l-1 -7l-5 -6v-5l-9 -10q0 -20 -5 -32h-1q-9 -24 -15 -30v-6h-1
q-5 -14 -6 -17l-2 -3v-5q-6 -3 -9.5 -9t-7 -17t-5.5 -15l-7 -1l-2 -10q-6 -7 -13.5 -12.5t-17 -11t-13.5 -8.5v-1q-5 -2 -16 -2v-1q-13 0 -22 12l-4 3q-3 6 -5 6l-9 2l-3 3q-2 4 -2 14h-1v3q-5 8 -5 30h2v3q0 2 0.5 6t0.5 6v2h2v3q0 4 1.5 14t1.5 15v23h1v4h1l-1 7l1 1
q0 7 2 11v8h1l6 11h1v7h1v5l7 10v8h-2v6h2v10q0 1 1 6.5t1 7.5v1h2v2q3 3 3 7v6h-2q-13 -21 -13 -25l-4 -3q-8 -21 -14 -25v-8h-2q-8 -11 -8 -19v-3l-4 -9h-1q-2 -4 -4 -18v-7h-2v-7l-3 -4l-9 -2q-10 -28 -20 -41v-5l-5 -9l-12 -6l-1 -1l-5 -7h-9l-4 -3q-2 -2 -5 -2l-2 1v3
l-13 -5l-8 2l-3 4l-6 1v1l-6 1l-4 6l-3 2l-2 4l-12 3v10h-2v4h-1l-3 6v8l-5 7v2q0 6 -2 10h-1v12h1v14h-1v2h1l-4 9q-2 -2 -11 -17.5t-19 -19.5q-8 -1 -19 -10h-8q-2 1 -19 12l-1 5l-1 3h-3v9h-1v4h-2v8l-10 10l1 3l-8 9l-8 -2q-4 -8 -14 -15l-11 -15l-9 3l-8 -4l-1 -1h-1
l-1 -1q-5 0 -13 6t-10 7v1l-7 4q-3 6 -3 14h-1v10l-7 10v4h-2q2 4 2 8l2 5v16l1 1v8h-1v6l-2 3h-4l-4 -6q-4 -2 -12.5 -2.5t-11.5 -1.5h-3l-10 7l-1 5l-9 11h-3l-8 -16h-2l-4 -5l-4 -1v-1l-3 -6q-6 -3 -18 -18l-11 -3h-9q-21 13 -22 14h-4l-5 8v12q-11 11 -12 21v8h-1
q0 10 -2 13h-1v5q-9 7 -13 12l-5 -5l-10 1v1h-5l-12 -6l-6 4h-7l-7 5v8h-2l-3 4l2 4l-6 7v3l3 4l1 8l6 10v2h2l5 15l4 7l5 2h9v2h5l1 1l2 4l9 2l7 10l2 6l3 6l10 5v8q9 18 28 18v2h6v-2h11v-2h5q5 -2 15 -15q4 0 7 1.5t4.5 3t4.5 5t5 5.5l2 6l3 1q0 5 5 8l2 6q3 3 8.5 10
t6.5 9l10 1v-1q3 0 23 8v3h7v-3h7l4 -5h7l4 -5h6l1 -3l11 -9l10 -3q17 32 20 45v3h2l1 6l3 5l3 3q2 8 11.5 21t10.5 19l11 15q3 2 8 6.5t7.5 6.5t8.5 3.5t13 1.5l9 -5q16 -11 20 -13l2 -5l5 -3l4 -5v-8l7 -8v-7h-1v-4h-1l-3 -16h3q6 17 18 24v2l13 6v2l13 2l4 -1v-1l9 -2
l8 -9h2q3 -5 3 -11v-4l2 -2v-5h4l5 10h2l7 11q0 2 1 6.5t1.5 8t0.5 6.5l1 1v11h3q1 5 16 31.5t20 31.5q1 3 4 9.5t5 11.5t3 9h2q0 11 7 17v1h6l1 2q13 11 21 22h17v1h4q6 0 10 -1l9 -13h6l3 -3l7 -13h1v-5q0 -11 5 -41h1v-2l-4 -5q-10 -30 -10 -42v-3l-3 -6q0 -2 -1 -6
t-1 -5v-1h-1q0 -8 -3 -14h-1v-5h-2q0 -8 -5.5 -25t-5.5 -25l7 1l9 13v5l7 11v5q4 9 13 18v2q0 7 3 12l2 3q8 31 38 72l5 1l2 9h2l4 7l3 2l7 13q0 4 6 14h2v1q0 4 8.5 15t10.5 14q7 0 15 4v2h2l2 -1q4 0 10 2v-1h8v1h8q3 -3 15 -8.5t16 -10.5v-24h2v-4q0 -2 0.5 -8t0.5 -8
q0 -5 -0.5 -15t-0.5 -15l-2 -3q-1 -6 -1 -17h-1v-6h-2q0 -21 -10 -29v-4h-1v-10l-2 -3v-7l-3 -2q0 -4 -2 -8v-11h-1l1 -9l6 1q0 17 16 37v9h7l2 2l1 5l6 2l7 12l9 2l5 5q2 1 8 7.5t12 6.5l5 -3h9v-1q9 -2 15 -9.5t10 -9.5q1 -2 2.5 -8.5t2.5 -8.5l5 -3v-16h1v-8h-1
q-5 -18 -5 -19q0 -3 3 -15q-2 -2 -3 -7t-2 -6v-5h2v-10h-2v-6h2l2 -6l5 1q4 18 17 28l3 5h2q0 2 1 7t1 8h1q0 9 5 16.5t10 9.5l2 4q11 11 24 11v2l5 4h5l6 1v1h20q2 0 5.5 0.5t4.5 0.5l3 -5q4 -1 8 -5l1 -7q11 -6 14 -15l6 -4q0 -2 -0.5 -7t-0.5 -7v-3l4 -3v-5h1
q-1 -4 -1 -14l4 -2v2q6 11 13 13h6l7 11h3v1l9 -1v1l7 4l1 -1l11 -1q8 -5 14 -13l7 -1q2 -4 7 -7l1 -5l13 -9l4 -9v-7h1v-12q3 -3 3 -14v-13h-1v-7l12 9l1 5h2l2 6l6 1l10 10h4l12 -1v1h8v-1q4 0 6 -2l10 -9q6 -8 6 -14v-2h2v-7l10 -7l2 -6l3 -3l6 -2v-1h7q7 -5 9 -10l5 -5
l2 -7l9 -5v-5q0 -2 -0.5 -6.5t-0.5 -5.5q0 -3 1 -4zM692 326q0 24 -11.5 38t-29.5 14q-6 0 -13 -3t-12 -7l-4 -3q-3 0 -3 6.5t-5 6.5q-10 0 -33 -9t-23 -16t3 -8.5t6 -1t6 -10t3 -33.5t-2.5 -34t-5.5 -11t-5.5 -1.5t-2.5 -8.5q0 -14 37 -14q41 0 41 14q0 5 -8 10t-8 16
q0 5 1 5t4.5 -2t8.5 -3.5t10 -1.5q19 0 32.5 14.5t13.5 42.5zM326 273q0 28 -31 28q-8 0 -19 -1.5t-15 -1.5q-14 0 -14 7q0 5 2 5q68 0 68 36q0 6 4.5 13t4.5 13q0 12 -8 12l-3 -3q-3 -3 -8.5 -5.5t-12.5 -2.5q-3 0 -14 2.5t-19 2.5q-21 0 -35 -10.5t-14 -24.5q0 -21 17 -28
q-21 -6 -21 -19q0 -12 13 -20q-13 -4 -13 -14q0 -13 14.5 -22t37.5 -9q29 0 47.5 12t18.5 30zM833 281q0 5 -4 10.5t-4 18.5q0 37 -7 52.5t-30 15.5q-8 0 -15.5 -4.5t-12 -9t-5.5 -4.5q-3 0 -3 4v41q0 12 -6 12q-17 0 -36.5 -7t-19.5 -14q0 -6 1.5 -7.5t4 -1.5t4.5 -2
t3.5 -11t1.5 -27v-16q0 -32 -3 -37q-1 -1 -4.5 -2.5t-5.5 -3.5t-2 -5q0 -14 37 -14q34 0 34 12q0 3 -4.5 12.5t-4.5 39.5q0 11 11 11t11 -21v-11q0 -11 -3.5 -19t-3.5 -12q0 -12 35 -12q31 0 31 12zM1141 364q0 12 -24 12t-24 -12q0 -3 4 -6t4 -5q0 -3 -3.5 -12.5t-9.5 -9.5
q-4 0 -8 9.5t-4 12.5l2 3q3 3 3 8q0 12 -32 12q-39 0 -39 -16q0 -5 9 -10q4 -2 10 -14l15 -34q12 -28 14 -40q0 -7 -6 -7l-4 12q-3 12 -17 12q-7 0 -13 -5.5t-6 -14.5q0 -13 9.5 -20.5t25.5 -7.5q13 0 22.5 5.5t16.5 17.5t11 22t10 29t10 29q3 12 13.5 18t10.5 12zM562 291
q0 3 -7 6.5t-7 18.5v27q0 36 -47 36q-22 0 -36 -8t-14 -18q0 -13 12 -13q9 0 17.5 10t14.5 10q8 0 8 -17v-11q-6 1 -17 1q-18 0 -30.5 -9.5t-12.5 -23.5q0 -31 36 -31q8 0 17 5t10 5l2 -3q3 -2 8 -4.5t12 -2.5q13 0 23.5 7t10.5 15zM445 353q0 25 -27 25q-7 0 -12 -4t-8 -8
l-2 -4l-1 8q-1 8 -10 8q-17 0 -33.5 -6t-16.5 -16q0 -3 5.5 -7.5t5.5 -9.5v-3q0 -18 -1.5 -27t-3 -11.5t-3.5 -2.5t-3.5 -2t-1.5 -9q0 -15 39 -15t39 14q0 5 -8.5 9.5t-8.5 24.5q0 24 4 24q-1 0 1.5 -4t8 -8t12.5 -4q11 0 18 8t7 20zM1003 291q0 13 -7 13q-2 0 -5.5 -2
t-6.5 -2q-12 0 -12 12v36q0 6 7 6h15q6 0 7.5 1t1.5 7v7q0 5 -1 6t-6 1h-22v9v7t-1 4.5t-3 3t-5 0.5q-2 0 -14.5 -5.5t-26.5 -15t-14 -17.5q0 -6 1.5 -7t9.5 -1h4v-49q0 -36 36 -36q18 0 30 6.5t12 15.5zM912 283q0 4 -4.5 9.5t-4.5 11.5v68q0 7 -8 7q-10 0 -32.5 -6
t-22.5 -16q0 -3 6 -8t6 -20v-4q0 -28 -5 -33.5t-5 -8.5q0 -14 35 -14t35 14zM1194 388q0 30 -23 30q-25 0 -25 -30q0 -18 8 -40t17 -22q8 0 15.5 20.5t7.5 41.5zM1194 291q0 10 -6.5 16.5t-16.5 6.5t-17 -6.5t-7 -16.5t7 -16.5t17 -6.5t16.5 6.5t6.5 16.5zM901 403
q0 15 -24 15q-15 0 -24.5 -6.5t-9.5 -13.5q0 -14 21 -14q16 0 26.5 5.5t10.5 13.5zM644 317q0 -21 -16 -21q-7 0 -7 14q0 38 7 38q16 0 16 -31zM276 340q0 -17 -11 -17t-11 24q0 15 8 15q14 0 14 -22zM282 260q0 -9 -21 -9q-9 0 -16.5 4.5t-7.5 9.5q0 2 2 4q9 -3 18 -3h19
q6 0 6 -6zM503 312q0 -19 -8 -19q-9 0 -9 12q0 11 12 11q5 0 5 -4zM512 12h-3h-1h4z" />
    <glyph glyph-name="franc.alt2" unicode="&#xf103;" horiz-adv-x="705" 
d="M472 499v-158q54 125 174 125h15v-131q0 -11 -5 -17t-8.5 -6.5t-10.5 -0.5q-38 0 -57 -1t-43.5 -7t-35.5 -18t-19.5 -35t-8.5 -57v-193h-148v355h-103v-355h-152v707h451l-16 -102q-3 -20 -13 -26.5t-29 -6.5h-241v-89h121q15 0 40 3z" />
    <glyph glyph-name="rupiah" unicode="&#xf106;" horiz-adv-x="1040" 
d="M792 -17q-87 0 -131 76v-232h-132v158q-89 18 -163 116l-114 149h-37v-250h-145v707h217q119 0 192 -57.5t73 -158.5l109 28v-83q47 82 131 82q81 0 138.5 -73t57.5 -192q0 -122 -57.5 -196t-138.5 -74zM758 106q45 0 70.5 40t25.5 106q0 64 -25.5 103.5t-70.5 39.5
q-42 0 -67.5 -40.5t-25.5 -101.5q0 -65 25 -106t68 -41zM215 381h75q54 0 85.5 26.5t31.5 74.5q0 45 -33 69.5t-92 24.5h-67v-195zM415 275l75 -99q15 -20 39 -33v232q-32 -65 -114 -100z" />
    <glyph glyph-name="uni20A8.alt1" unicode="&#xf10c;" horiz-adv-x="913" 
d="M647 196q-3 1 -20.5 8.5t-23 10t-21 10t-22 12.5t-18.5 14t-18.5 17.5t-13 20t-10.5 24.5q-30 -25 -66 -38l85 -99q55 -65 126 -65q64 0 64 37q0 14 -13.5 23.5t-48.5 24.5zM234 576v-50h181q-28 50 -114 50h-67zM234 381h75q77 0 105 50h-180v-50zM684 395
q-50 0 -50 -32q0 -25 64 -47q36 -13 57 -23t47.5 -29t39 -46.5t12.5 -63.5q0 -76 -56.5 -121t-151.5 -45q-76 0 -134.5 21.5t-116.5 91.5l-124 149h-37v-250h-145v431h-70v95h70v181h217q118 0 189 -56.5t75 -159.5q45 27 115 27q85 0 178 -53l-44 -79q-17 -28 -46 -14
q-50 23 -89 23z" />
    <glyph glyph-name="uniF10D" unicode="&#xf10d;" horiz-adv-x="686" 
d="M340 557v79h129v43q0 34 38 43l112 25v-111h56v-79h-56v-557h-150v76q-62 -88 -175 -88q-100 0 -171 76t-71 201q0 123 71 198t171 75q109 0 175 -95v114h-129zM335 114q55 0 92.5 42t37.5 109q0 64 -37.5 105.5t-92.5 41.5q-58 0 -96 -41.5t-38 -106.5q0 -68 38 -109
t96 -41z" />
    <glyph glyph-name="yen.alt1" unicode="&#xf10f;" horiz-adv-x="679" 
d="M576 707h126l-217 -356h146v-101h-183v-250h-150v250h-182v101h144l-215 356h174l155 -286l138 255q17 31 64 31z" />
    <glyph glyph-name="Ringgit.Malay" unicode="&#xf110;" horiz-adv-x="1269" 
d="M222 364h82q59 0 94 28.5t35 75.5q0 50 -33.5 77t-95.5 27h-82v-208zM586 138h24v569h160l136 -283l136 283h157v-707h-149l3 414l-147 -272h-1l-149 271l3 -413h-173q-69 0 -119.5 22.5t-93.5 78.5l-103 135h-48v-236h-152v707h243q131 0 203 -62t72 -170
q0 -82 -41.5 -136.5t-115.5 -75.5l56 -74q22 -29 42.5 -40t56.5 -11z" />
    <glyph glyph-name="Taka.Bangladesh" unicode="&#xf111;" horiz-adv-x="1049" 
d="M636 723v-404l162 176q16 18 31 25.5t41 7.5h132l-202 -216l219 -312h-176l-141 206l-66 -70v-136h-150v570h-127v-570h-152v570h-157v137h457q15 0 40 3z" />
    <glyph glyph-name="Rufiyaa.Maldives" unicode="&#xf112;" horiz-adv-x="883" 
d="M728 0h-149q-69 0 -119.5 22.5t-93.5 78.5l-114 149h-37v-250h-145v707h217q119 0 192 -57.5t73 -158.5q0 -157 -137 -216l65 -86q22 -28 42 -39t57 -12v398q0 88 44.5 133.5t131.5 45.5q46 0 84 -7q19 -4 23.5 -9t4.5 -24v-79q-45 10 -75 10q-32 0 -49.5 -19.5
t-17.5 -53.5v-43h123l-15 -86q-4 -20 -13.5 -26.5t-28.5 -6.5h-63v-371zM215 381h75q54 0 85.5 26.5t31.5 74.5q0 45 -33 69.5t-92 24.5h-67v-195z" />
    <glyph glyph-name="zero.tab" unicode="&#xf170;" 
d="M299 -12q-139 0 -214.5 100.5t-75.5 264.5q0 163 76.5 264.5t215.5 101.5t215 -100.5t76 -263.5q0 -164 -76.5 -265.5t-216.5 -101.5zM301 124q69 0 102.5 63t33.5 166q0 102 -34.5 166t-103.5 64q-67 0 -101 -63t-34 -165q0 -103 34 -167t103 -64z" />
    <glyph glyph-name="one.tab" unicode="&#xf173;" 
d="M235 559l-92 -20q-36 -8 -46 22l-27 89l204 64h111v-579h152v-135h-462v135h160v424z" />
    <glyph glyph-name="two.tab" unicode="&#xf174;" 
d="M565 131l-17 -98q-4 -20 -13.5 -26.5t-28.5 -6.5h-469v117l252 210q61 50 85 86t24 75q0 43 -28 68.5t-73 25.5q-42 0 -79 -23.5t-79 -76.5l-105 83q57 79 119.5 116.5t155.5 37.5q109 0 176.5 -61t67.5 -156q0 -79 -38.5 -138t-125.5 -128l-137 -105h313z" />
    <glyph glyph-name="three.tab" unicode="&#xf175;" 
d="M305 -12q-78 0 -151.5 30.5t-127.5 80.5l80 102q94 -78 194 -78q52 0 85 28t33 73t-37 73t-98 28q-37 0 -74 -5l-32 87l170 165h-264v135h465v-112l-179 -171q88 -11 143 -63t55 -140q0 -106 -73 -169.5t-189 -63.5z" />
    <glyph glyph-name="four.tab" unicode="&#xf176;" 
d="M176 264h172v234zM496 147v-147h-148v147h-332v117l333 448h147v-446h108l-15 -86q-4 -20 -13.5 -26.5t-28.5 -6.5h-51z" />
    <glyph glyph-name="five.tab" unicode="&#xf177;" 
d="M308 -12q-78 0 -150 30.5t-126 80.5l80 102q95 -78 191 -78q52 0 85 30t33 77t-35.5 76.5t-91.5 29.5t-123 -37l-92 54l19 354h442v-135h-319l-9 -145q59 27 120 27q103 0 171 -58.5t68 -169.5q0 -107 -74 -172.5t-189 -65.5z" />
    <glyph glyph-name="six.tab" unicode="&#xf178;" 
d="M313 -12q-133 0 -211.5 85.5t-78.5 261.5q0 172 81 278t231 106q122 0 224 -77l-70 -105q-73 51 -153 51q-73 0 -114.5 -54.5t-43.5 -148.5q59 72 166 72q98 0 165.5 -59.5t67.5 -160.5q0 -112 -75.5 -180.5t-188.5 -68.5zM306 111q55 0 88 33t33 84q0 49 -33 81t-88 32
q-54 0 -88.5 -33.5t-34.5 -78.5q0 -51 34.5 -84.5t88.5 -33.5z" />
    <glyph glyph-name="seven.tab" unicode="&#xf179;" 
d="M78 0l314 572h-359v135h533v-116l-318 -591h-170z" />
    <glyph glyph-name="eight.tab" unicode="&#xf17b;" 
d="M300 -12q-123 0 -203 57.5t-80 147.5q0 119 130 174q-105 54 -105 157q0 84 73 139.5t185 55.5t185 -55.5t73 -138.5q0 -104 -105 -158q130 -59 130 -172q0 -93 -79.5 -150t-203.5 -57zM300 411q49 0 81 27t32 71q0 38 -32 64.5t-81 26.5t-81 -26t-32 -65
q0 -43 31.5 -70.5t81.5 -27.5zM300 107q61 0 96.5 28.5t35.5 70.5q0 43 -37.5 70.5t-94.5 27.5q-56 0 -93.5 -27t-37.5 -70t35 -71.5t96 -28.5z" />
    <glyph glyph-name="nine.tab" unicode="&#xf17c;" 
d="M267 -12q-131 0 -227 74l70 107q33 -25 78 -38.5t78 -11.5q74 4 117 58.5t39 137.5q-56 -79 -165 -79q-104 0 -169.5 63.5t-65.5 165.5q0 112 75 183t193 71q133 0 210 -85t77 -266t-79 -280.5t-231 -99.5zM294 353q52 0 88 35t36 86q0 53 -34.5 87t-90.5 34t-88.5 -34.5
t-32.5 -87.5q0 -51 33.5 -85.5t88.5 -34.5z" />
    <glyph glyph-name="zero.os" unicode="&#xf190;" horiz-adv-x="628" 
d="M314 -12q-117 0 -192 80t-75 194q0 113 76 194.5t192 81.5q117 0 191.5 -81t74.5 -195q0 -113 -75 -193.5t-192 -80.5zM314 127q52 0 86.5 40t34.5 95q0 56 -34 96t-86 40t-87 -40.5t-35 -95.5q0 -56 34 -95.5t87 -39.5z" />
    <glyph glyph-name="one.os" unicode="&#xf193;" horiz-adv-x="465" 
d="M190 379l-92 -20q-36 -8 -46 22l-27 83l204 64h111v-528h-150v379z" />
    <glyph glyph-name="two.os" unicode="&#xf194;" horiz-adv-x="638" 
d="M592 123l-16 -90q-4 -20 -13.5 -26.5t-28.5 -6.5h-460v98l224 150q4 2 25.5 16t31.5 21.5t25 20.5t22 26t7 27q0 24 -20 38t-57 14q-86 0 -184 -90l-87 91q57 57 120.5 91.5t147.5 34.5q107 0 166 -39q74 -48 74 -140q0 -113 -179 -209l-50 -27h252z" />
    <glyph glyph-name="three.os" unicode="&#xf195;" horiz-adv-x="645" 
d="M588 52q0 -106 -73 -169t-189 -63q-78 0 -150 30.5t-126 80.5l80 102q94 -78 191 -78q52 0 84 26t32 71q0 44 -35.5 69.5t-97.5 25.5q-32 0 -74 -7l-32 87l172 162h-268v133h469v-106l-183 -172q88 -7 144 -55.5t56 -136.5z" />
    <glyph glyph-name="four.os" unicode="&#xf196;" horiz-adv-x="701" 
d="M222 117h179v217zM549 0v-173h-148v173h-344v117l345 411h147v-409h108l-15 -86q-4 -20 -13.5 -26.5t-28.5 -6.5h-51z" />
    <glyph glyph-name="five.os" unicode="&#xf197;" horiz-adv-x="650" 
d="M594 58q0 -108 -74 -173t-190 -65q-78 0 -150 30.5t-126 80.5l80 102q94 -78 191 -78q52 0 84 29t32 76q0 46 -35 73.5t-92 27.5q-49 0 -121 -40l-94 57l21 344h437v-135h-314l-9 -135q59 27 118 27q105 0 173.5 -55.5t68.5 -165.5z" />
    <glyph glyph-name="six.os" unicode="&#xf198;" horiz-adv-x="668" 
d="M347 -12q-133 0 -211.5 85.5t-78.5 261.5q0 172 81 278t231 106q122 0 224 -77l-70 -105q-73 51 -153 51q-73 0 -114.5 -54.5t-43.5 -148.5q59 72 166 72q98 0 165.5 -59.5t67.5 -160.5q0 -112 -75.5 -180.5t-188.5 -68.5zM340 111q55 0 88 33t33 84q0 49 -33 81t-88 32
q-54 0 -88.5 -33.5t-34.5 -78.5q0 -51 34.5 -84.5t88.5 -33.5z" />
    <glyph glyph-name="seven.os" unicode="&#xf199;" horiz-adv-x="587" 
d="M89 -180l301 567h-343v135h513v-116l-302 -586h-169z" />
    <glyph glyph-name="eight.os" unicode="&#xf19b;" horiz-adv-x="668" 
d="M334 -12q-121 0 -199 57.5t-78 147.5q0 119 127 174q-103 54 -103 157q0 84 71.5 139.5t181.5 55.5q109 0 181 -55.5t72 -138.5q0 -104 -103 -158q127 -58 127 -172q0 -93 -77.5 -150t-199.5 -57zM334 412q49 0 80 26.5t31 70.5q0 38 -31 64.5t-80 26.5q-48 0 -79.5 -26
t-31.5 -65q0 -43 31 -70t80 -27zM334 107q59 0 94 28.5t35 70.5q0 43 -36.5 70t-92.5 27t-92 -26.5t-36 -69.5t34 -71.5t94 -28.5z" />
    <glyph glyph-name="nine.os" unicode="&#xf19c;" horiz-adv-x="666" 
d="M298 -180q-131 0 -227 74l70 107q33 -25 78 -38.5t78 -11.5q72 0 114 54t42 138q-65 -81 -164 -81q-104 0 -170 62.5t-66 163.5q0 111 75 180.5t193 69.5q287 0 287 -342q0 -173 -81 -274.5t-229 -101.5zM325 180q54 0 89.5 32.5t35.5 83.5q0 52 -34.5 85t-91.5 33
q-56 0 -88.5 -33t-32.5 -85q0 -51 33.5 -83.5t88.5 -32.5z" />
    <glyph glyph-name="zero.ostab" unicode="&#xf1b0;" 
d="M300 -12q-117 0 -192 80t-75 195q0 113 75.5 194t192.5 81t191.5 -80.5t74.5 -194.5q0 -113 -75.5 -194t-191.5 -81zM300 127q52 0 86.5 40.5t34.5 95.5t-34 95t-86 40t-87 -40t-35 -95q0 -56 34 -96t87 -40z" />
    <glyph glyph-name="one.ostab" unicode="&#xf1b3;" 
d="M306 379l-92 -20q-36 -8 -46 22l-27 83l204 64h111v-398h136v-130h-444v130h158v249z" />
    <glyph glyph-name="two.ostab" unicode="&#xf1b4;" 
d="M564 123l-16 -90q-4 -20 -13.5 -26.5t-28.5 -6.5h-460v98l224 150q4 2 25.5 16t31.5 21.5t25 20.5t22 26t7 27q0 24 -20 38t-57 14q-86 0 -184 -90l-87 91q57 57 120.5 91.5t147.5 34.5q107 0 166 -39q74 -48 74 -140q0 -113 -179 -209l-50 -27h252z" />
    <glyph glyph-name="three.ostab" unicode="&#xf1b5;" 
d="M568 52q0 -106 -73 -169t-189 -63q-78 0 -150 30.5t-126 80.5l80 102q94 -78 191 -78q52 0 84 26t32 71q0 44 -35.5 69.5t-97.5 25.5q-32 0 -74 -7l-32 87l172 162h-268v133h469v-106l-183 -172q88 -7 144 -55.5t56 -136.5z" />
    <glyph glyph-name="four.ostab" unicode="&#xf1b6;" 
d="M163 117h179v217zM490 0v-173h-148v173h-344v117l345 411h147v-409h108l-15 -86q-4 -20 -13.5 -26.5t-28.5 -6.5h-51z" />
    <glyph glyph-name="five.ostab" unicode="&#xf1b7;" 
d="M569 58q0 -108 -74 -173t-190 -65q-78 0 -150 30.5t-126 80.5l80 102q95 -78 191 -78q52 0 84 29t32 76q0 46 -35 73.5t-92 27.5q-49 0 -121 -40l-94 57l21 344h437v-135h-314l-9 -135q59 27 118 27q105 0 173.5 -55.5t68.5 -165.5z" />
    <glyph glyph-name="six.ostab" unicode="&#xf1b8;" 
d="M313 -12q-133 0 -211.5 85.5t-78.5 261.5q0 172 81 278t231 106q122 0 224 -77l-70 -105q-73 51 -153 51q-73 0 -114.5 -54.5t-43.5 -148.5q59 72 166 72q98 0 165.5 -59.5t67.5 -160.5q0 -112 -75.5 -180.5t-188.5 -68.5zM306 111q55 0 88 33t33 84q0 49 -33 81t-88 32
q-54 0 -88.5 -33.5t-34.5 -78.5q0 -51 34.5 -84.5t88.5 -33.5z" />
    <glyph glyph-name="seven.ostab" unicode="&#xf1b9;" 
d="M85 -180l301 567h-343v135h513v-116l-302 -586h-169z" />
    <glyph glyph-name="eight.ostab" unicode="&#xf1bb;" 
d="M300 -12q-121 0 -199 57.5t-78 147.5q0 119 127 174q-103 54 -103 157q0 84 71.5 139.5t181.5 55.5q109 0 181 -55.5t72 -138.5q0 -104 -103 -158q127 -58 127 -172q0 -93 -77.5 -150t-199.5 -57zM300 412q49 0 80 26.5t31 70.5q0 38 -31 64.5t-80 26.5q-48 0 -79.5 -26
t-31.5 -65q0 -43 31 -70t80 -27zM300 107q59 0 94 28.5t35 70.5q0 43 -36.5 70t-92.5 27t-92 -26.5t-36 -69.5t34 -71.5t94 -28.5z" />
    <glyph glyph-name="nine.ostab" unicode="&#xf1bc;" 
d="M267 -180q-131 0 -227 74l70 107q33 -25 78 -38.5t78 -11.5q72 0 114 54t42 138q-65 -81 -164 -81q-104 0 -170 62.5t-66 163.5q0 111 75 180.5t193 69.5q287 0 287 -342q0 -173 -81 -274.5t-229 -101.5zM294 180q54 0 89.5 32.5t35.5 83.5q0 52 -34.5 85t-91.5 33
q-56 0 -88.5 -33t-32.5 -85q0 -51 33.5 -83.5t88.5 -32.5z" />
    <glyph glyph-name="A.sc" unicode="&#xf270;" horiz-adv-x="730" 
d="M532 0l-52 128h-241l-54 -128h-157l256 571q10 24 42 24h103l266 -595h-163zM361 414l-70 -160h135z" />
    <glyph glyph-name="B.sc" unicode="&#xf271;" horiz-adv-x="625" 
d="M55 0v591h293q96 0 151 -40.5t55 -112.5q0 -88 -76 -128q103 -40 103 -141q0 -79 -61 -124t-166 -45h-299zM204 360h107q92 0 92 54q0 48 -85 48h-114v-102zM204 129h134q90 0 90 53q0 52 -99 52h-125v-105z" />
    <glyph glyph-name="C.sc" unicode="&#xf272;" horiz-adv-x="651" 
d="M373 124q91 0 211 71v-111q0 -24 -4 -30t-26 -18q-88 -46 -190 -46q-139 0 -232 80.5t-93 224.5q0 157 117 246q86 60 202 60q71 0 128 -19t119 -64l-84 -107q-74 58 -162 58q-74 0 -121 -50t-47 -124q0 -81 52.5 -126t129.5 -45z" />
    <glyph glyph-name="D.sc" unicode="&#xf273;" horiz-adv-x="664" 
d="M55 0v591h227q153 0 243.5 -81.5t90.5 -211.5q0 -131 -91.5 -214.5t-244.5 -83.5h-225zM204 129h80q82 0 131 45.5t49 120.5q0 74 -48.5 120.5t-131.5 46.5h-80v-333z" />
    <glyph glyph-name="E.sc" unicode="&#xf274;" horiz-adv-x="575" 
d="M55 0v591h474v-129h-325v-102h292v-126h-292v-105h329v-129h-478z" />
    <glyph glyph-name="F.sc" unicode="&#xf275;" horiz-adv-x="560" 
d="M55 0v591h471v-129h-322v-117h275v-126h-275v-219h-149z" />
    <glyph glyph-name="G.sc" unicode="&#xf276;" horiz-adv-x="673" 
d="M358 -10q-141 0 -231 86t-90 219q0 140 93.5 223t225.5 83q129 0 245 -88l-87 -102q-76 58 -152 58q-74 0 -124.5 -47t-50.5 -128q0 -76 49.5 -124.5t126.5 -48.5q66 0 110 30v68h-139v126h282v-232q0 -32 -27 -51q-101 -72 -231 -72z" />
    <glyph glyph-name="H.sc" unicode="&#xf277;" horiz-adv-x="645" 
d="M55 0v591h149v-246h232v246h149v-591h-149v219h-232v-219h-149z" />
    <glyph glyph-name="I.sc" unicode="&#xf278;" horiz-adv-x="295" 
d="M71 0v591h151v-591h-151z" />
    <glyph glyph-name="J.sc" unicode="&#xf279;" horiz-adv-x="514" 
d="M239 -10q-133 0 -212 108l95 87q52 -64 111 -64q33 0 53.5 23.5t20.5 67.5v379h149v-379q0 -106 -59 -167q-60 -55 -158 -55z" />
    <glyph glyph-name="K.sc" unicode="&#xf27a;" horiz-adv-x="645" 
d="M55 0v591h149v-251l206 224q24 27 62 27h147l-243 -260l259 -331h-191l-171 227l-69 -74v-153h-149z" />
    <glyph glyph-name="L.sc" unicode="&#xf27b;" horiz-adv-x="544" 
d="M522 133l-16 -100q-4 -20 -13.5 -26.5t-28.5 -6.5h-409v591h149v-458h318z" />
    <glyph glyph-name="M.sc" unicode="&#xf27c;" horiz-adv-x="736" 
d="M55 0v591h150l160 -245l161 245h148v-591h-149l2 352l-162 -236l-164 236l3 -352h-149z" />
    <glyph glyph-name="N.sc" unicode="&#xf27d;" horiz-adv-x="667" 
d="M55 0v591h133l272 -339q0 55 -1 169.5t-1 169.5h149v-591h-127l-279 351q0 -58 1 -176t1 -175h-148z" />
    <glyph glyph-name="O.sc" unicode="&#xf27e;" horiz-adv-x="722" 
d="M356 -10q-138 0 -228 88t-90 217q0 127 91 216.5t229 89.5q137 0 227.5 -89t90.5 -215q0 -128 -91 -217.5t-229 -89.5zM358 123q73 0 119.5 50t46.5 121q0 72 -47.5 123.5t-120.5 51.5t-120 -50t-47 -122q0 -73 47.5 -123.5t121.5 -50.5z" />
    <glyph glyph-name="P.sc" unicode="&#xf27f;" horiz-adv-x="584" 
d="M55 0v591h251q112 0 178 -54.5t66 -151.5q0 -99 -71.5 -156t-182.5 -57h-92v-172h-149zM204 297h89q50 0 79.5 23t29.5 61q0 40 -28.5 60.5t-78.5 20.5h-91v-165z" />
    <glyph glyph-name="Q.sc" unicode="&#xf280;" horiz-adv-x="765" 
d="M356 -10q-138 0 -228 88t-90 217q0 127 91 216.5t229 89.5q137 0 227.5 -89t90.5 -215q0 -107 -69 -194q118 -105 127 -113h-191l-36 33q-63 -33 -151 -33zM358 122q18 0 37 3q-85 78 -122 110h184l43 -38q25 48 25 97q0 72 -48 123.5t-121 51.5q-72 0 -119.5 -50
t-47.5 -122q0 -73 48 -124t121 -51z" />
    <glyph glyph-name="R.sc" unicode="&#xf281;" horiz-adv-x="631" 
d="M55 0v591h269q116 0 179.5 -53t63.5 -145q0 -64 -34.5 -110t-94.5 -68q28 -36 88 -110.5t84 -104.5h-180l-147 191h-79v-191h-149zM204 310h113q46 0 72.5 20.5t26.5 56.5t-25.5 55.5t-73.5 19.5h-113v-152z" />
    <glyph glyph-name="S.sc" unicode="&#xf282;" 
d="M311 -10q-160 0 -276 101l85 101q91 -75 196 -75q37 0 58 13.5t21 35.5q0 43 -110 65q-107 24 -163.5 65t-56.5 121t62.5 132t161.5 52q72 0 127.5 -19t115.5 -63l-59 -80q-9 -12 -20.5 -13.5t-14.5 0t-14 8.5q-70 41 -137 41q-33 0 -52.5 -13.5t-19.5 -32.5
q0 -16 9.5 -27.5t29 -19.5t35 -12t39.5 -9q110 -23 163.5 -64.5t53.5 -118.5q0 -88 -64 -138t-170 -50z" />
    <glyph glyph-name="T.sc" unicode="&#xf283;" horiz-adv-x="576" 
d="M498 460h-141v-460h-147v460h-181v131h527l-16 -98q-4 -20 -13.5 -26.5t-28.5 -6.5z" />
    <glyph glyph-name="U.sc" unicode="&#xf284;" horiz-adv-x="649" 
d="M320 -10q-127 0 -198.5 67.5t-71.5 198.5v335h150v-332q0 -66 32.5 -101t89.5 -35t89.5 34t32.5 98v336h148v-331q0 -135 -72 -202.5t-200 -67.5z" />
    <glyph glyph-name="V.sc" unicode="&#xf285;" horiz-adv-x="695" 
d="M278 -5l-250 596h166l153 -383l152 383h163l-239 -565q-13 -31 -47 -31h-98z" />
    <glyph glyph-name="W.sc" unicode="&#xf286;" horiz-adv-x="984" 
d="M323 -5h-85q-37 104 -109 309t-101 287h158l120 -354q21 60 61.5 181t59.5 176h125l122 -357l118 354h155l-196 -564q-6 -19 -16.5 -25.5t-29.5 -6.5h-91l-128 348l-114 -316q-4 -11 -7.5 -16.5t-14 -10.5t-27.5 -5z" />
    <glyph glyph-name="X.sc" unicode="&#xf287;" horiz-adv-x="687" 
d="M24 0l226 303l-218 288h176l133 -179l113 151q21 28 62 28h132l-218 -288q75 -102 227 -303h-177l-143 190q-134 -180 -142 -190h-171z" />
    <glyph glyph-name="Y.sc" unicode="&#xf288;" horiz-adv-x="690" 
d="M268 0v225q-29 43 -114 172t-129 194h172l146 -227l127 197l4 7q4 6 6.5 8.5t8 6.5t14 6t19.5 2h138l-243 -364v-227h-149z" />
    <glyph glyph-name="Z.sc" unicode="&#xf289;" horiz-adv-x="626" 
d="M48 0v104l309 358h-315l22 96q8 33 40 33h465v-105l-309 -357h320l-22 -96q-4 -18 -13.5 -25.5t-29.5 -7.5h-467z" />
    <glyph glyph-name="AE.sc" unicode="&#xf28a;" horiz-adv-x="878" 
d="M430 591h401v-129h-246v-102h213v-126h-213v-105h250v-129h-396v128h-177l-80 -128h-167l368 566q17 25 47 25zM439 419l-100 -165h100v165z" />
    <glyph glyph-name="OE.sc" unicode="&#xf28b;" horiz-adv-x="895" 
d="M447 0v20q-54 -30 -119 -30q-121 0 -193 87.5t-72 217.5q0 129 73 217.5t194 88.5q65 0 117 -31v21h400v-129h-254v-102h223v-126h-223v-105h259v-129h-405zM330 120q56 0 87 49t31 126q0 75 -32 125.5t-87 50.5q-54 0 -85 -49.5t-31 -124.5q0 -77 31 -127t86 -50z" />
    <glyph glyph-name="Oslash.sc" unicode="&#xf28c;" horiz-adv-x="722" 
d="M356 -10q-80 0 -148 31q-4 -5 -11.5 -15.5t-11.5 -15.5h-104l57 79q-100 87 -100 226q0 127 91 216.5t229 89.5q81 0 146 -31q4 5 11.5 16.5t10.5 14.5h104l-57 -79q103 -90 103 -225q0 -128 -91 -217.5t-229 -89.5zM358 122q73 0 119.5 50.5t46.5 121.5q0 62 -36 111
l-197 -269q33 -14 67 -14zM189 297q0 -65 36 -112q29 41 95 130t102 140q-33 14 -66 14q-73 0 -120 -50t-47 -122z" />
    <glyph glyph-name="germandbls.sc" unicode="&#xf28d;" horiz-adv-x="1109" 
d="M311 -10q-160 0 -276 101l85 101q91 -75 196 -75q37 0 58 13.5t21 35.5q0 43 -110 65q-107 24 -163.5 65t-56.5 121t62.5 132t161.5 52q72 0 127.5 -19t115.5 -63l-59 -80q-9 -12 -20.5 -13.5t-14.5 0t-14 8.5q-70 41 -137 41q-33 0 -52.5 -13.5t-19.5 -32.5
q0 -16 9.5 -27.5t29 -19.5t35 -12t39.5 -9q110 -23 163.5 -64.5t53.5 -118.5q0 -88 -64 -138t-170 -50zM820 -10q-160 0 -276 101l85 101q91 -75 196 -75q37 0 58 13.5t21 35.5q0 43 -110 65q-107 24 -163.5 65t-56.5 121t62.5 132t161.5 52q72 0 127.5 -19t115.5 -63
l-59 -80q-9 -12 -20.5 -13.5t-14.5 0t-14 8.5q-70 41 -137 41q-33 0 -52.5 -13.5t-19.5 -32.5q0 -16 9.5 -27.5t29 -19.5t35 -12t39.5 -9q110 -23 163.5 -64.5t53.5 -118.5q0 -88 -64 -138t-170 -50z" />
    <glyph glyph-name="Eth.sc" unicode="&#xf28e;" horiz-adv-x="724" 
d="M112 0v234h-100l31 126h69v231h227q154 0 245 -81.5t91 -211.5q0 -131 -92 -214.5t-245 -83.5h-226zM260 129h81q82 0 131.5 45.5t49.5 120.5q0 74 -49.5 120.5t-131.5 46.5h-81v-102h139l-28 -126h-111v-105z" />
    <glyph glyph-name="Thorn.sc" unicode="&#xf28f;" horiz-adv-x="588" 
d="M204 215h92q49 0 78.5 23t29.5 61q0 39 -28.5 60t-78.5 21h-93v-165zM204 604v-101h102q114 0 181 -53.5t67 -149.5q0 -100 -71.5 -154t-185.5 -54h-93v-92h-149v536q0 34 38 43z" />
    <glyph glyph-name="exclam.sc" unicode="&#xf2a0;" horiz-adv-x="290" 
d="M120 177l-36 310l-5 104h165l-6 -104l-36 -310h-82zM86 62q0 31 21.5 51.5t53.5 20.5t53 -20.5t21 -51.5t-21 -51.5t-53 -20.5t-53.5 20.5t-21.5 51.5z" />
    <glyph glyph-name="ampersand.sc" unicode="&#xf2a1;" horiz-adv-x="680" 
d="M483 -3l-63 59q-81 -66 -180 -66q-93 0 -152 47t-59 127q0 111 122 167q-40 60 -40 112q0 66 50.5 112t132.5 46q77 0 125.5 -44t48.5 -107q0 -102 -115 -151l70 -71q37 60 55 99l107 -51q-38 -81 -76 -129l151 -150h-177zM257 105q38 0 81 33q-19 20 -56 56t-49 48
q-55 -27 -55 -72q0 -29 22 -47t57 -18zM242 441q0 -31 33 -70q67 27 67 72q0 22 -13.5 35.5t-35.5 13.5t-36.5 -14.5t-14.5 -36.5z" />
    <glyph glyph-name="question.sc" unicode="&#xf2a2;" horiz-adv-x="504" 
d="M175 172l-15 166q76 5 111.5 22t35.5 53q0 25 -20 41t-54 16q-66 0 -132 -59l-83 86q94 104 224 104q94 0 152.5 -49.5t58.5 -130.5q0 -145 -168 -174l-9 -75h-101zM149 62q0 31 22 51.5t54 20.5q30 0 52 -21t22 -51t-22 -51t-52 -21q-32 0 -54 20.5t-22 51.5z" />
    <glyph glyph-name="parenleft.sc" unicode="&#xf2a3;" horiz-adv-x="351" 
d="M299 656l65 -95q-174 -125 -174 -297q0 -91 42.5 -162.5t131.5 -134.5l-65 -96q-126 71 -189.5 166t-63.5 227q0 248 253 392z" />
    <glyph glyph-name="parenright.sc" unicode="&#xf2a4;" horiz-adv-x="351" 
d="M-16 561l65 95q253 -144 253 -392q0 -132 -63.5 -227t-189.5 -166l-65 96q89 63 131.5 134.5t42.5 162.5q0 172 -174 297z" />
    <glyph glyph-name="bracketleft.sc" unicode="&#xf2a5;" horiz-adv-x="324" 
d="M45 -116v762h286v-104h-153v-554h153v-104h-286z" />
    <glyph glyph-name="bracketright.sc" unicode="&#xf2a6;" horiz-adv-x="384" 
d="M336 646v-762h-286v104h153v554h-153v104h286z" />
    <glyph glyph-name="braceleft.sc" unicode="&#xf2a7;" horiz-adv-x="390" 
d="M292 152v-82q0 -41 17.5 -62.5t73.5 -29.5v-97q-125 7 -175.5 50.5t-50.5 120.5v84q0 41 -20.5 58.5t-67.5 17.5h-24v103h24q47 0 67.5 17.5t20.5 58.5v88q0 76 50.5 119.5t175.5 50.5v-97q-56 -8 -73.5 -29.5t-17.5 -62.5v-84q0 -80 -70 -111q70 -30 70 -113z" />
    <glyph glyph-name="braceright.sc" unicode="&#xf2a8;" horiz-adv-x="390" 
d="M98 70v82q0 83 70 113q-70 31 -70 111v84q0 41 -17.5 62.5t-73.5 29.5v97q125 -7 175.5 -50.5t50.5 -119.5v-88q0 -41 20.5 -58.5t67.5 -17.5h24v-103h-24q-47 0 -67.5 -17.5t-20.5 -58.5v-84q0 -77 -50.5 -120.5t-175.5 -50.5v97q56 8 73.5 29.5t17.5 62.5z" />
    <glyph glyph-name="slash.sc" unicode="&#xf2a9;" horiz-adv-x="524" 
d="M0 -114l392 785h127l-394 -785h-125z" />
    <glyph glyph-name="exclamdown.sc" unicode="&#xf2aa;" horiz-adv-x="290" 
d="M45 104l36 310h82l36 -310l6 -104h-165zM47 529q0 31 21.5 51.5t53.5 20.5t53 -20.5t21 -51.5t-21 -51.5t-53 -20.5t-53.5 20.5t-21.5 51.5z" />
    <glyph glyph-name="questiondown.sc" unicode="&#xf2ab;" horiz-adv-x="505" 
d="M324 419l15 -166q-76 -5 -111.5 -22t-35.5 -53q0 -25 20 -41t54 -16q67 0 133 59l82 -86q-94 -104 -224 -104q-94 0 -152.5 49.5t-58.5 130.5q0 145 168 174l9 75h101zM350 529q0 -31 -22 -51.5t-54 -20.5q-30 0 -52 21t-22 51t22 51t52 21q32 0 54 -20.5t22 -51.5z" />
    <glyph glyph-name="registered.alt1" unicode="&#xf421;" horiz-adv-x="910" 
d="M305 175v380h166q82 0 124 -42q32 -32 32 -82q0 -88 -83 -118l94 -138h-106l-80 124h-57v-124h-90zM395 372h75q66 0 66 54t-68 54h-73v-108zM90 353q0 151 107 258t258 107t258 -107t107 -258t-107 -258t-258 -107t-258 107t-107 258zM145 353q0 -128 91 -219t219 -91
t219 91t91 219t-91 219t-219 91t-219 -91t-91 -219z" />
    <glyph glyph-name="germandbls.alt1" unicode="&#xf43a;" horiz-adv-x="659" 
d="M266 -1l20 114q20 -4 46 -4q53 0 92 28.5t39 75.5q0 44 -38.5 73t-101.5 34v87q98 38 98 123q0 41 -23.5 64.5t-61.5 23.5q-43 0 -68.5 -31t-25.5 -91v-496h-149v403h-61v119h62q8 107 72 165.5t173 58.5q104 0 166 -56.5t62 -143.5q0 -122 -109 -168q64 -16 109 -62.5
t45 -117.5v-2q0 -94 -71 -151t-181 -57q-45 0 -94 11z" />
    <glyph glyph-name="uniF8FF" unicode="&#xf8ff;" horiz-adv-x="1364" 
d="M1348 308h1l-1 -6h-3l-1 -12h-2v-4q-5 -5 -8 -5v2l-8 -3l-4 -5q-4 1 -12 1h-5v-1h-9l-13 -4l-3 -15q-5 -5 -13 -17h-3v-7l-9 -8l-7 -1l-11 -9h-11l-3 -3h-3v-2l-19 3l-2 -3h-2l-3 -3l-5 -17l-4 -3v-2h-6l-6 -7l-2 -6l-10 -2q-11 -16 -24 -16q-2 0 -8 2l-4 4l-6 1l-7 7h-4
v2l-8 8v6l-14 13v13l-11 -2q-10 -27 -28 -33v-2q-8 -8 -16 -12h-2v-1h-5v1h-8v2h-3v1h-1q-1 0 -4.5 1t-4.5 1l-4 -1l-8 3l-6 4q-1 2 -4 6t-4 6v1q-7 3 -7 19l1 1v7h-1v6l-5 10l-5 -5l-7 1l-3 -4q0 -6 -2 -12l-4 -4l-4 -16l-12 -9q-2 -3 -2 -9h-1v-2q-14 -14 -14 -32
q0 -2 -4 -6t-4 -5h-3l-9 -5v-7l-12 -9l-4 3l-3 -6h-2q-1 0 -5 -0.5t-6 -0.5h-3v-1h-5l-3 2v-1h-6l-13 13h-2v6l-9 7q-4 11 -4 15q0 6 1 13l3 2l1 7l-4 1v7h3v7h1v4l-7 5l-4 -8v-6l-3 -2l-3 -3v-4h1l-1 -7l-5 -6v-5l-9 -10q0 -20 -5 -32h-1q-9 -24 -15 -30v-6h-1
q-5 -14 -6 -17l-2 -3v-5q-6 -3 -9.5 -9t-7 -17t-5.5 -15l-7 -1l-2 -10q-6 -7 -13.5 -12.5t-17 -11t-13.5 -8.5v-1q-5 -2 -16 -2v-1q-13 0 -22 12l-4 3q-3 6 -5 6l-9 2l-3 3q-2 4 -2 14h-1v3q-5 8 -5 30h2v3q0 2 0.5 6t0.5 6v2h2v3q0 4 1.5 14t1.5 15v23h1v4h1l-1 7l1 1
q0 7 2 11v8h1l6 11h1v7h1v5l7 10v8h-2v6h2v10q0 1 1 6.5t1 7.5v1h2v2q3 3 3 7v6h-2q-13 -21 -13 -25l-4 -3q-8 -21 -14 -25v-8h-2q-8 -11 -8 -19v-3l-4 -9h-1q-2 -4 -4 -18v-7h-2v-7l-3 -4l-9 -2q-10 -28 -20 -41v-5l-5 -9l-12 -6l-1 -1l-5 -7h-9l-4 -3q-2 -2 -5 -2l-2 1v3
l-13 -5l-8 2l-3 4l-6 1v1l-6 1l-4 6l-3 2l-2 4l-12 3v10h-2v4h-1l-3 6v8l-5 7v2q0 6 -2 10h-1v12h1v14h-1v2h1l-4 9q-2 -2 -11 -17.5t-19 -19.5q-8 -1 -19 -10h-8q-2 1 -19 12l-1 5l-1 3h-3v9h-1v4h-2v8l-10 10l1 3l-8 9l-8 -2q-4 -8 -14 -15l-11 -15l-9 3l-8 -4l-1 -1h-1
l-1 -1q-5 0 -13 6t-10 7v1l-7 4q-3 6 -3 14h-1v10l-7 10v4h-2q2 4 2 8l2 5v16l1 1v8h-1v6l-2 3h-4l-4 -6q-4 -2 -12.5 -2.5t-11.5 -1.5h-3l-10 7l-1 5l-9 11h-3l-8 -16h-2l-4 -5l-4 -1v-1l-3 -6q-6 -3 -18 -18l-11 -3h-9q-21 13 -22 14h-4l-5 8v12q-11 11 -12 21v8h-1
q0 10 -2 13h-1v5q-9 7 -13 12l-5 -5l-10 1v1h-5l-12 -6l-6 4h-7l-7 5v8h-2l-3 4l2 4l-6 7v3l3 4l1 8l6 10v2h2l5 15l4 7l5 2h9v2h5l1 1l2 4l9 2l7 10l2 6l3 6l10 5v8q9 18 28 18v2h6v-2h11v-2h5q5 -2 15 -15q4 0 7 1.5t4.5 3t4.5 5t5 5.5l2 6l3 1q0 5 5 8l2 6q3 3 8.5 10
t6.5 9l10 1v-1q3 0 23 8v3h7v-3h7l4 -5h7l4 -5h6l1 -3l11 -9l10 -3q17 32 20 45v3h2l1 6l3 5l3 3q2 8 11.5 21t10.5 19l11 15q3 2 8 6.5t7.5 6.5t8.5 3.5t13 1.5l9 -5q16 -11 20 -13l2 -5l5 -3l4 -5v-8l7 -8v-7h-1v-4h-1l-3 -16h3q6 17 18 24v2l13 6v2l13 2l4 -1v-1l9 -2
l8 -9h2q3 -5 3 -11v-4l2 -2v-5h4l5 10h2l7 11q0 2 1 6.5t1.5 8t0.5 6.5l1 1v11h3q1 5 16 31.5t20 31.5q1 3 4 9.5t5 11.5t3 9h2q0 11 7 17v1h6l1 2q13 11 21 22h17v1h4q6 0 10 -1l9 -13h6l3 -3l7 -13h1v-5q0 -11 5 -41h1v-2l-4 -5q-10 -30 -10 -42v-3l-3 -6q0 -2 -1 -6
t-1 -5v-1h-1q0 -8 -3 -14h-1v-5h-2q0 -8 -5.5 -25t-5.5 -25l7 1l9 13v5l7 11v5q4 9 13 18v2q0 7 3 12l2 3q8 31 38 72l5 1l2 9h2l4 7l3 2l7 13q0 4 6 14h2v1q0 4 8.5 15t10.5 14q7 0 15 4v2h2l2 -1q4 0 10 2v-1h8v1h8q3 -3 15 -8.5t16 -10.5v-24h2v-4q0 -2 0.5 -8t0.5 -8
q0 -5 -0.5 -15t-0.5 -15l-2 -3q-1 -6 -1 -17h-1v-6h-2q0 -21 -10 -29v-4h-1v-10l-2 -3v-7l-3 -2q0 -4 -2 -8v-11h-1l1 -9l6 1q0 17 16 37v9h7l2 2l1 5l6 2l7 12l9 2l5 5q2 1 8 7.5t12 6.5l5 -3h9v-1q9 -2 15 -9.5t10 -9.5q1 -2 2.5 -8.5t2.5 -8.5l5 -3v-16h1v-8h-1
q-5 -18 -5 -19q0 -3 3 -15q-2 -2 -3 -7t-2 -6v-5h2v-10h-2v-6h2l2 -6l5 1q4 18 17 28l3 5h2q0 2 1 7t1 8h1q0 9 5 16.5t10 9.5l2 4q11 11 24 11v2l5 4h5l6 1v1h20q2 0 5.5 0.5t4.5 0.5l3 -5q4 -1 8 -5l1 -7q11 -6 14 -15l6 -4q0 -2 -0.5 -7t-0.5 -7v-3l4 -3v-5h1
q-1 -4 -1 -14l4 -2v2q6 11 13 13h6l7 11h3v1l9 -1v1l7 4l1 -1l11 -1q8 -5 14 -13l7 -1q2 -4 7 -7l1 -5l13 -9l4 -9v-7h1v-12q3 -3 3 -14v-13h-1v-7l12 9l1 5h2l2 6l6 1l10 10h4l12 -1v1h8v-1q4 0 6 -2l10 -9q6 -8 6 -14v-2h2v-7l10 -7l2 -6l3 -3l6 -2v-1h7q7 -5 9 -10l5 -5
l2 -7l9 -5v-5q0 -2 -0.5 -6.5t-0.5 -5.5q0 -3 1 -4zM692 326q0 24 -11.5 38t-29.5 14q-6 0 -13 -3t-12 -7l-4 -3q-3 0 -3 6.5t-5 6.5q-10 0 -33 -9t-23 -16t3 -8.5t6 -1t6 -10t3 -33.5t-2.5 -34t-5.5 -11t-5.5 -1.5t-2.5 -8.5q0 -14 37 -14q41 0 41 14q0 5 -8 10t-8 16
q0 5 1 5t4.5 -2t8.5 -3.5t10 -1.5q19 0 32.5 14.5t13.5 42.5zM326 273q0 28 -31 28q-8 0 -19 -1.5t-15 -1.5q-14 0 -14 7q0 5 2 5q68 0 68 36q0 6 4.5 13t4.5 13q0 12 -8 12l-3 -3q-3 -3 -8.5 -5.5t-12.5 -2.5q-3 0 -14 2.5t-19 2.5q-21 0 -35 -10.5t-14 -24.5q0 -21 17 -28
q-21 -6 -21 -19q0 -12 13 -20q-13 -4 -13 -14q0 -13 14.5 -22t37.5 -9q29 0 47.5 12t18.5 30zM833 281q0 5 -4 10.5t-4 18.5q0 37 -7 52.5t-30 15.5q-8 0 -15.5 -4.5t-12 -9t-5.5 -4.5q-3 0 -3 4v41q0 12 -6 12q-17 0 -36.5 -7t-19.5 -14q0 -6 1.5 -7.5t4 -1.5t4.5 -2
t3.5 -11t1.5 -27v-16q0 -32 -3 -37q-1 -1 -4.5 -2.5t-5.5 -3.5t-2 -5q0 -14 37 -14q34 0 34 12q0 3 -4.5 12.5t-4.5 39.5q0 11 11 11t11 -21v-11q0 -11 -3.5 -19t-3.5 -12q0 -12 35 -12q31 0 31 12zM1141 364q0 12 -24 12t-24 -12q0 -3 4 -6t4 -5q0 -3 -3.5 -12.5t-9.5 -9.5
q-4 0 -8 9.5t-4 12.5l2 3q3 3 3 8q0 12 -32 12q-39 0 -39 -16q0 -5 9 -10q4 -2 10 -14l15 -34q12 -28 14 -40q0 -7 -6 -7l-4 12q-3 12 -17 12q-7 0 -13 -5.5t-6 -14.5q0 -13 9.5 -20.5t25.5 -7.5q13 0 22.5 5.5t16.5 17.5t11 22t10 29t10 29q3 12 13.5 18t10.5 12zM562 291
q0 3 -7 6.5t-7 18.5v27q0 36 -47 36q-22 0 -36 -8t-14 -18q0 -13 12 -13q9 0 17.5 10t14.5 10q8 0 8 -17v-11q-6 1 -17 1q-18 0 -30.5 -9.5t-12.5 -23.5q0 -31 36 -31q8 0 17 5t10 5l2 -3q3 -2 8 -4.5t12 -2.5q13 0 23.5 7t10.5 15zM445 353q0 25 -27 25q-7 0 -12 -4t-8 -8
l-2 -4l-1 8q-1 8 -10 8q-17 0 -33.5 -6t-16.5 -16q0 -3 5.5 -7.5t5.5 -9.5v-3q0 -18 -1.5 -27t-3 -11.5t-3.5 -2.5t-3.5 -2t-1.5 -9q0 -15 39 -15t39 14q0 5 -8.5 9.5t-8.5 24.5q0 24 4 24q-1 0 1.5 -4t8 -8t12.5 -4q11 0 18 8t7 20zM1003 291q0 13 -7 13q-2 0 -5.5 -2
t-6.5 -2q-12 0 -12 12v36q0 6 7 6h15q6 0 7.5 1t1.5 7v7q0 5 -1 6t-6 1h-22v9v7t-1 4.5t-3 3t-5 0.5q-2 0 -14.5 -5.5t-26.5 -15t-14 -17.5q0 -6 1.5 -7t9.5 -1h4v-49q0 -36 36 -36q18 0 30 6.5t12 15.5zM912 283q0 4 -4.5 9.5t-4.5 11.5v68q0 7 -8 7q-10 0 -32.5 -6
t-22.5 -16q0 -3 6 -8t6 -20v-4q0 -28 -5 -33.5t-5 -8.5q0 -14 35 -14t35 14zM1194 388q0 30 -23 30q-25 0 -25 -30q0 -18 8 -40t17 -22q8 0 15.5 20.5t7.5 41.5zM1194 291q0 10 -6.5 16.5t-16.5 6.5t-17 -6.5t-7 -16.5t7 -16.5t17 -6.5t16.5 6.5t6.5 16.5zM901 403
q0 15 -24 15q-15 0 -24.5 -6.5t-9.5 -13.5q0 -14 21 -14q16 0 26.5 5.5t10.5 13.5zM644 317q0 -21 -16 -21q-7 0 -7 14q0 38 7 38q16 0 16 -31zM276 340q0 -17 -11 -17t-11 24q0 15 8 15q14 0 14 -22zM282 260q0 -9 -21 -9q-9 0 -16.5 4.5t-7.5 9.5q0 2 2 4q9 -3 18 -3h19
q6 0 6 -6zM503 312q0 -19 -8 -19q-9 0 -9 12q0 11 12 11q5 0 5 -4zM512 12h-3h-1h4z" />
    <glyph glyph-name="uniFFFC" unicode="&#xfffc;" horiz-adv-x="936" 
d="M886 603v-133h-40v90h-92v43h132zM652 603v-43h-132v43h132zM886 366v-132h-40v132h40zM776 445v-195q0 -97 -86 -97q-32 0 -54 19l29 30q11 -9 25 -9q39 0 39 54v198h47zM416 603v-43h-132v43h132zM886 132v-132h-132v41h92v91h40zM630 242q0 -82 -111 -82h-97v285h94
q102 0 102 -75q0 -40 -35 -60q47 -15 47 -68zM182 603v-43h-91v-90h-41v133h132zM652 41v-41h-132v41h132zM398 303q0 -72 -33.5 -111t-96.5 -39q-61 0 -94 39.5t-33 110.5q0 69 33 107.5t94 38.5q63 0 96.5 -38.5t33.5 -107.5zM91 366v-132h-41v132h41zM416 41v-41h-132v41
h132zM182 41v-41h-132v132h41v-91h91zM572 366q0 40 -68 40h-36v-80h42q62 0 62 40zM583 242q0 44 -69 44h-46v-89h51q64 0 64 45zM352 303q0 109 -84 109q-79 0 -79 -109q0 -110 79 -110q84 0 84 110z" />
    <glyph glyph-name="uniFFFD" unicode="&#xfffd;" horiz-adv-x="983" 
d="M492 -136l-442 442l442 443l441 -443zM457 141h67v20q0 40 11 59.5t42 46.5q30 26 48.5 44.5t35.5 49.5t17 63q0 65 -51.5 111t-132.5 46q-80 0 -130.5 -46t-54.5 -129h72q18 118 114 118q45 0 78 -32t33 -72q0 -24 -11.5 -43t-48.5 -51q-55 -49 -72 -80t-17 -84v-21z
M451 0h80v79h-80v-79z" />
    </font>
</defs>
</svg>
