<?xml version="1.0" standalone="no"?>
<!DOCTYPE svg PUBLIC "-//W3C//DTD SVG 1.1//EN" "http://www.w3.org/Graphics/SVG/1.1/DTD/svg11.dtd" >
<svg xmlns="http://www.w3.org/2000/svg" xmlns:xlink="http://www.w3.org/1999/xlink" version="1.1">
<metadata></metadata>
<defs>
<font id="axiatabookitalic" horiz-adv-x="1198" >
<font-face units-per-em="2048" ascent="1638" descent="-410" />
<missing-glyph horiz-adv-x="614" />
<glyph unicode="&#xfb01;" horiz-adv-x="1187" d="M51 -352l228 1282h-154l25 139h153l19 105q36 198 124 274q97 82 238 82q57 0 109 -14q27 -8 32.5 -15.5t1.5 -30.5l-18 -106q-76 29 -129 29q-86 0 -135.5 -54.5t-71.5 -169.5l-16 -100h350q36 0 63 6l127 21l-190 -1096h-158l164 930h-379l-227 -1282h-156zM868 1372 q8 41 43 71t76 30t65.5 -30t16.5 -71q-8 -42 -42.5 -71t-76.5 -29q-41 0 -65 29.5t-17 70.5z" />
<glyph unicode="&#xfb02;" horiz-adv-x="1142" d="M51 -352l228 1282h-154l25 139h153l19 105q36 198 124 274q97 82 238 82q101 0 199 -43q24 -11 36 -11.5t42 11.5l114 43l-266 -1530h-160l234 1323q-38 32 -98.5 51t-104.5 19q-86 0 -135.5 -54.5t-71.5 -169.5l-16 -100h254l-25 -98q-11 -41 -49 -41h-203l-225 -1282 h-158z" />
<glyph horiz-adv-x="0" />
<glyph horiz-adv-x="0" />
<glyph horiz-adv-x="682" />
<glyph unicode="&#xd;" horiz-adv-x="614" />
<glyph unicode=" "  horiz-adv-x="614" />
<glyph unicode="&#x09;" horiz-adv-x="614" />
<glyph unicode="&#xa0;" horiz-adv-x="614" />
<glyph unicode="!" horiz-adv-x="552" d="M102 106q5 46 41 79.5t82 33.5t76.5 -33.5t26.5 -79.5q-6 -47 -41.5 -79.5t-83.5 -32.5q-46 0 -76.5 33.5t-24.5 78.5zM213 410l131 1038h199l-236 -1038h-94z" />
<glyph unicode="&#x22;" horiz-adv-x="815" d="M125 907l45 541h195l-146 -541h-94zM500 907l47 541h192l-145 -541h-94z" />
<glyph unicode="#" horiz-adv-x="1400" d="M63 367l25 141h242l135 440h-242l25 142h260l113 358h141l-111 -358h326l110 358h142l-111 -358h223l-24 -142h-242l-137 -440h244l-25 -141h-262l-115 -367h-141l113 367h-324l-115 -367h-141l113 367h-222zM473 508h324l135 440h-326z" />
<glyph unicode="$" horiz-adv-x="1286" d="M39 215l115 125q160 -167 358 -190l92 512q-217 55 -303.5 162t-56.5 274q27 155 163.5 251t327.5 99l23 121h129l-23 -123q198 -28 361 -166l-92 -102q-18 -21 -35 -4q-102 92 -264 124l-91 -505q430 -107 373 -431q-30 -165 -168.5 -260.5t-337.5 -101.5l-37 -203h-129 l37 205q-118 15 -235.5 71t-206.5 142zM399 1077q-16 -95 33 -154t201 -100l84 480q-126 -4 -213.5 -67t-104.5 -159zM629 145q131 6 217.5 70t105.5 168q16 96 -33.5 154.5t-203.5 97.5z" />
<glyph unicode="%" horiz-adv-x="1724" d="M154 0l1251 1448h166l-1249 -1448h-168zM182 1047q0 176 108 301t267 125q129 0 205 -91t76 -223q0 -177 -110.5 -302.5t-272.5 -125.5q-125 0 -199 91.5t-74 224.5zM326 1042q0 -85 38 -136.5t107 -51.5q86 0 155.5 93t69.5 214q0 84 -39 137.5t-102 53.5 q-92 0 -160.5 -94t-68.5 -216zM891 291q0 176 108 301t267 125q129 0 204.5 -91t75.5 -223q0 -177 -110.5 -302.5t-272.5 -125.5q-125 0 -198.5 91.5t-73.5 224.5zM1034 287q0 -85 38.5 -137t107.5 -52q86 0 155.5 93.5t69.5 214.5q0 84 -39 137t-102 53q-92 0 -161 -93.5 t-69 -215.5z" />
<glyph unicode="&#x26;" horiz-adv-x="1458" d="M20 395q51 280 412 416q-52 68 -75.5 145.5t-17.5 150t39 140t87 117t132.5 79.5t170.5 30q149 0 239.5 -101.5t67.5 -238.5q-24 -134 -123.5 -224t-275.5 -149l264 -338q95 110 203 291l119 -72q-139 -224 -234 -332l240 -309h-205l-150 188q-107 -100 -241.5 -156.5 t-270.5 -56.5q-192 0 -301.5 118.5t-79.5 301.5zM184 389q-22 -117 47 -193.5t199 -76.5q97 0 201.5 50t195.5 132l-313 399q-147 -51 -231 -132.5t-99 -178.5zM509.5 1024q19.5 -86 86.5 -160q296 95 328 273q15 87 -32 143.5t-134 56.5q-90 0 -154.5 -45.5t-89 -113.5 t-5 -154z" />
<glyph unicode="'" horiz-adv-x="446" d="M125 907l45 541h201l-146 -541h-100z" />
<glyph unicode="(" horiz-adv-x="731" d="M109 440q0 354 191 636t544 468l51 -106q-312 -195 -470.5 -444t-158.5 -564q0 -398 334 -668l-82 -104q-199 145 -304 345.5t-105 436.5z" />
<glyph unicode=")" horiz-adv-x="731" d="M-166 -231q313 195 471 442t158 561q0 394 -334 664l82 108q200 -145 305 -345.5t105 -436.5q0 -354 -191.5 -636t-544.5 -468z" />
<glyph unicode="*" horiz-adv-x="837" d="M106 1110l207 102l-207 109l68 115l197 -133l-17 239h131l-16 -244l197 140l65 -119l-209 -107l209 -102l-65 -123l-197 139l16 -239h-131l17 239l-197 -137z" />
<glyph unicode="+" d="M102 655v150h422v426h150v-426h422v-150h-422v-426h-150v426h-422z" />
<glyph unicode="," horiz-adv-x="520" d="M104 -168q73 29 113 66.5t47 89.5q-52 -1 -82.5 32.5t-25.5 83.5q5 48 42.5 83.5t86.5 35.5q53 0 88 -35q37 -53 29 -128t-46 -140q-75 -118 -227 -158z" />
<glyph unicode="-" horiz-adv-x="839" d="M106 631l31 174h594l-31 -174h-594z" />
<glyph unicode="." horiz-adv-x="475" d="M123 106q5 47 41.5 81t83.5 34t78 -34t26 -81q-6 -48 -41.5 -81t-85.5 -33q-47 0 -77.5 33.5t-24.5 80.5z" />
<glyph unicode="/" horiz-adv-x="1075" d="M-154 -285l1231 1936h152l-1231 -1936h-152z" />
<glyph unicode="0" horiz-adv-x="1443" d="M109 578q0 141 36 276t102.5 246t155 195t199.5 131t229 47q152 0 267.5 -81t175 -216t59.5 -302q0 -177 -55.5 -342t-150.5 -287.5t-230 -196t-285 -73.5q-153 0 -269 81t-175 217t-59 305zM274 575q0 -196 91 -323t253 -127q148 0 276 108.5t200.5 281t72.5 359.5 q0 195 -91 322t-251 127q-146 0 -274 -107t-202.5 -280t-74.5 -361z" />
<glyph unicode="1" horiz-adv-x="790" d="M168 1333l367 125h116l-254 -1458h-161l223 1270l-232 -58q-42 -9 -47 19z" />
<glyph unicode="2" horiz-adv-x="1236" d="M4 0l10 135l596 463q219 170 300.5 273.5t80.5 226.5q0 102 -68 162.5t-173 60.5q-117 0 -216 -60.5t-208 -187.5l-111 92q67 79 122 131t121.5 95t142 62.5t167.5 19.5q171 0 282 -103t111 -260q0 -74 -20 -140t-53 -121.5t-95.5 -119.5t-128 -119.5t-170.5 -136.5 l-422 -323h746l-27 -109q-11 -41 -49 -41h-938z" />
<glyph unicode="3" horiz-adv-x="1251" d="M27 205l123 112q166 -190 370 -190q165 0 283.5 104.5t118.5 260.5q0 111 -83 180t-221 69q-74 0 -141 -12l-28 113l497 456h-624l16 150h860l-12 -121l-492 -453q175 -3 284 -102t109 -262q0 -123 -45 -225t-123 -169t-182.5 -104t-224.5 -37q-136 0 -267.5 65.5 t-217.5 164.5z" />
<glyph unicode="4" horiz-adv-x="1359" d="M63 338l15 141l946 979h141l-170 -979h240l-25 -100q-8 -41 -49 -41h-186l-53 -338h-168l59 338h-750zM260 475h574l129 731z" />
<glyph unicode="5" horiz-adv-x="1259" d="M35 205l123 112q166 -190 370 -190q169 0 286.5 103t117.5 266q0 116 -83 190t-220 74q-80 0 -153.5 -24t-160.5 -66l-98 73l166 705h801l-17 -150h-667l-111 -464q151 69 289 69q185 0 302.5 -110t117.5 -283q0 -166 -77.5 -289t-206 -184.5t-288.5 -61.5 q-137 0 -271 66t-220 164z" />
<glyph unicode="6" horiz-adv-x="1306" d="M96 492q0 223 80.5 449.5t239.5 369.5q180 162 434 162q213 0 389 -146l-96 -129q-60 55 -146.5 88t-177.5 33q-198 0 -342.5 -167.5t-195.5 -453.5q161 217 442 217q100 0 185 -38t141 -102.5t80 -156t6 -192.5q-35 -206 -194 -328.5t-378 -122.5q-124 0 -217 43 t-146 117.5t-78.5 163.5t-25.5 193zM272 449q-18 -137 67.5 -232.5t238.5 -95.5t260.5 94.5t132.5 239.5q25 135 -57 226t-234 91q-146 0 -256 -95.5t-152 -227.5z" />
<glyph unicode="7" horiz-adv-x="1128" d="M135 0l838 1298h-770l16 150h965l-13 -123l-847 -1325h-189z" />
<glyph unicode="8" horiz-adv-x="1312" d="M57 352q0 147 100.5 249t262.5 149q-82 37 -136.5 115.5t-54.5 178.5q0 96 44 177.5t118.5 136t172 85t204.5 30.5q181 0 310.5 -103.5t129.5 -251.5q0 -72 -26.5 -134.5t-71.5 -106.5t-96.5 -75.5t-110.5 -51.5q105 -41 169.5 -126t64.5 -192q0 -138 -83 -244 t-216.5 -159.5t-292.5 -53.5q-209 0 -348.5 108t-139.5 269zM223 352q0 -102 90 -167.5t246 -65.5q183 0 298.5 92t115.5 223q0 103 -91.5 165.5t-234.5 62.5q-111 0 -207.5 -38.5t-156.5 -110.5t-60 -161zM389 1034q0 -100 79 -158.5t204 -58.5q94 0 178.5 35.5t139 105 t54.5 156.5q0 94 -79.5 154.5t-204.5 60.5q-155 0 -263 -85t-108 -210z" />
<glyph unicode="9" horiz-adv-x="1306" d="M76 121l96 129q60 -55 146.5 -88t177.5 -33q198 0 334.5 159t187.5 445q-75 -112 -190.5 -177.5t-256.5 -61.5q-187 6 -303 131t-116 307q0 161 78.5 286t208 190t284.5 65q100 0 181 -28.5t135 -77t90.5 -115.5t52.5 -140.5t16 -155.5q0 -100 -12 -197t-38.5 -195 t-66 -184t-99 -161t-133.5 -128.5t-172 -84.5t-212 -31q-213 0 -389 146zM317 930q0 -121 78 -203t215 -82q101 0 196.5 62.5t151.5 153t56 175.5q0 124 -79.5 207.5t-217.5 83.5q-171 0 -285.5 -116t-114.5 -281z" />
<glyph unicode=":" horiz-adv-x="475" d="M68 106q3 47 41 81t86 34q47 0 76 -33.5t26 -81.5q-6 -48 -43 -81t-86 -33q-47 0 -76.5 33.5t-23.5 80.5zM217 963q4 47 42 80.5t85 33.5t77 -33.5t25 -80.5q-5 -48 -42 -81.5t-87 -33.5q-47 0 -76 33.5t-24 81.5z" />
<glyph unicode=";" horiz-adv-x="520" d="M53 -168q72 28 111.5 65.5t48.5 90.5q-52 -1 -83 32.5t-26 83.5q6 48 44.5 83.5t87.5 35.5q51 0 86 -35q25 -30 28.5 -79t-10 -98t-37.5 -91q-75 -118 -227 -158zM279 963q4 47 42 80.5t85 33.5t77 -33.5t25 -80.5q-5 -48 -42 -81.5t-87 -33.5q-47 0 -76 33.5t-24 81.5z " />
<glyph unicode="&#x3c;" d="M133 659v138l932 460v-163l-741 -363l741 -366v-166z" />
<glyph unicode="=" d="M102 481v154h994v-154h-994zM102 825v154h994v-154h-994z" />
<glyph unicode="&#x3e;" d="M133 199v166l741 366l-741 363v163l932 -460v-138z" />
<glyph unicode="?" horiz-adv-x="1134" d="M166 1231q74 75 141.5 124.5t161.5 83.5t197 34q134 0 234 -58.5t144.5 -158t24.5 -218.5q-17 -94 -63.5 -166.5t-114.5 -118.5t-147.5 -72.5t-172.5 -37.5l-45 -233h-125l37 352q204 4 323.5 81.5t143.5 213.5q21 115 -47.5 191.5t-202.5 76.5q-206 0 -401 -192z M328 106q3 46 40 79.5t83 33.5q45 0 75 -33.5t27 -79.5q-6 -47 -41.5 -79.5t-85.5 -32.5q-46 0 -75 33t-23 79z" />
<glyph unicode="@" horiz-adv-x="2322" d="M246 399q0 293 151 524.5t400 366.5q114 62 259.5 97.5t295.5 35.5q161 0 305 -44t246 -136q204 -183 204 -467q0 -171 -75.5 -326.5t-221.5 -259.5q-154 -112 -327 -112q-52 0 -93 16.5t-65.5 58t-15.5 101.5q-62 -82 -145 -130t-173 -48q-134 0 -212.5 78t-78.5 211 q0 126 45 239t119.5 191.5t172 124t200.5 45.5q174 0 229 -146l39 78q9 19 19.5 26t29.5 7h109l-205 -576q-15 -44 -16 -78.5t21.5 -60t70.5 -25.5q102 0 221 101q101 87 157 217.5t56 265.5q0 114 -37 215t-110 166q-87 76 -212 116t-261 40q-201 0 -380.5 -77 t-303.5 -203.5t-196.5 -293t-72.5 -342.5q0 -279 191 -445.5t514 -166.5q156 0 328.5 52.5t310.5 137.5l49 -86q-158 -102 -335.5 -159.5t-352.5 -57.5q-204 0 -368 57t-269.5 156.5t-161 231.5t-55.5 284zM858 369q0 -88 43 -134.5t125 -46.5q91 0 179 78.5t124 177.5 l82 228q-4 88 -50.5 136t-125.5 48q-91 0 -177.5 -65t-143 -179t-56.5 -243z" />
<glyph unicode="A" horiz-adv-x="1568" d="M-66 0l867 1411q27 47 78 47h112l387 -1458h-170l-98 383h-762l-231 -383h-183zM436 530h635l-186 736z" />
<glyph unicode="B" horiz-adv-x="1390" d="M14 0l256 1448h574q188 0 306 -85.5t118 -232.5q0 -273 -279 -387q112 -38 180 -113.5t68 -187.5q0 -144 -78.5 -245.5t-207.5 -149t-296 -47.5h-641zM199 150h477q176 0 286.5 81.5t110.5 223.5q0 97 -85 148.5t-251 51.5h-448zM313 805h420q158 0 263.5 79t105.5 224 q0 90 -72 140t-207 50h-422z" />
<glyph unicode="C" horiz-adv-x="1464" d="M88 541q-3 29 -3 59q0 70 15 143q27 149 100.5 281.5t180 232t249.5 158t300 58.5q310 0 508 -185l-109 -129q-163 160 -411 160q-156 0 -296 -80.5t-233.5 -216.5t-122.5 -299q-11 -66 -11 -126q1 -97 29 -181q46 -136 162 -212.5t283 -76.5q128 0 255 46.5t292 162.5 l-19 -146q-6 -31 -16.5 -44.5t-38.5 -30.5q-231 -140 -493 -140q-109 0 -205 28t-167.5 78.5t-127 121t-84 155.5t-37.5 183z" />
<glyph unicode="D" horiz-adv-x="1503" d="M14 0l256 1448h473q145 0 269 -48.5t208.5 -132t132.5 -198t48 -244.5q0 -174 -67 -328t-182.5 -262.5t-274.5 -171.5t-338 -63h-525zM201 150h344q194 0 352 89.5t247 244t89 341.5q0 206 -135.5 339.5t-366.5 133.5h-328z" />
<glyph unicode="E" horiz-adv-x="1302" d="M14 0l256 1448h1006l-16 -150h-857l-88 -493h764l-14 -150h-774l-90 -505h876l-16 -150h-1047z" />
<glyph unicode="F" horiz-adv-x="1245" d="M14 0l256 1448h1000l-17 -150h-850l-92 -518h738l-17 -149h-747l-111 -631h-160z" />
<glyph unicode="G" horiz-adv-x="1538" d="M88 541q-3 29 -3 59q0 70 15 143q27 149 100.5 281.5t180 232t249.5 158t300 58.5q310 0 508 -185l-109 -129q-163 160 -411 160q-156 0 -296 -80.5t-233.5 -216.5t-122.5 -299q-11 -66 -11 -126q0 -97 29 -181q46 -135 162 -212t283 -77q235 0 424 137l66 367h-420 l20 149h582l-96 -540q-5 -29 -14.5 -48t-19.5 -27.5t-34 -25.5q-241 -164 -528 -164q-109 0 -205 28t-167.5 78.5t-127 121t-84 155.5t-37.5 183z" />
<glyph unicode="H" horiz-adv-x="1425" d="M14 0l256 1448h160l-119 -668h819l119 668h160l-256 -1448h-160l111 631h-819l-111 -631h-160z" />
<glyph unicode="I" horiz-adv-x="528" d="M55 0l256 1448h160l-256 -1448h-160z" />
<glyph unicode="J" horiz-adv-x="1103" d="M-2 231l131 91q58 -98 126 -144.5t169 -46.5q125 0 214 85.5t120 256.5l172 975h160l-172 -973q-49 -270 -173 -381q-75 -66 -153.5 -92.5t-177.5 -26.5q-142 0 -253.5 74.5t-162.5 181.5z" />
<glyph unicode="K" horiz-adv-x="1378" d="M14 0l256 1448h160l-137 -795l864 758q40 37 94 37h181l-738 -653l527 -795h-205l-449 686l-321 -280l-72 -406h-160z" />
<glyph unicode="L" horiz-adv-x="1204" d="M14 0l256 1448h160l-229 -1294h815l-27 -113q-8 -41 -49 -41h-926z" />
<glyph unicode="M" horiz-adv-x="1644" d="M14 0l256 1448h156l381 -776l655 776h166l-250 -1448h-161l200 1159l-643 -762l-393 774l-209 -1171h-158z" />
<glyph unicode="N" horiz-adv-x="1486" d="M14 0l256 1448h146l692 -1165l203 1165h159l-256 -1448h-122l-709 1192l-209 -1192h-160z" />
<glyph unicode="O" horiz-adv-x="1652" d="M88 600q0 135 43 266t122.5 239.5t184 191.5t236.5 129.5t272 46.5q186 0 328 -86t214.5 -227t72.5 -312q0 -168 -67 -328t-180.5 -279.5t-273 -192.5t-333.5 -73q-140 0 -257.5 49.5t-196 134t-122 198.5t-43.5 243zM256 608q0 -209 127.5 -345t339.5 -136 q132 0 256 58.5t214.5 155t145 228t54.5 271.5q0 209 -127 345t-336 136q-131 0 -255 -58t-216 -154t-147.5 -228t-55.5 -273z" />
<glyph unicode="P" horiz-adv-x="1308" d="M14 0l256 1448h510q216 0 348 -108.5t132 -288.5q0 -130 -51 -235.5t-138 -172t-199.5 -102t-240.5 -35.5h-363l-88 -506h-166zM293 655h348q196 0 325.5 109t129.5 278q0 124 -89 190t-245 66h-359z" />
<glyph unicode="Q" horiz-adv-x="1683" d="M88 600q0 135 43 266t122.5 239.5t184 191.5t236.5 129.5t272 46.5q186 0 328 -86t214.5 -227t72.5 -312q0 -180 -75 -347t-206 -292l207 -234h-232l-110 129q-203 -129 -438 -129q-140 0 -257.5 49.5t-196 134t-122 198.5t-43.5 243zM256 608q0 -209 127.5 -345 t339.5 -136q132 0 256 58.5t214.5 155t145 228t54.5 271.5q0 209 -127 345t-336 136q-131 0 -255 -58t-216 -154t-147.5 -228t-55.5 -273z" />
<glyph unicode="R" horiz-adv-x="1388" d="M16 0l254 1448h582q84 0 163 -21.5t146.5 -65t108.5 -118.5t41 -172q0 -103 -38.5 -190t-104.5 -146.5t-148.5 -97.5t-177.5 -53l352 -584h-203l-323 563h-389l-99 -563h-164zM303 713h406q116 0 214.5 41t161 123.5t62.5 191.5q0 108 -83.5 168.5t-234.5 60.5h-426z" />
<glyph unicode="S" horiz-adv-x="1300" d="M23 207l108 121q199 -199 453 -199q157 0 260.5 83t103.5 212q0 83 -70 135t-251 92q-208 46 -311 136.5t-103 230.5q0 205 147 330t377 125q303 0 488 -179l-84 -92q-13 -16 -31 -16q-15 0 -33 12q-147 127 -350 127q-155 0 -252.5 -83t-97.5 -206q0 -81 75.5 -135.5 t264.5 -97.5q401 -91 401 -359q0 -144 -74.5 -252t-197.5 -162.5t-275 -54.5q-309 0 -548 232z" />
<glyph unicode="T" horiz-adv-x="1277" d="M172 1298l27 150h1093l-26 -109q-11 -41 -49 -41h-398l-225 -1298h-166l229 1298h-485z" />
<glyph unicode="U" horiz-adv-x="1468" d="M121 352q-13 58 -13 124q0 71 15 151l147 821h162l-147 -832q-13 -72 -13 -133q0 -139 64 -227q92 -127 297 -127q201 0 336.5 122t175.5 355l147 842h162l-147 -850q-55 -312 -226.5 -466.5t-447.5 -154.5q-135 0 -242 44t-175.5 127.5t-94.5 203.5z" />
<glyph unicode="V" horiz-adv-x="1525" d="M205 1448h174l283 -1231l724 1231h185l-830 -1403q-17 -31 -37 -43t-53 -12h-96z" />
<glyph unicode="W" horiz-adv-x="2226" d="M209 1448h176l184 -1184l600 1192h142l178 -1188l600 1180h182l-719 -1401q-26 -57 -94 -57h-86l-180 1157l-561 -1104q-17 -30 -38 -41.5t-54 -11.5h-82z" />
<glyph unicode="X" horiz-adv-x="1445" d="M-63 0l684 752l-396 696h193l323 -576l488 535q36 41 86 41h166l-650 -709l410 -739h-194l-338 614l-557 -614h-215z" />
<glyph unicode="Y" horiz-adv-x="1505" d="M209 1448h186l344 -721l566 678q37 43 88 43h157l-741 -875l-96 -573h-166l96 571z" />
<glyph unicode="Z" horiz-adv-x="1380" d="M6 0l8 111l1088 1185h-858l26 111q11 41 49 41h1039l-10 -111l-1090 -1185h895l-27 -111q-11 -41 -49 -41h-1071z" />
<glyph unicode="[" horiz-adv-x="651" d="M-41 -332l328 1862h542l-16 -125h-401l-285 -1614h395l-16 -123h-547z" />
<glyph unicode="\" horiz-adv-x="1075" d="M16 1651h152l891 -1936h-152z" />
<glyph unicode="]" horiz-adv-x="794" d="M-35 -332l17 123h399l285 1614h-396l17 125h549l-330 -1862h-541z" />
<glyph unicode="^" d="M137 1042l402 498h120l402 -498h-182l-277 308l-278 -308h-187z" />
<glyph unicode="_" horiz-adv-x="1228" d="M-16 -332l14 135h1241l-16 -135h-1239z" />
<glyph unicode="`" horiz-adv-x="466" d="M53 1509h207l150 -278h-127z" />
<glyph unicode="a" horiz-adv-x="1294" d="M96 438q0 152 60 282.5t145 209.5q173 162 389 162q137 0 231 -64.5t138 -163.5l24 154q5 26 16 39.5t36 17.5l120 21l-194 -1096h-158l45 193q-93 -109 -195.5 -163.5t-238.5 -54.5q-89 0 -167.5 32.5t-133.5 94.5q-117 134 -117 336zM258 444q0 -147 84.5 -236 t216.5 -89q78 0 157.5 39.5t143.5 106t104 162t40 198.5q0 144 -85 234.5t-214 90.5q-159 0 -289 -121q-68 -66 -113 -167t-45 -218z" />
<glyph unicode="b" horiz-adv-x="1294" d="M4 0l254 1452q5 27 15.5 40t35.5 17l121 21l-123 -658q90 108 191.5 164t238.5 56q84 0 160 -32.5t134.5 -90.5t93 -146t34.5 -192q0 -123 -35.5 -230.5t-95 -184t-136 -132t-159.5 -82.5t-164 -27q-138 0 -232 63t-144 165l-31 -203h-158zM254 442q0 -147 83 -235 t214 -88q81 0 160.5 35.5t143 99t103 162t39.5 213.5q0 147 -84 234t-215 87q-81 0 -161 -38t-142.5 -104t-101.5 -162t-39 -204z" />
<glyph unicode="c" horiz-adv-x="1153" d="M90 444q0 180 79.5 328t223 234t322.5 86q131 0 239 -46.5t179 -125.5l-113 -109q-69 68 -142.5 103.5t-168.5 35.5q-125 0 -229.5 -67t-164 -181.5t-59.5 -248.5q0 -155 94.5 -243.5t241.5 -88.5q178 0 389 123l-16 -127q-4 -33 -11.5 -43t-33.5 -21q-164 -76 -334 -76 q-101 0 -188.5 28t-157.5 83t-110 146.5t-40 209.5z" />
<glyph unicode="d" horiz-adv-x="1294" d="M96 438q0 152 60 282.5t145 209.5q173 162 389 162q137 0 231 -64.5t138 -163.5l96 590q5 27 15.5 40t35.5 17l121 21l-266 -1532h-158l45 193q-93 -109 -195.5 -163.5t-238.5 -54.5q-89 0 -167.5 32.5t-133.5 94.5q-117 134 -117 336zM258 444q0 -147 84.5 -236 t216.5 -89q78 0 157.5 39.5t143.5 106t104 162t40 198.5q0 144 -85 234.5t-214 90.5q-159 0 -289 -121q-68 -66 -113 -167t-45 -218z" />
<glyph unicode="e" horiz-adv-x="1216" d="M94 428q0 183 77.5 335.5t212 240.5t294.5 88q138 0 235.5 -62t143 -162.5t45.5 -228.5q0 -78 -23 -172h-823q-2 -14 -2 -43q0 -140 85.5 -222.5t227.5 -82.5q198 0 402 125l-17 -129q-4 -32 -11.5 -41.5t-33.5 -22.5q-158 -76 -375 -76q-206 0 -322 126.5t-116 326.5z M279 596h659q4 36 4 53q0 141 -64.5 225t-201.5 84t-244.5 -100.5t-152.5 -261.5z" />
<glyph unicode="f" horiz-adv-x="741" d="M51 -352l230 1282h-156l25 139h153l19 105q30 181 137 274q97 82 241 82q75 0 138 -17q17 -5 22.5 -13t1.5 -30l-22 -102q-80 25 -144 25q-182 0 -223 -228l-16 -96h315l-24 -98q-11 -41 -50 -41h-264l-225 -1282h-158z" />
<glyph unicode="g" horiz-adv-x="1294" d="M133 465q0 151 56.5 273.5t142.5 201.5q162 152 389 152q137 0 231 -64.5t138 -163.5l24 154q5 27 15.5 40t35.5 17l121 21l-168 -942q-45 -260 -178 -379q-162 -144 -428 -144q-176 0 -317 78q-1 1 -6 3.5t-6.5 3.5t-6 5t-4.5 7t-3.5 10.5t-1.5 15t1 19.5l14 118 q72 -55 162 -85.5t180 -30.5q178 0 287.5 93t153.5 282l14 61q-92 -107 -191 -158t-237 -51q-89 0 -167.5 32.5t-133.5 94.5q-117 134 -117 336zM295 471q0 -147 84.5 -236.5t216.5 -89.5q78 0 156.5 39t141 104t101.5 158.5t39 194.5q0 139 -84.5 224t-214.5 85 q-171 0 -289 -110q-151 -147 -151 -369z" />
<glyph unicode="h" horiz-adv-x="1181" d="M4 0l254 1452q5 27 15.5 40t35.5 17l121 21l-117 -629q73 95 160.5 143t216.5 48q186 0 282 -131q70 -97 71 -230q0 -48 -9 -100l-108 -631h-162l106 625q8 49 8 91q0 92 -39 148q-57 84 -194 84q-134 0 -249 -114.5t-140 -266.5l-94 -567h-158z" />
<glyph unicode="i" horiz-adv-x="475" d="M29 0l176 1018q5 27 15.5 40t35.5 17l121 21l-191 -1096h-157zM248 1372q5 41 37 71t73 30t68 -30q24 -26 24 -61q0 -5 -1 -10q-6 -42 -37 -71t-74 -29q-42 0 -69 30q-22 24 -22 55q0 8 1 15z" />
<glyph unicode="j" horiz-adv-x="569" d="M-164 -303l12 106q82 -20 148 -20q53 0 93 35t50 96l193 1104q5 27 15.5 40t35.5 17l121 21l-209 -1184q-24 -139 -103 -210t-200 -71q-86 5 -115 13q-1 0 -8 1.5t-10 3l-10 5t-8 8.5t-5 14t0 21zM375 1372q5 41 37 71t73 30t67 -30q24 -26 24 -60q0 -6 -1 -11 q-6 -42 -36.5 -71t-73.5 -29q-42 0 -69 30q-22 24 -22 55q0 8 1 15z" />
<glyph unicode="k" horiz-adv-x="1105" d="M2 0l252 1452q5 27 15.5 40t35.5 17l121 21l-176 -1000l586 508q25 22 40.5 29.5t38.5 7.5h175l-529 -465l350 -610h-182l-283 508l-235 -203l-53 -305h-156z" />
<glyph unicode="l" horiz-adv-x="430" d="M4 0l250 1452q5 27 15.5 40t35.5 17l121 21l-266 -1530h-156z" />
<glyph unicode="m" horiz-adv-x="1853" d="M39 0l178 1006q5 27 15 39t36 18l121 33l-29 -162q132 158 328 158q120 0 203.5 -62.5t118.5 -169.5q70 105 171 168.5t226 63.5q181 0 274 -131q69 -97 68 -230q0 -47 -8 -100l-107 -631h-155l102 625q8 50 8 93q0 90 -37 146q-55 84 -188 84q-87 0 -162.5 -53 t-123 -135.5t-64.5 -179.5l-99 -580h-155l102 625q8 50 8 93q0 90 -37 146q-55 84 -188 84q-137 0 -227 -107.5t-121 -279.5l-102 -561h-156z" />
<glyph unicode="n" horiz-adv-x="1181" d="M39 0l178 1018q5 27 15.5 40t35.5 17l121 21l-41 -195q73 95 160.5 143t216.5 48q187 0 283 -131q70 -97 70 -230q0 -48 -9 -100l-108 -631h-162l106 625q8 49 8 91q0 92 -39 148q-57 84 -194 84q-88 0 -172 -53t-141.5 -141t-73.5 -187l-96 -567h-158z" />
<glyph unicode="o" horiz-adv-x="1306" d="M98 459q0 171 86 317t232.5 231t316.5 85q137 0 246.5 -66.5t169 -177.5t59.5 -244q0 -170 -88 -315.5t-234.5 -229.5t-314.5 -84q-139 0 -248 66t-167 176t-58 242zM260 453q0 -146 88.5 -240t233.5 -94q91 0 177 40t149 106.5t101 157.5t38 189q0 147 -89 243.5 t-233 96.5q-92 0 -178.5 -41t-149 -109t-100 -160t-37.5 -189z" />
<glyph unicode="p" horiz-adv-x="1294" d="M6 -352l242 1370q5 27 15.5 40t35.5 17l121 21l-47 -224q90 108 191.5 164t238.5 56q84 0 160 -32.5t134.5 -90.5t93 -146t34.5 -192q0 -123 -35.5 -230.5t-95 -184t-136 -132t-159.5 -82.5t-164 -27q-138 0 -232.5 63t-144.5 165l-94 -555h-158zM319 442q0 -147 83 -235 t214 -88q81 0 160.5 35.5t143.5 99t103.5 162t39.5 213.5q0 147 -84 234t-215 87q-81 0 -161 -38t-143 -104t-102 -162t-39 -204z" />
<glyph unicode="q" horiz-adv-x="1294" d="M127 438q0 152 60 282.5t145 209.5q173 162 389 162q137 0 231 -64.5t138 -163.5l24 154q5 27 15.5 40t35.5 17l121 21l-256 -1448h-158l107 545q-93 -109 -195.5 -163.5t-238.5 -54.5q-89 0 -167.5 32.5t-133.5 94.5q-117 134 -117 336zM289 444q0 -147 84.5 -236 t216.5 -89q78 0 157.5 39.5t143 106t103.5 162t40 198.5q0 144 -85 234.5t-214 90.5q-159 0 -289 -121q-67 -66 -112 -167t-45 -218z" />
<glyph unicode="r" horiz-adv-x="802" d="M49 0l178 1018q5 26 16 39.5t36 17.5l120 21l-53 -297q84 137 208 213q115 70 248 69h21l-20 -127q-3 -16 -9 -26t-16.5 -14.5t-17.5 -6t-21 -2.5q-173 -18 -295.5 -135t-160.5 -332l-76 -438h-158z" />
<glyph unicode="s" horiz-adv-x="989" d="M14 133l99 113q154 -135 338 -135q103 0 174 52t71 140q0 21 -6 39t-21 33t-29.5 26t-43.5 24t-49.5 21.5t-61 24t-65.5 25.5q-52 22 -89 42.5t-76.5 53t-60 77t-20.5 99.5q0 155 113 239.5t284 84.5q96 0 197.5 -32t171.5 -83l-57 -86q-14 -19 -29.5 -21t-36.5 9 q-126 79 -254 79q-98 0 -163.5 -51t-65.5 -127q0 -16 3.5 -29.5t12.5 -25.5t18 -21.5t26.5 -20t30 -17.5t37.5 -17l40 -16t46 -17.5t48 -17.5q58 -22 98 -43.5t81 -54.5t62 -79t21 -104q0 -86 -34.5 -153t-94 -107.5t-133.5 -61t-158 -20.5q-115 0 -232.5 43t-191.5 115z " />
<glyph unicode="t" horiz-adv-x="843" d="M106 930l25 139h156l43 248q3 22 16 39.5t33 23.5l125 37l-62 -348h316l-25 -98q-11 -41 -49 -41h-264l-113 -633q-5 -28 -5 -51q0 -55 27 -84q38 -41 122 -41q48 0 143 31l-19 -101q-6 -34 -16.5 -45.5t-38.5 -17.5q-57 -13 -133 -13q-133 0 -201 74q-49 53 -49 145 q0 38 8 82l117 654h-156z" />
<glyph unicode="u" horiz-adv-x="1142" d="M117 467l106 602h158l-107 -614q-9 -50 -10 -93q0 -90 42 -150q62 -86 198 -87q134 0 223.5 82t118.5 239l108 623h156l-109 -633q-41 -235 -163.5 -345.5t-341.5 -110.5q-206 0 -312 132q-77 96 -78 241q0 54 11 114z" />
<glyph unicode="v" horiz-adv-x="1239" d="M190 1069h170l197 -868l502 868h178l-604 -1026q-19 -30 -38 -40.5t-58 -10.5h-84z" />
<glyph unicode="w" horiz-adv-x="1767" d="M190 1069h162l123 -833l428 837h139l129 -837l424 833h170l-526 -1018q-18 -34 -42 -46.5t-60 -12.5h-70l-135 817l-385 -762q-17 -33 -36.5 -44t-55.5 -11h-90z" />
<glyph unicode="x" horiz-adv-x="1157" d="M-27 0l506 551l-295 518h174l232 -403l358 383q23 26 80 26h143l-499 -536l309 -539h-178l-244 426l-389 -426h-197z" />
<glyph unicode="y" horiz-adv-x="1267" d="M72 -293l12 98q91 -26 160 -26q87 1 146.5 57t133.5 182l-288 1051h170l223 -866l461 831q21 41 73 41h129l-635 -1126q-101 -178 -188 -248t-219 -70q-41 0 -137 15q-16 2 -24 6t-14 17.5t-3 37.5z" />
<glyph unicode="z" horiz-adv-x="1081" d="M8 0l10 100l803 828h-628l24 100q8 41 49 41h803l-12 -100l-805 -828h657l-24 -100q-8 -41 -49 -41h-828z" />
<glyph unicode="{" horiz-adv-x="862" d="M117 539l16 123h41q131 0 194.5 60.5t86.5 188.5l39 215q14 73 33 128.5t56.5 111.5t89.5 92.5t134.5 60t189.5 25.5l-20 -110q-58 -5 -104 -17t-78 -26.5t-56.5 -39.5t-39.5 -46.5t-27 -59t-18 -64.5t-15 -75l-37 -223q-23 -127 -87 -195.5t-175 -97.5q65 -22 102.5 -55 t55.5 -92t0 -144l-37 -205q-16 -91 -12.5 -155t61 -106.5t184.5 -65.5l-20 -111q-105 7 -180 32t-115.5 63.5t-62 89.5t-20 109.5t10.5 123.5l39 217q23 126 -20 187t-174 61h-35z" />
<glyph unicode="|" horiz-adv-x="335" d="M102 -416v2061h131v-2061h-131z" />
<glyph unicode="}" horiz-adv-x="862" d="M-137 -344l20 111q58 5 104 17t78.5 26.5t57 39t39.5 46.5t27 58.5t18 65t14 74.5l37 223q23 127 87 195.5t175 97.5q-65 22 -102.5 55t-55.5 92t0 144l37 205q16 91 12.5 155.5t-61 107t-184.5 65.5l20 110q105 -7 180 -32t115.5 -63.5t62 -89.5t20 -109.5t-10.5 -123.5 l-39 -217q-23 -126 20 -186.5t175 -60.5h34l-16 -123h-41q-131 0 -194 -61t-86 -189l-39 -215q-13 -73 -32.5 -128.5t-57 -111.5t-90 -92.5t-135 -60t-189.5 -25.5z" />
<glyph unicode="~" horiz-adv-x="839" d="M29 600q55 129 116.5 186.5t141.5 57.5q42 0 97 -23.5t105.5 -47t83.5 -23.5q44 0 73 24.5t63 89.5l100 -30q-55 -130 -114.5 -187t-139.5 -57q-54 0 -152.5 47t-134.5 47q-41 0 -71.5 -25.5t-65.5 -89.5z" />
<glyph unicode="&#xa1;" horiz-adv-x="552" d="M6 -352l232 1038h98l-131 -1038h-199zM219 981q6 47 41.5 80t83.5 33q46 0 76 -33.5t24 -79.5q-5 -46 -40.5 -79.5t-81.5 -33.5t-76.5 33.5t-26.5 79.5z" />
<glyph unicode="&#xa2;" horiz-adv-x="1177" d="M104 645q0 170 72.5 312.5t204 231t297.5 101.5l33 183h129l-33 -185q211 -26 340 -168l-113 -108q-120 117 -256 135l-149 -825q169 6 366 122l-16 -127q-4 -33 -11.5 -42.5t-33.5 -20.5q-159 -73 -322 -76l-32 -178h-129l32 186q-169 30 -274 146t-105 313zM270 653 q0 -129 66.5 -212t177.5 -109l145 813q-167 -25 -278 -165t-111 -327z" />
<glyph unicode="&#xa3;" horiz-adv-x="1153" d="M-23 -25l31 183q57 10 102 36.5t74.5 66t50 81.5t32 96.5t17 97t9.5 95.5h-223l20 149h211v86q-3 128 10 203q32 198 149.5 301t303.5 103q109 0 210 -49t171 -126l-113 -104q-130 141 -280 141q-108 0 -182 -66.5t-97 -197.5q-5 -27 -7.5 -62t-3 -61t-1 -81.5 t-0.5 -86.5h334l-21 -149h-321q-16 -233 -109 -367q79 -76 134.5 -109.5t115.5 -33.5q175 0 258 205l121 -37q-58 -157 -147 -235.5t-220 -78.5q-203 0 -350 160q-120 -152 -279 -160z" />
<glyph unicode="&#xa4;" horiz-adv-x="1316" d="M117 276l207 205q-84 106 -84 252q0 139 84 252l-207 207l82 80l204 -205q115 86 254 86q141 0 256 -86l205 205l82 -80l-205 -207q82 -110 82 -252q0 -143 -82 -252l205 -205l-82 -81l-205 204q-117 -86 -254 -86q-141 0 -256 86l-204 -204zM356 735q0 -126 88.5 -215.5 t214.5 -89.5t215 89.5t89 215.5q0 125 -89 214t-215 89t-214.5 -89t-88.5 -214z" />
<glyph unicode="&#xa5;" horiz-adv-x="1382" d="M174 356l16 125h379l27 150h-375l17 125h331l-350 692h182l297 -614l480 569q38 45 98 45h141l-600 -692h324l-17 -125h-370l-27 -150h367l-17 -125h-370l-62 -356h-166l66 356h-371z" />
<glyph unicode="&#xa6;" horiz-adv-x="335" d="M102 -416v948h131v-948h-131zM102 696v949h131v-949h-131z" />
<glyph unicode="&#xa7;" horiz-adv-x="1085" d="M123 668q0 98 51 167.5t156 96.5q-135 99 -135 248q4 138 93 215.5t234 77.5q174 0 373 -111v-150q-87 48 -187 82.5t-180 34.5q-76 0 -126 -37t-50 -102q0 -60 43 -110.5t121 -84.5l186 -86q135 -62 197.5 -133.5t61.5 -173.5q-3 -204 -197 -258q66 -41 104.5 -106.5 t38.5 -145.5q0 -144 -89 -224.5t-238 -80.5q-180 0 -379 111v149q86 -47 188.5 -82t183.5 -35q76 0 126.5 37.5t50.5 102.5q0 126 -156 198l-176 82q-154 71 -224.5 144.5t-70.5 173.5zM262 715q0 -53 37.5 -96t112.5 -89q72 -43 148 -68.5t130 -25.5q57 0 92 37.5t35 93.5 q0 60 -42.5 106t-131.5 95q-148 80 -246 80q-60 0 -97.5 -38t-37.5 -95z" />
<glyph unicode="&#xa8;" horiz-adv-x="645" d="M41 1339q3 46 40 79.5t83 33.5q45 0 75 -33.5t27 -79.5q-6 -47 -42 -79.5t-85 -32.5q-46 0 -75 33t-23 79zM379 1339q3 46 40 79.5t83 33.5q45 0 75 -33.5t27 -79.5q-6 -47 -42 -79.5t-85 -32.5q-46 0 -75 33t-23 79z" />
<glyph unicode="&#xa9;" horiz-adv-x="1863" d="M180 723q0 152 59.5 290t159.5 238.5t238.5 159.5t290.5 59t290 -59t238.5 -159.5t159.5 -238.5t59 -290t-59 -290.5t-159.5 -238.5t-238.5 -159.5t-290 -59.5q-203 0 -375 100.5t-272.5 272.5t-100.5 375zM262 723q0 -180 89.5 -333.5t243 -243t333.5 -89.5t333.5 89.5 t242.5 242.5t89 334t-89 334t-242.5 242.5t-333.5 89.5t-333.5 -89.5t-243 -243t-89.5 -333.5zM551 729q0 166 105 280.5t274 114.5q179 0 307 -131l-72 -78q-56 55 -109.5 82t-123.5 27q-119 0 -192.5 -84.5t-73.5 -210.5q0 -144 80 -220.5t204 -74.5q139 3 267 86v-78 q0 -17 -7.5 -29t-11.5 -14l-16 -8q-122 -61 -238 -61q-169 0 -281 105t-112 294z" />
<glyph unicode="&#xaa;" horiz-adv-x="641" d="M-12 662l16 118h528l-18 -118h-526zM57 1178q25 143 107.5 219t189.5 76q103 0 160 -74l4 24q6 26 29 31l98 21l-110 -619h-117l12 62q-71 -74 -166 -74q-106 0 -169 95t-38 239zM178 1159q-17 -93 15 -151t94 -58q60 0 111 49.5t71 147.5l2 12q20 109 -13.5 159 t-97.5 50q-63 0 -113.5 -56t-68.5 -153z" />
<glyph unicode="&#xab;" horiz-adv-x="1064" d="M61 608l412 439l94 -80l-323 -373l190 -381l-119 -68zM510 608l412 439l94 -80l-324 -373l191 -381l-119 -68z" />
<glyph unicode="&#xac;" d="M102 737v150h994v-463h-150v313h-844z" />
<glyph unicode="&#xad;" horiz-adv-x="839" d="M106 631l31 174h594l-31 -174h-594z" />
<glyph unicode="&#xae;" horiz-adv-x="909" d="M20 1137q0 163 115.5 278t278.5 115t278 -115t115 -278t-115 -278.5t-278 -115.5t-278.5 115.5t-115.5 278.5zM82 1137q0 -137 98 -234.5t234 -97.5t233.5 97.5t97.5 234.5t-97.5 234t-233.5 97q-137 0 -234.5 -97.5t-97.5 -233.5zM260 944v414h182q82 0 123 -41 q33 -33 33 -88q0 -46 -26.5 -78.5t-69.5 -44.5l121 -162h-91l-106 150h-90v-150h-76zM336 1165h100q39 0 61.5 16.5t22.5 45.5t-22 46t-60 17h-102v-125z" />
<glyph unicode="&#xaf;" horiz-adv-x="645" d="M31 1247l16 152h563l-16 -152h-563z" />
<glyph unicode="&#xb0;" horiz-adv-x="761" d="M51 1196q0 140 99 237t241 97q108 0 183 -77t75 -185q0 -138 -98.5 -233t-243.5 -95q-108 0 -182 75.5t-74 180.5zM186 1204q0 -55 38 -93t98 -38q72 0 132 57.5t60 129.5q0 59 -38.5 98t-98.5 39q-72 0 -131.5 -57.5t-59.5 -135.5z" />
<glyph unicode="&#xb1;" d="M102 231v150h422v315h-422v150h422v385h150v-385h422v-150h-422v-315h422v-150h-994z" />
<glyph unicode="&#xb2;" horiz-adv-x="710" d="M-2 977l12 104l324 246q109 82 149.5 131t40.5 105q0 44 -30.5 70t-75.5 26q-52 0 -104.5 -34.5t-120.5 -106.5l-89 79q57 65 99.5 102.5t100 62t124.5 24.5q104 0 175 -64t71 -157q0 -39 -12.5 -74t-30.5 -62.5t-56 -63t-70.5 -61t-92.5 -69.5l-174 -129h372l-22 -88 q-11 -41 -49 -41h-541z" />
<glyph unicode="&#xb3;" horiz-adv-x="716" d="M6 1087l86 97q45 -42 105.5 -69.5t111.5 -27.5q81 0 128.5 42t47.5 112q0 47 -38 78t-99 31q-30 0 -92 -15l-23 82l236 217h-315l16 129h516l-10 -98l-227 -211q85 -12 134.5 -67.5t49.5 -135.5q0 -141 -89.5 -219t-234.5 -78q-80 0 -165.5 38t-137.5 95z" />
<glyph unicode="&#xb4;" horiz-adv-x="466" d="M25 1231l206 278h207l-286 -278h-127z" />
<glyph unicode="&#xb6;" horiz-adv-x="1118" d="M82 1081q0 174 120 283t322 109h574l-15 -64q-6 -26 -17.5 -36.5t-39.5 -10.5h-76v-1575h-139v1575h-172v-1575h-137v903q-193 7 -306.5 114.5t-113.5 276.5z" />
<glyph unicode="&#xb7;" horiz-adv-x="471" d="M141 745q3 47 40 81t85 34q47 0 77.5 -33.5t27.5 -81.5q-6 -48 -42.5 -81t-86.5 -33q-47 0 -77 33.5t-24 80.5z" />
<glyph unicode="&#xb8;" horiz-adv-x="425" d="M20 -352l11 92q104 0 156 38.5t61 119.5q5 42 -2 104h119q13 -33 21.5 -78.5t4.5 -79.5q-12 -118 -100 -161.5t-271 -34.5z" />
<glyph unicode="&#xb9;" horiz-adv-x="491" d="M88 1700l234 76h96l-139 -799h-144l115 641l-100 -21q-20 -6 -31 -1.5t-15 24.5z" />
<glyph unicode="&#xba;" horiz-adv-x="700" d="M2 662l12 118h578l-14 -118h-576zM59 1171q24 129 119 212t225 83q88 0 154.5 -48t94 -125t12.5 -163q-23 -130 -120.5 -213t-228.5 -83q-133 0 -206.5 101.5t-49.5 235.5zM184 1151q-15 -84 26 -142.5t118 -58.5q78 0 136 57t73 144q15 85 -25.5 143t-118.5 58t-136 -58 t-73 -143z" />
<glyph unicode="&#xbb;" horiz-adv-x="1064" d="M47 225l324 373l-191 381l119 68l254 -463l-412 -439zM496 225l323 373l-190 381l119 68l253 -463l-411 -439z" />
<glyph unicode="&#xbc;" horiz-adv-x="1288" d="M82 -25l799 1498h133l-799 -1498h-133zM88 1384l234 76h96l-139 -798h-144l115 641l-100 -21q-20 -6 -31 -1.5t-15 24.5zM520 172l10 107l521 522h118l-88 -504h140l-19 -80q-11 -29 -23 -37t-40 -8h-80l-31 -172h-143l30 172h-395zM713 291h223l49 276z" />
<glyph unicode="&#xbd;" horiz-adv-x="1376" d="M82 -25l799 1498h133l-799 -1498h-133zM88 1384l234 76h96l-139 -798h-144l115 641l-100 -21q-20 -6 -31 -1.5t-15 24.5zM602 0l12 104l324 246q109 82 149.5 131t40.5 105q0 44 -30.5 70t-75.5 26q-52 0 -104.5 -34.5t-120.5 -106.5l-88 80q57 65 99.5 102t99.5 61.5 t124 24.5q104 0 175 -64t71 -157q0 -39 -12.5 -74t-30.5 -62.5t-56 -63t-70.5 -61t-92.5 -69.5l-174 -129h372l-22 -88q-11 -41 -49 -41h-541z" />
<glyph unicode="&#xbe;" horiz-adv-x="1513" d="M6 772l86 96q45 -42 105 -69t112 -27q81 0 128.5 42t47.5 112q0 46 -38 77t-99 31q-35 0 -92 -14l-23 82l236 217h-315l16 129h516l-10 -98l-227 -211q85 -12 134.5 -67.5t49.5 -135.5q0 -141 -89.5 -219t-234.5 -78q-80 0 -165.5 38t-137.5 95zM307 -25l799 1498h133 l-799 -1498h-133zM725 172l10 107l520 522h119l-88 -504h139l-18 -80q-11 -29 -23.5 -37t-40.5 -8h-79l-31 -172h-143l30 172h-395zM918 291h223l49 276z" />
<glyph unicode="&#xbf;" horiz-adv-x="1114" d="M63 66q17 94 63.5 166.5t114.5 118.5t147.5 72.5t172.5 37.5l53 233h117l-37 -352q-204 -4 -323.5 -81.5t-143.5 -213.5q-21 -115 47.5 -191.5t202.5 -76.5q207 0 402 192l88 -98q-74 -75 -141.5 -124.5t-161.5 -83.5t-197 -34q-134 0 -234.5 58.5t-145 158t-24.5 218.5z M584 981q5 46 41 79.5t82 33.5t76 -33.5t26 -79.5q-6 -47 -41.5 -80t-83.5 -33q-46 0 -76 33.5t-24 79.5z" />
<glyph unicode="&#xc0;" horiz-adv-x="1568" d="M-66 0l867 1411q27 47 78 47h112l387 -1458h-170l-98 383h-762l-231 -383h-183zM436 530h635l-186 736zM631 1888h207l149 -278h-127z" />
<glyph unicode="&#xc1;" horiz-adv-x="1568" d="M-66 0l867 1411q27 47 78 47h112l387 -1458h-170l-98 383h-762l-231 -383h-183zM436 530h635l-186 736zM791 1610l206 278h207l-286 -278h-127z" />
<glyph unicode="&#xc2;" horiz-adv-x="1568" d="M-66 0l867 1411q27 47 78 47h112l387 -1458h-170l-98 383h-762l-231 -383h-183zM436 530h635l-186 736zM614 1610l258 278h138l200 -278h-139l-145 135l-176 -135h-136z" />
<glyph unicode="&#xc3;" horiz-adv-x="1568" d="M-66 0l867 1411q27 47 78 47h112l387 -1458h-170l-98 383h-762l-231 -383h-183zM436 530h635l-186 736zM567 1612q43 117 93 168t122 51q49 0 133.5 -41t116.5 -41q39 0 62 20.5t53 77.5l94 -26q-43 -117 -94 -169.5t-123 -52.5q-49 0 -132.5 41t-115.5 41 q-39 0 -61.5 -19.5t-52.5 -76.5z" />
<glyph unicode="&#xc4;" horiz-adv-x="1568" d="M-66 0l867 1411q27 47 78 47h112l387 -1458h-170l-98 383h-762l-231 -383h-183zM436 530h635l-186 736zM645 1718q3 46 40 79.5t83 33.5q45 0 75 -33.5t27 -79.5q-6 -47 -42 -79.5t-85 -32.5q-46 0 -75 33t-23 79zM983 1718q3 46 40 79.5t83 33.5q45 0 75 -33.5t27 -79.5 q-6 -47 -42 -79.5t-85 -32.5q-46 0 -75 33t-23 79z" />
<glyph unicode="&#xc5;" horiz-adv-x="1568" d="M-66 0l867 1411q27 47 78 47h112l387 -1458h-170l-98 383h-762l-231 -383h-183zM436 530h635l-186 736zM737 1769q8 87 70.5 145t155.5 58q84 0 139.5 -62.5t48.5 -148.5q-11 -88 -74 -145t-155 -57q-80 0 -137.5 63t-47.5 147zM850 1765q-6 -40 18 -67t64 -27t70 27 t36 67q3 40 -21.5 67.5t-64.5 27.5t-69.5 -27.5t-32.5 -67.5z" />
<glyph unicode="&#xc6;" horiz-adv-x="1896" d="M-90 0l1114 1407q20 25 39.5 33t46.5 8h774l-16 -150h-670l-88 -493h578l-15 -150h-588l-90 -505h691l-17 -150h-860l68 383h-465l-297 -383h-205zM524 530h379l111 627z" />
<glyph unicode="&#xc7;" horiz-adv-x="1464" d="M100 743q27 149 100.5 281.5t180 232t249.5 158t300 58.5q310 0 508 -185l-109 -129q-163 160 -411 160q-156 0 -296 -80.5t-233.5 -216.5t-122.5 -299q-29 -171 17.5 -306.5t162.5 -212.5t283 -77q128 0 255 46.5t292 162.5l-19 -146q-4 -31 -15 -44.5t-40 -30.5 q-178 -109 -373 -131q27 -78 21 -140q-12 -118 -100 -161.5t-271 -34.5l10 92q104 0 156.5 38.5t61.5 119.5q3 37 0 77q-163 1 -292 62.5t-206.5 165.5t-107 244t-1.5 296z" />
<glyph unicode="&#xc8;" horiz-adv-x="1302" d="M14 0l256 1448h1006l-16 -150h-857l-88 -493h764l-14 -150h-774l-90 -505h876l-16 -150h-1047zM569 1888h207l150 -278h-127z" />
<glyph unicode="&#xc9;" horiz-adv-x="1302" d="M14 0l256 1448h1006l-16 -150h-857l-88 -493h764l-14 -150h-774l-90 -505h876l-16 -150h-1047zM657 1610l207 278h207l-287 -278h-127z" />
<glyph unicode="&#xca;" horiz-adv-x="1302" d="M14 0l256 1448h1006l-16 -150h-857l-88 -493h764l-14 -150h-774l-90 -505h876l-16 -150h-1047zM483 1610l258 278h138l200 -278h-139l-145 135l-177 -135h-135z" />
<glyph unicode="&#xcb;" horiz-adv-x="1302" d="M14 0l256 1448h1006l-16 -150h-857l-88 -493h764l-14 -150h-774l-90 -505h876l-16 -150h-1047zM522 1718q3 46 40 79.5t83 33.5t76 -33.5t27 -79.5q-6 -47 -42 -79.5t-85 -32.5q-46 0 -75.5 33t-23.5 79zM860 1718q3 46 40 79.5t83 33.5q45 0 75 -33.5t27 -79.5 q-6 -47 -42 -79.5t-85 -32.5q-46 0 -75 33t-23 79z" />
<glyph unicode="&#xcc;" horiz-adv-x="487" d="M55 0l256 1448h160l-256 -1448h-160zM160 1888h207l149 -278h-127z" />
<glyph unicode="&#xcd;" horiz-adv-x="487" d="M55 0l256 1448h160l-256 -1448h-160zM270 1610l207 278h207l-287 -278h-127z" />
<glyph unicode="&#xce;" horiz-adv-x="487" d="M55 0l256 1448h160l-256 -1448h-160zM113 1610l258 278h137l201 -278h-140l-145 135l-176 -135h-135z" />
<glyph unicode="&#xcf;" horiz-adv-x="487" d="M55 0l256 1448h160l-256 -1448h-160zM123 1718q3 46 40 79.5t83 33.5q45 0 75 -33.5t27 -79.5q-6 -47 -42 -79.5t-85 -32.5q-46 0 -75 33t-23 79zM461 1718q3 46 40 79.5t83 33.5q45 0 75 -33.5t27 -79.5q-6 -47 -42 -79.5t-85 -32.5q-46 0 -75 33t-23 79z" />
<glyph unicode="&#xd0;" horiz-adv-x="1589" d="M29 655l51 150h162l114 643h473q145 0 269 -48.5t208.5 -132t132.5 -198t48 -244.5q0 -174 -67 -328t-182.5 -262.5t-274.5 -171.5t-338 -63h-525l115 655h-186zM287 150h344q194 0 352 89.5t247 244t89 341.5q0 206 -135.5 339.5t-366.5 133.5h-328l-88 -493h390 l-52 -150h-364z" />
<glyph unicode="&#xd1;" horiz-adv-x="1486" d="M14 0l256 1448h146l692 -1165l203 1165h159l-256 -1448h-122l-709 1192l-209 -1192h-160zM578 1612q43 117 93 168t122 51q49 0 133 -41t116 -41q39 0 62 20.5t53 77.5l94 -26q-43 -117 -94 -169.5t-123 -52.5q-49 0 -132.5 41t-115.5 41q-39 0 -61.5 -19.5t-52.5 -76.5z " />
<glyph unicode="&#xd2;" horiz-adv-x="1652" d="M88 600q0 135 43 266t122.5 239.5t184 191.5t236.5 129.5t272 46.5q186 0 328 -86t214.5 -227t72.5 -312q0 -168 -67 -328t-180.5 -279.5t-273 -192.5t-333.5 -73q-140 0 -257.5 49.5t-196 134t-122 198.5t-43.5 243zM256 608q0 -209 127.5 -345t339.5 -136 q132 0 256 58.5t214.5 155t145 228t54.5 271.5q0 209 -127 345t-336 136q-131 0 -255 -58t-216 -154t-147.5 -228t-55.5 -273zM666 1888h206l150 -278h-127z" />
<glyph unicode="&#xd3;" horiz-adv-x="1652" d="M88 600q0 135 43 266t122.5 239.5t184 191.5t236.5 129.5t272 46.5q186 0 328 -86t214.5 -227t72.5 -312q0 -168 -67 -328t-180.5 -279.5t-273 -192.5t-333.5 -73q-140 0 -257.5 49.5t-196 134t-122 198.5t-43.5 243zM256 608q0 -209 127.5 -345t339.5 -136 q132 0 256 58.5t214.5 155t145 228t54.5 271.5q0 209 -127 345t-336 136q-131 0 -255 -58t-216 -154t-147.5 -228t-55.5 -273zM813 1610l207 278h207l-287 -278h-127z" />
<glyph unicode="&#xd4;" horiz-adv-x="1652" d="M88 600q0 135 43 266t122.5 239.5t184 191.5t236.5 129.5t272 46.5q186 0 328 -86t214.5 -227t72.5 -312q0 -168 -67 -328t-180.5 -279.5t-273 -192.5t-333.5 -73q-140 0 -257.5 49.5t-196 134t-122 198.5t-43.5 243zM256 608q0 -209 127.5 -345t339.5 -136 q132 0 256 58.5t214.5 155t145 228t54.5 271.5q0 209 -127 345t-336 136q-131 0 -255 -58t-216 -154t-147.5 -228t-55.5 -273zM696 1610l258 278h138l200 -278h-139l-145 135l-177 -135h-135z" />
<glyph unicode="&#xd5;" horiz-adv-x="1652" d="M88 600q0 135 43 266t122.5 239.5t184 191.5t236.5 129.5t272 46.5q186 0 328 -86t214.5 -227t72.5 -312q0 -168 -67 -328t-180.5 -279.5t-273 -192.5t-333.5 -73q-140 0 -257.5 49.5t-196 134t-122 198.5t-43.5 243zM256 608q0 -209 127.5 -345t339.5 -136 q132 0 256 58.5t214.5 155t145 228t54.5 271.5q0 209 -127 345t-336 136q-131 0 -255 -58t-216 -154t-147.5 -228t-55.5 -273zM616 1612q43 117 93 168t122 51q49 0 133.5 -41t116.5 -41q39 0 62 20.5t53 77.5l94 -26q-43 -117 -94 -169.5t-123 -52.5q-49 0 -132.5 41 t-115.5 41q-39 0 -61.5 -19.5t-52.5 -76.5z" />
<glyph unicode="&#xd6;" horiz-adv-x="1652" d="M88 600q0 135 43 266t122.5 239.5t184 191.5t236.5 129.5t272 46.5q186 0 328 -86t214.5 -227t72.5 -312q0 -168 -67 -328t-180.5 -279.5t-273 -192.5t-333.5 -73q-140 0 -257.5 49.5t-196 134t-122 198.5t-43.5 243zM256 608q0 -209 127.5 -345t339.5 -136 q132 0 256 58.5t214.5 155t145 228t54.5 271.5q0 209 -127 345t-336 136q-131 0 -255 -58t-216 -154t-147.5 -228t-55.5 -273zM696 1718q3 46 40 79.5t83 33.5t76 -33.5t27 -79.5q-6 -47 -42 -79.5t-85 -32.5q-46 0 -75.5 33t-23.5 79zM1034 1718q3 46 40 79.5t83 33.5 t76 -33.5t27 -79.5q-6 -47 -42 -79.5t-85 -32.5q-46 0 -75.5 33t-23.5 79z" />
<glyph unicode="&#xd7;" d="M141 379l353 350l-353 352l107 107l350 -352l352 352l107 -107l-352 -352l352 -350l-107 -107l-352 353l-350 -353z" />
<glyph unicode="&#xd8;" horiz-adv-x="1652" d="M88 600q0 135 43 266t122.5 239.5t184 191.5t236.5 129.5t272 46.5q191 0 342 -95l78 95h145l-135 -166q89 -86 137 -205t48 -254q0 -168 -67 -328t-180.5 -279.5t-273 -192.5t-333.5 -73q-194 0 -345 95l-77 -95h-146l133 164q-89 86 -136.5 205t-47.5 256zM256 608 q0 -208 123 -340l805 983q-114 70 -254 70q-131 0 -255 -58t-216 -154t-147.5 -228t-55.5 -273zM465 195q114 -68 258 -68q132 0 256 58.5t214.5 155t145 228t54.5 271.5q0 207 -121 340z" />
<glyph unicode="&#xd9;" horiz-adv-x="1468" d="M121 352.5q-26 120.5 2 274.5l147 821h162l-147 -832q-41 -233 51.5 -360t296.5 -127q201 0 336.5 122t175.5 355l147 842h162l-147 -850q-55 -312 -226.5 -466.5t-447.5 -154.5q-135 0 -242 44t-175.5 127.5t-94.5 204zM627 1888h207l149 -278h-127z" />
<glyph unicode="&#xda;" horiz-adv-x="1468" d="M121 352.5q-26 120.5 2 274.5l147 821h162l-147 -832q-41 -233 51.5 -360t296.5 -127q201 0 336.5 122t175.5 355l147 842h162l-147 -850q-55 -312 -226.5 -466.5t-447.5 -154.5q-135 0 -242 44t-175.5 127.5t-94.5 204zM739 1610l207 278h207l-287 -278h-127z" />
<glyph unicode="&#xdb;" horiz-adv-x="1468" d="M121 352.5q-26 120.5 2 274.5l147 821h162l-147 -832q-41 -233 51.5 -360t296.5 -127q201 0 336.5 122t175.5 355l147 842h162l-147 -850q-55 -312 -226.5 -466.5t-447.5 -154.5q-135 0 -242 44t-175.5 127.5t-94.5 204zM569 1610l258 278h138l200 -278h-139l-145 135 l-176 -135h-136z" />
<glyph unicode="&#xdc;" horiz-adv-x="1468" d="M121 352.5q-26 120.5 2 274.5l147 821h162l-147 -832q-41 -233 51.5 -360t296.5 -127q201 0 336.5 122t175.5 355l147 842h162l-147 -850q-55 -312 -226.5 -466.5t-447.5 -154.5q-135 0 -242 44t-175.5 127.5t-94.5 204zM604 1718q3 46 40 79.5t83 33.5q45 0 75 -33.5 t27 -79.5q-6 -47 -42 -79.5t-85 -32.5q-46 0 -75 33t-23 79zM942 1718q3 46 40 79.5t83 33.5q45 0 75 -33.5t27 -79.5q-6 -47 -42 -79.5t-85 -32.5q-46 0 -75 33t-23 79z" />
<glyph unicode="&#xdd;" horiz-adv-x="1505" d="M209 1448h186l344 -721l566 678q37 43 88 43h157l-741 -875l-96 -573h-166l96 571zM791 1610l206 278h207l-286 -278h-127z" />
<glyph unicode="&#xde;" horiz-adv-x="1288" d="M12 0l248 1395q5 27 15.5 40t35.5 17l121 21l-49 -273h350q216 0 347.5 -108.5t131.5 -288.5q0 -105 -33 -194t-91.5 -153t-137.5 -109t-171.5 -67t-194.5 -22h-363l-45 -258h-164zM246 408h348q196 0 325.5 109t129.5 278q0 124 -89 190t-245 66h-359z" />
<glyph unicode="&#xdf;" horiz-adv-x="1167" d="M2 0l184 1047q42 244 164 363.5t316 119.5q158 0 256 -82t98 -215q0 -87 -27 -161t-72.5 -125t-101 -85t-117.5 -49q130 -22 222 -120.5t92 -231.5q0 -107 -48.5 -197.5t-129.5 -150t-186 -92.5t-220 -33q-91 0 -190 24l34 125q66 -14 148 -14q61 0 120 12t115.5 38.5 t99.5 65.5t69 97t26 129q0 109 -92 182.5t-248 85.5l14 119q149 32 239.5 120t90.5 236q0 90 -53 136.5t-150 46.5q-118 0 -200.5 -87t-112.5 -260l-182 -1044h-158z" />
<glyph unicode="&#xe0;" horiz-adv-x="1183" d="M96 438q0 152 60 282.5t145 209.5q173 162 389 162q137 0 231 -64.5t138 -163.5l24 154q5 26 16 39.5t36 17.5l120 21l-194 -1096h-158l45 193q-93 -109 -195.5 -163.5t-238.5 -54.5q-89 0 -167.5 32.5t-133.5 94.5q-117 134 -117 336zM258 444q0 -147 84.5 -236 t216.5 -89q78 0 157.5 39.5t143.5 106t104 162t40 198.5q0 144 -85 234.5t-214 90.5q-159 0 -289 -121q-68 -66 -113 -167t-45 -218zM485 1509h207l150 -278h-127z" />
<glyph unicode="&#xe1;" horiz-adv-x="1183" d="M96 438q0 152 60 282.5t145 209.5q173 162 389 162q137 0 231 -64.5t138 -163.5l24 154q5 26 16 39.5t36 17.5l120 21l-194 -1096h-158l45 193q-93 -109 -195.5 -163.5t-238.5 -54.5q-89 0 -167.5 32.5t-133.5 94.5q-117 134 -117 336zM258 444q0 -147 84.5 -236 t216.5 -89q78 0 157.5 39.5t143.5 106t104 162t40 198.5q0 144 -85 234.5t-214 90.5q-159 0 -289 -121q-68 -66 -113 -167t-45 -218zM575 1231l207 278h207l-287 -278h-127z" />
<glyph unicode="&#xe2;" horiz-adv-x="1183" d="M96 438q0 152 60 282.5t145 209.5q173 162 389 162q137 0 231 -64.5t138 -163.5l24 154q5 26 16 39.5t36 17.5l120 21l-194 -1096h-158l45 193q-93 -109 -195.5 -163.5t-238.5 -54.5q-89 0 -167.5 32.5t-133.5 94.5q-117 134 -117 336zM258 444q0 -147 84.5 -236 t216.5 -89q78 0 157.5 39.5t143.5 106t104 162t40 198.5q0 144 -85 234.5t-214 90.5q-159 0 -289 -121q-68 -66 -113 -167t-45 -218zM430 1231l258 278h137l201 -278h-139l-146 135l-176 -135h-135z" />
<glyph unicode="&#xe3;" horiz-adv-x="1183" d="M96 438q0 152 60 282.5t145 209.5q173 162 389 162q137 0 231 -64.5t138 -163.5l24 154q5 26 16 39.5t36 17.5l120 21l-194 -1096h-158l45 193q-93 -109 -195.5 -163.5t-238.5 -54.5q-89 0 -167.5 32.5t-133.5 94.5q-117 134 -117 336zM258 444q0 -147 84.5 -236 t216.5 -89q78 0 157.5 39.5t143.5 106t104 162t40 198.5q0 144 -85 234.5t-214 90.5q-159 0 -289 -121q-68 -66 -113 -167t-45 -218zM414 1233q43 117 93 168t122 51q49 0 133.5 -41t116.5 -41q39 0 61.5 20t52.5 78l94 -26q-43 -117 -94 -169t-123 -52q-49 0 -132 41 t-115 41q-39 0 -62 -20t-53 -77z" />
<glyph unicode="&#xe4;" horiz-adv-x="1183" d="M96 438q0 152 60 282.5t145 209.5q173 162 389 162q137 0 231 -64.5t138 -163.5l24 154q5 26 16 39.5t36 17.5l120 21l-194 -1096h-158l45 193q-93 -109 -195.5 -163.5t-238.5 -54.5q-89 0 -167.5 32.5t-133.5 94.5q-117 134 -117 336zM258 444q0 -147 84.5 -236 t216.5 -89q78 0 157.5 39.5t143.5 106t104 162t40 198.5q0 144 -85 234.5t-214 90.5q-159 0 -289 -121q-68 -66 -113 -167t-45 -218zM442 1339q3 46 40 79.5t83 33.5t76 -33.5t27 -79.5q-6 -47 -42 -79.5t-85 -32.5q-46 0 -75.5 33t-23.5 79zM780 1339q3 46 40 79.5t83 33.5 t76 -33.5t27 -79.5q-6 -47 -42 -79.5t-85 -32.5q-46 0 -75.5 33t-23.5 79z" />
<glyph unicode="&#xe5;" horiz-adv-x="1183" d="M96 438q0 152 60 282.5t145 209.5q173 162 389 162q137 0 231 -64.5t138 -163.5l24 154q5 26 16 39.5t36 17.5l120 21l-194 -1096h-158l45 193q-93 -109 -195.5 -163.5t-238.5 -54.5q-89 0 -167.5 32.5t-133.5 94.5q-117 134 -117 336zM258 444q0 -147 84.5 -236 t216.5 -89q78 0 157.5 39.5t143.5 106t104 162t40 198.5q0 144 -85 234.5t-214 90.5q-159 0 -289 -121q-68 -66 -113 -167t-45 -218zM537 1350q8 87 70 144.5t155 57.5q84 0 139.5 -62.5t48.5 -148.5q-11 -88 -74 -145t-155 -57q-80 0 -137 63t-47 148zM649 1346 q-6 -40 18 -67.5t64 -27.5t70.5 27.5t36.5 67.5q3 40 -21.5 67t-64.5 27t-70 -27t-33 -67z" />
<glyph unicode="&#xe6;" horiz-adv-x="1880" d="M72 272q0 106 45 184t117.5 118.5t168.5 58.5t194 12.5t198 -27.5q30 118 96 211q-55 111 -232 111q-158 0 -378 -109l14 115q3 28 13 40t34 22q179 84 344 84q219 0 322 -131q157 131 350 131q205 0 316.5 -128t111.5 -325q0 -78 -23 -172h-831q-2 -14 -2 -43 q0 -140 85.5 -222.5t227.5 -82.5q198 0 402 125l-17 -127q-4 -33 -11.5 -43t-33.5 -21q-169 -78 -375 -78q-125 0 -218 47t-148 132q-98 -94 -193.5 -136.5t-216.5 -42.5q-152 0 -256 80.5t-104 216.5zM231 279q0 -82 66.5 -128.5t167.5 -46.5q99 0 186.5 40t145.5 110 q-35 100 -25 238q-71 16 -142 21.5t-144.5 -2.5t-129 -32.5t-90.5 -75.5t-35 -124zM954 596h670q4 36 4 53q0 140 -67 224.5t-205 84.5t-247.5 -100.5t-154.5 -261.5z" />
<glyph unicode="&#xe7;" horiz-adv-x="1177" d="M90 444q0 180 79.5 328t223 234t322.5 86q131 0 239 -46.5t179 -125.5l-113 -109q-69 68 -142.5 103.5t-168.5 35.5q-125 0 -229.5 -67t-164 -181.5t-59.5 -248.5q0 -155 94.5 -243.5t241.5 -88.5q178 0 389 123l-16 -127q-4 -33 -11.5 -43t-33.5 -21q-116 -55 -254 -71 q23 -76 18 -129q-10 -112 -96 -154t-262 -33l10 88q101 0 151 37t58 113q3 35 0 76q-95 5 -175.5 35.5t-144 85.5t-99.5 143t-36 200z" />
<glyph unicode="&#xe8;" horiz-adv-x="1216" d="M94 428q0 183 77.5 335.5t212 240.5t294.5 88q138 0 235.5 -62t143 -162.5t45.5 -228.5q0 -78 -23 -172h-823q-2 -14 -2 -43q0 -140 85.5 -222.5t227.5 -82.5q198 0 402 125l-17 -129q-4 -32 -11.5 -41.5t-33.5 -22.5q-158 -76 -375 -76q-206 0 -322 126.5t-116 326.5z M279 596h659q4 36 4 53q0 141 -64.5 225t-201.5 84t-244.5 -100.5t-152.5 -261.5zM461 1509h207l149 -278h-127z" />
<glyph unicode="&#xe9;" horiz-adv-x="1216" d="M94 428q0 183 77.5 335.5t212 240.5t294.5 88q138 0 235.5 -62t143 -162.5t45.5 -228.5q0 -78 -23 -172h-823q-2 -14 -2 -43q0 -140 85.5 -222.5t227.5 -82.5q198 0 402 125l-17 -129q-4 -32 -11.5 -41.5t-33.5 -22.5q-158 -76 -375 -76q-206 0 -322 126.5t-116 326.5z M279 596h659q4 36 4 53q0 141 -64.5 225t-201.5 84t-244.5 -100.5t-152.5 -261.5zM569 1231l207 278h207l-287 -278h-127z" />
<glyph unicode="&#xea;" horiz-adv-x="1216" d="M94 428q0 183 77.5 335.5t212 240.5t294.5 88q138 0 235.5 -62t143 -162.5t45.5 -228.5q0 -78 -23 -172h-823q-2 -14 -2 -43q0 -140 85.5 -222.5t227.5 -82.5q198 0 402 125l-17 -129q-4 -32 -11.5 -41.5t-33.5 -22.5q-158 -76 -375 -76q-206 0 -322 126.5t-116 326.5z M279 596h659q4 36 4 53q0 141 -64.5 225t-201.5 84t-244.5 -100.5t-152.5 -261.5zM397 1231l258 278h138l200 -278h-139l-145 135l-177 -135h-135z" />
<glyph unicode="&#xeb;" horiz-adv-x="1216" d="M94 428q0 183 77.5 335.5t212 240.5t294.5 88q138 0 235.5 -62t143 -162.5t45.5 -228.5q0 -78 -23 -172h-823q-2 -14 -2 -43q0 -140 85.5 -222.5t227.5 -82.5q198 0 402 125l-17 -129q-4 -32 -11.5 -41.5t-33.5 -22.5q-158 -76 -375 -76q-206 0 -322 126.5t-116 326.5z M279 596h659q4 36 4 53q0 141 -64.5 225t-201.5 84t-244.5 -100.5t-152.5 -261.5zM432 1339q3 46 40 79.5t83 33.5q45 0 75 -33.5t27 -79.5q-6 -47 -42 -79.5t-85 -32.5q-46 0 -75 33t-23 79zM770 1339q3 46 40 79.5t83 33.5q45 0 75 -33.5t27 -79.5q-6 -47 -42 -79.5 t-85 -32.5q-46 0 -75 33t-23 79z" />
<glyph unicode="&#xec;" horiz-adv-x="495" d="M76 0l176 1018q5 27 15.5 40t35.5 17l121 21l-191 -1096h-157zM92 1509h207l150 -278h-127z" />
<glyph unicode="&#xed;" horiz-adv-x="495" d="M76 0l176 1018q5 27 15.5 40t35.5 17l121 21l-191 -1096h-157zM231 1231l207 278h207l-287 -278h-127z" />
<glyph unicode="&#xee;" horiz-adv-x="495" d="M53 1231l258 278h138l200 -278h-139l-145 135l-177 -135h-135zM76 0l176 1018q5 27 15.5 40t35.5 17l121 21l-191 -1096h-157z" />
<glyph unicode="&#xef;" horiz-adv-x="495" d="M66 1339q3 46 39.5 79.5t82.5 33.5t76 -33.5t27 -79.5q-6 -47 -42 -79.5t-85 -32.5q-46 0 -75 33t-23 79zM76 0l176 1018q5 27 15.5 40t35.5 17l121 21l-191 -1096h-157zM403 1339q3 46 40 79.5t83 33.5t76 -33.5t27 -79.5q-6 -47 -42 -79.5t-85 -32.5q-46 0 -75.5 33 t-23.5 79z" />
<glyph unicode="&#xf0;" horiz-adv-x="1296" d="M76 434q0 132 48.5 246t128 190t185 116.5t217.5 33.5q174 -11 287 -115l-174 328l-229 -107l-60 117l230 107l-97 180h187l59 -113l250 115l25 -78q17 -47 -37 -72l-183 -84l136 -272q102 -209 102 -412q0 -132 -40.5 -247t-116 -203t-192.5 -138.5t-261 -50.5 q-132 0 -239 62t-166.5 167t-59.5 230zM236 442q0 -134 92 -225.5t235 -91.5q112 0 208 63t151 166.5t55 220.5q0 130 -89 217t-233 87q-179 0 -299 -123t-120 -314z" />
<glyph unicode="&#xf1;" horiz-adv-x="1181" d="M39 0l178 1018q5 27 15.5 40t35.5 17l121 21l-41 -195q73 95 160.5 143t216.5 48q187 0 282.5 -131t61.5 -330l-108 -631h-162l106 625q26 156 -31 239.5t-194 83.5q-88 0 -172 -53t-141.5 -141t-73.5 -187l-96 -567h-158zM395 1233q43 117 93 168t122 51q49 0 133.5 -41 t116.5 -41q39 0 62 20.5t53 77.5l94 -26q-43 -117 -94 -169t-123 -52q-49 0 -132.5 41t-115.5 41q-39 0 -62 -20t-53 -77z" />
<glyph unicode="&#xf2;" horiz-adv-x="1306" d="M98 459q0 171 86 317t232.5 231t316.5 85q137 0 246.5 -66.5t169 -177.5t59.5 -244q0 -170 -88 -315.5t-234.5 -229.5t-314.5 -84q-139 0 -248 66t-167 176t-58 242zM260 453q0 -146 88.5 -240t233.5 -94q91 0 177 40t149 106.5t101 157.5t38 189q0 147 -89 243.5 t-233 96.5q-92 0 -178.5 -41t-149 -109t-100 -160t-37.5 -189zM465 1509h207l149 -278h-127z" />
<glyph unicode="&#xf3;" horiz-adv-x="1306" d="M98 459q0 171 86 317t232.5 231t316.5 85q137 0 246.5 -66.5t169 -177.5t59.5 -244q0 -170 -88 -315.5t-234.5 -229.5t-314.5 -84q-139 0 -248 66t-167 176t-58 242zM260 453q0 -146 88.5 -240t233.5 -94q91 0 177 40t149 106.5t101 157.5t38 189q0 147 -89 243.5 t-233 96.5q-92 0 -178.5 -41t-149 -109t-100 -160t-37.5 -189zM614 1231l207 278h207l-287 -278h-127z" />
<glyph unicode="&#xf4;" horiz-adv-x="1306" d="M98 459q0 171 86 317t232.5 231t316.5 85q137 0 246.5 -66.5t169 -177.5t59.5 -244q0 -170 -88 -315.5t-234.5 -229.5t-314.5 -84q-139 0 -248 66t-167 176t-58 242zM260 453q0 -146 88.5 -240t233.5 -94q91 0 177 40t149 106.5t101 157.5t38 189q0 147 -89 243.5 t-233 96.5q-92 0 -178.5 -41t-149 -109t-100 -160t-37.5 -189zM444 1231l258 278h138l200 -278h-139l-145 135l-176 -135h-136z" />
<glyph unicode="&#xf5;" horiz-adv-x="1306" d="M98 459q0 171 86 317t232.5 231t316.5 85q137 0 246.5 -66.5t169 -177.5t59.5 -244q0 -170 -88 -315.5t-234.5 -229.5t-314.5 -84q-139 0 -248 66t-167 176t-58 242zM260 453q0 -146 88.5 -240t233.5 -94q91 0 177 40t149 106.5t101 157.5t38 189q0 147 -89 243.5 t-233 96.5q-92 0 -178.5 -41t-149 -109t-100 -160t-37.5 -189zM426 1233q43 117 93 168t122 51q49 0 133.5 -41t116.5 -41q39 0 62 20.5t53 77.5l94 -26q-43 -117 -94 -169t-123 -52q-49 0 -132.5 41t-115.5 41q-39 0 -62 -20t-53 -77z" />
<glyph unicode="&#xf6;" horiz-adv-x="1306" d="M98 459q0 171 86 317t232.5 231t316.5 85q137 0 246.5 -66.5t169 -177.5t59.5 -244q0 -170 -88 -315.5t-234.5 -229.5t-314.5 -84q-139 0 -248 66t-167 176t-58 242zM260 453q0 -146 88.5 -240t233.5 -94q91 0 177 40t149 106.5t101 157.5t38 189q0 147 -89 243.5 t-233 96.5q-92 0 -178.5 -41t-149 -109t-100 -160t-37.5 -189zM481 1339q3 46 40 79.5t83 33.5t76 -33.5t27 -79.5q-6 -47 -42 -79.5t-85 -32.5q-46 0 -75.5 33t-23.5 79zM819 1339q3 46 40 79.5t83 33.5q45 0 75 -33.5t27 -79.5q-6 -47 -41.5 -79.5t-84.5 -32.5 q-46 0 -75.5 33t-23.5 79z" />
<glyph unicode="&#xf7;" d="M102 655v150h994v-150h-994zM485 342q0 46 33.5 79.5t79.5 33.5t79.5 -33.5t33.5 -79.5t-33.5 -79.5t-79.5 -33.5t-79.5 33.5t-33.5 79.5zM485 1118q0 46 33.5 79.5t79.5 33.5t79.5 -33.5t33.5 -79.5t-33.5 -79t-79.5 -33t-79.5 33t-33.5 79z" />
<glyph unicode="&#xf8;" horiz-adv-x="1306" d="M98 459q0 171 86 317t232.5 231t316.5 85q143 0 264 -80l68 80h121l-117 -138q66 -68 102.5 -158.5t36.5 -191.5q0 -170 -88 -315.5t-234.5 -229.5t-314.5 -84q-151 0 -266 76l-63 -76h-121l115 136q-138 138 -138 348zM260 453q0 -133 74 -226l569 674q-76 51 -178 51 q-92 0 -178.5 -41t-149 -109t-100 -160t-37.5 -189zM403 168q77 -49 179 -49q91 0 177 40t149 106.5t101 157.5t38 189q0 134 -76 226z" />
<glyph unicode="&#xf9;" horiz-adv-x="1179" d="M117 467l106 602h158l-107 -614q-29 -157 32.5 -243.5t197.5 -86.5q134 0 223.5 82t118.5 239l108 623h156l-109 -633q-41 -235 -163.5 -345.5t-341.5 -110.5q-207 0 -312.5 131.5t-66.5 355.5zM463 1509h207l149 -278h-127z" />
<glyph unicode="&#xfa;" horiz-adv-x="1179" d="M117 467l106 602h158l-107 -614q-29 -157 32.5 -243.5t197.5 -86.5q134 0 223.5 82t118.5 239l108 623h156l-109 -633q-41 -235 -163.5 -345.5t-341.5 -110.5q-207 0 -312.5 131.5t-66.5 355.5zM571 1231l207 278h207l-287 -278h-127z" />
<glyph unicode="&#xfb;" horiz-adv-x="1179" d="M117 467l106 602h158l-107 -614q-29 -157 32.5 -243.5t197.5 -86.5q134 0 223.5 82t118.5 239l108 623h156l-109 -633q-41 -235 -163.5 -345.5t-341.5 -110.5q-207 0 -312.5 131.5t-66.5 355.5zM383 1231l258 278h137l201 -278h-139l-146 135l-176 -135h-135z" />
<glyph unicode="&#xfc;" horiz-adv-x="1179" d="M117 467l106 602h158l-107 -614q-29 -157 32.5 -243.5t197.5 -86.5q134 0 223.5 82t118.5 239l108 623h156l-109 -633q-41 -235 -163.5 -345.5t-341.5 -110.5q-207 0 -312.5 131.5t-66.5 355.5zM412 1339q3 46 40 79.5t83 33.5q45 0 75 -33.5t27 -79.5q-6 -47 -42 -79.5 t-85 -32.5q-46 0 -75 33t-23 79zM750 1339q3 46 39.5 79.5t82.5 33.5t76 -33.5t27 -79.5q-6 -47 -42 -79.5t-85 -32.5q-46 0 -75 33t-23 79z" />
<glyph unicode="&#xfd;" horiz-adv-x="1267" d="M72 -293l12 98q91 -26 160 -26q87 1 146.5 57t133.5 182l-288 1051h170l223 -866l461 831q21 41 73 41h129l-635 -1126q-101 -178 -188 -248t-219 -70q-41 0 -137 15q-16 2 -24 6t-14 17.5t-3 37.5zM676 1231l207 278h207l-287 -278h-127z" />
<glyph unicode="&#xfe;" horiz-adv-x="1302" d="M-29 -352l316 1804q5 27 15.5 40t35.5 17l121 21l-121 -658q90 108 191.5 164t238.5 56q84 0 160 -32.5t134.5 -90.5t93 -146t34.5 -192q0 -123 -35.5 -230.5t-95 -184t-136 -132t-159.5 -82.5t-164 -27q-138 0 -232.5 63t-144.5 165l-94 -555h-158zM285 442 q0 -147 83 -235t214 -88q81 0 160.5 35.5t143 99t103 162t39.5 213.5q0 147 -84 234t-215 87q-81 0 -161 -38t-142.5 -104t-101.5 -162t-39 -204z" />
<glyph unicode="&#xff;" horiz-adv-x="1267" d="M72 -293l12 98q91 -26 160 -26q87 1 146.5 57t133.5 182l-288 1051h170l223 -866l461 831q21 41 73 41h129l-635 -1126q-101 -178 -188 -248t-219 -70q-41 0 -137 15q-16 2 -24 6t-14 17.5t-3 37.5zM510 1339q3 46 40 79.5t83 33.5q45 0 75 -33.5t27 -79.5 q-6 -47 -42 -79.5t-85 -32.5q-46 0 -75 33t-23 79zM848 1339q3 46 40 79.5t83 33.5q45 0 75 -33.5t27 -79.5q-6 -47 -42 -79.5t-85 -32.5q-46 0 -75 33t-23 79z" />
<glyph unicode="&#x152;" horiz-adv-x="2009" d="M140.5 501q-2.5 114 17.5 242q38 210 129 375t227 260t295 95q224 0 338 -197l31 172h821l-17 -150h-671l-88 -493h579l-14 -150h-590l-90 -505h692l-16 -150h-862l30 168q-92 -97 -183.5 -145t-205.5 -48q-96 0 -174.5 39.5t-130 109.5t-83.5 166.5t-34.5 210.5z M315.5 419.5q16.5 -131.5 85.5 -210t179 -78.5q163 0 288 166.5t170 425.5q28 172 13.5 304t-81.5 211t-177 79q-164 0 -292 -167.5t-175 -426.5q-27 -172 -10.5 -303.5z" />
<glyph unicode="&#x153;" horiz-adv-x="1880" d="M98 459q0 172 81 317.5t222.5 230.5t311.5 85q185 0 319 -105q146 105 318 105q205 0 316.5 -128t111.5 -325q0 -78 -23 -172h-831q-2 -14 -2 -43q0 -140 85.5 -222.5t227.5 -82.5q197 0 401 125l-16 -127q-4 -33 -11.5 -43t-33.5 -21q-169 -78 -375 -78q-179 0 -295 99 q-162 -99 -340 -99q-139 0 -246.5 66t-164 176t-56.5 242zM260 453q0 -147 85.5 -240.5t229.5 -93.5q126 0 240 71q-53 103 -53 236q0 131 42.5 249.5t119.5 209.5q-92 67 -219 67q-123 0 -226 -69.5t-161 -184t-58 -245.5zM946 596h670q4 36 4 53q0 140 -67 224.5 t-205 84.5t-247.5 -100.5t-154.5 -261.5z" />
<glyph unicode="&#x178;" horiz-adv-x="1505" d="M209 1448h186l344 -721l566 678q37 43 88 43h157l-741 -875l-96 -573h-166l96 571zM618 1718q3 46 40 79.5t83 33.5t76 -33.5t27 -79.5q-6 -47 -42 -79.5t-85 -32.5q-46 0 -75.5 33t-23.5 79zM956 1718q3 46 40 79.5t83 33.5t76 -33.5t27 -79.5q-6 -47 -42 -79.5 t-85 -32.5q-46 0 -75.5 33t-23.5 79z" />
<glyph unicode="&#x2c6;" horiz-adv-x="677" d="M25 1231l258 278h137l201 -278h-140l-145 135l-176 -135h-135z" />
<glyph unicode="&#x2dc;" horiz-adv-x="735" d="M29 1233q43 117 93 168t122 51q49 0 133.5 -41t116.5 -41q39 0 61.5 20t52.5 78l94 -26q-43 -117 -94 -169t-123 -52q-49 0 -132 41t-115 41q-39 0 -62 -20t-53 -77z" />
<glyph unicode="&#x2000;" horiz-adv-x="986" />
<glyph unicode="&#x2001;" horiz-adv-x="1972" />
<glyph unicode="&#x2002;" horiz-adv-x="986" />
<glyph unicode="&#x2003;" horiz-adv-x="1972" />
<glyph unicode="&#x2004;" horiz-adv-x="657" />
<glyph unicode="&#x2005;" horiz-adv-x="493" />
<glyph unicode="&#x2006;" horiz-adv-x="328" />
<glyph unicode="&#x2007;" horiz-adv-x="328" />
<glyph unicode="&#x2008;" horiz-adv-x="246" />
<glyph unicode="&#x2009;" horiz-adv-x="394" />
<glyph unicode="&#x200a;" horiz-adv-x="109" />
<glyph unicode="&#x2010;" horiz-adv-x="839" d="M106 631l31 174h594l-31 -174h-594z" />
<glyph unicode="&#x2011;" horiz-adv-x="839" d="M106 631l31 174h594l-31 -174h-594z" />
<glyph unicode="&#x2012;" horiz-adv-x="839" d="M106 631l31 174h594l-31 -174h-594z" />
<glyph unicode="&#x2013;" horiz-adv-x="1099" d="M106 635l31 166h854l-30 -166h-855z" />
<glyph unicode="&#x2014;" horiz-adv-x="1849" d="M109 639l26 158h1604l-27 -158h-1603z" />
<glyph unicode="&#x2018;" horiz-adv-x="487" d="M93.5 1191.5q8.5 78.5 49.5 145.5q68 121 234 162l24 -72q-74 -29 -115 -67t-50 -92q53 1 85 -34t27 -87q-5 -50 -43.5 -85.5t-89.5 -35.5q-55 0 -90 35q-40 52 -31.5 130.5z" />
<glyph unicode="&#x2019;" horiz-adv-x="487" d="M82 1098q150 58 166 159q-53 -1 -85.5 34t-27.5 87q5 50 43.5 85.5t89.5 35.5q55 0 90 -35q40 -52 31.5 -130.5t-49.5 -145.5q-68 -121 -234 -162z" />
<glyph unicode="&#x201a;" horiz-adv-x="479" d="M104 -168q72 28 111.5 65.5t48.5 90.5q-52 -1 -83 32.5t-25 83.5q6 48 43 83.5t86 35.5q51 0 86 -35q26 -30 30 -79.5t-9 -98t-38 -90.5q-75 -118 -227 -158z" />
<glyph unicode="&#x201c;" horiz-adv-x="876" d="M93.5 1191.5q8.5 78.5 49.5 145.5q68 121 234 162l24 -72q-74 -29 -115 -67t-50 -92q53 1 85 -34t27 -87q-5 -50 -43.5 -85.5t-89.5 -35.5q-55 0 -90 35q-40 52 -31.5 130.5zM482.5 1191.5q8.5 78.5 49.5 145.5q68 121 234 162l25 -72q-150 -58 -166 -159q53 1 85 -34 t27 -87q-5 -50 -43.5 -85.5t-89.5 -35.5q-55 0 -90 35q-40 52 -31.5 130.5z" />
<glyph unicode="&#x201d;" horiz-adv-x="876" d="M82 1098q150 58 166 159q-53 -1 -85.5 34t-27.5 87q5 50 43.5 85.5t89.5 35.5q55 0 90 -35q40 -52 31.5 -130.5t-49.5 -145.5q-68 -121 -234 -162zM471 1098q150 58 166 159q-53 -1 -85.5 34t-27.5 87q5 50 43.5 85.5t89.5 35.5q56 0 91 -35q27 -30 31.5 -80.5t-10 -102 t-40.5 -93.5q-69 -121 -233 -162z" />
<glyph unicode="&#x201e;" horiz-adv-x="868" d="M104 -168q72 28 111.5 65.5t48.5 90.5q-52 -1 -83 32.5t-25 83.5q6 48 43 83.5t86 35.5q51 0 86 -35q26 -30 30 -79.5t-9 -98t-38 -90.5q-75 -118 -227 -158zM494 -168q72 28 111 65.5t48 90.5q-52 -1 -83 32.5t-25 83.5q6 48 43 83.5t86 35.5q51 0 86 -35 q26 -30 30 -79.5t-9 -98t-38 -90.5q-75 -118 -227 -158z" />
<glyph unicode="&#x2022;" horiz-adv-x="708" d="M35 725q0 116 81.5 197.5t196.5 81.5t197 -82t82 -197t-82 -197t-197 -82t-196.5 81.5t-81.5 197.5z" />
<glyph unicode="&#x2026;" horiz-adv-x="1413" d="M123 106q3 46 40 79.5t83 33.5q45 0 75 -33.5t27 -79.5q-6 -47 -41 -79.5t-86 -32.5q-46 0 -75 33t-23 79zM594 106q3 46 40 79.5t83 33.5q45 0 75 -33.5t27 -79.5q-6 -47 -41 -79.5t-86 -32.5q-46 0 -75 33t-23 79zM1065 106q3 46 40 79.5t83 33.5q45 0 75 -33.5 t27 -79.5q-6 -47 -41 -79.5t-86 -32.5q-46 0 -75 33t-23 79z" />
<glyph unicode="&#x202f;" horiz-adv-x="394" />
<glyph unicode="&#x2039;" horiz-adv-x="626" d="M61 608l412 439l94 -80l-323 -373l190 -381l-119 -68z" />
<glyph unicode="&#x203a;" horiz-adv-x="626" d="M47 225l324 373l-191 381l119 68l254 -463l-412 -439z" />
<glyph unicode="&#x205f;" horiz-adv-x="493" />
<glyph unicode="&#x20ac;" horiz-adv-x="1462" d="M27 530l36 125h197q5 67 25 150h-189l39 125h184q86 241 264 392t398 151q168 0 286 -81t175 -202l-135 -80q-56 104 -137 159.5t-199 55.5q-150 0 -275 -109t-198 -286h520l-47 -125h-512q-22 -90 -27 -150h502l-39 -125h-469q11 -180 99.5 -293.5t240.5 -113.5 q115 0 209 59.5t194 177.5l103 -92q-119 -144 -238 -218.5t-278 -74.5q-150 0 -264 73t-174.5 198t-63.5 284h-227z" />
<glyph unicode="&#x2122;" horiz-adv-x="1267" d="M20 1368v80h492l-10 -51q-4 -19 -12 -24t-27 -5h-162v-520h-86v520h-195zM575 848v600h89l208 -326l207 326h86v-600h-82v461l-211 -324l-215 324v-461h-82z" />
<glyph unicode="&#x25fc;" horiz-adv-x="1075" d="M0 0v1075h1075v-1075h-1075z" />
</font>
</defs>
</svg>
